%TF.GenerationSoftware,KiCad,Pcbnew,(6.0.6)*%
%TF.CreationDate,2022-08-26T12:21:53+07:00*%
%TF.ProjectId,test,74657374-2e6b-4696-9361-645f70636258,rev?*%
%TF.SameCoordinates,Original*%
%TF.FileFunction,Legend,Top*%
%TF.FilePolarity,Positive*%
%FSLAX46Y46*%
G04 Gerber Fmt 4.6, Leading zero omitted, Abs format (unit mm)*
G04 Created by KiCad (PCBNEW (6.0.6)) date 2022-08-26 12:21:53*
%MOMM*%
%LPD*%
G01*
G04 APERTURE LIST*
%ADD10C,0.150000*%
%ADD11C,0.120000*%
G04 APERTURE END LIST*
D10*
%TO.C,U1*%
X108799380Y-95376904D02*
X109608904Y-95376904D01*
X109704142Y-95329285D01*
X109751761Y-95281666D01*
X109799380Y-95186428D01*
X109799380Y-94995952D01*
X109751761Y-94900714D01*
X109704142Y-94853095D01*
X109608904Y-94805476D01*
X108799380Y-94805476D01*
X109799380Y-93805476D02*
X109799380Y-94376904D01*
X109799380Y-94091190D02*
X108799380Y-94091190D01*
X108942238Y-94186428D01*
X109037476Y-94281666D01*
X109085095Y-94376904D01*
D11*
X100243000Y-69723000D02*
X100243000Y-120571000D01*
X118050000Y-69723000D02*
X118050000Y-120571000D01*
X120710000Y-69723000D02*
X120710000Y-120571000D01*
X118050000Y-120571000D02*
X120710000Y-120571000D01*
X118050000Y-69723000D02*
X120710000Y-69723000D01*
X102903000Y-69723000D02*
X102903000Y-120571000D01*
X100243000Y-120571000D02*
X102903000Y-120571000D01*
X100243000Y-69723000D02*
X102903000Y-69723000D01*
X115443000Y-114808000D02*
X112395000Y-114808000D01*
X112395000Y-114808000D02*
X112395000Y-110871000D01*
X112395000Y-110871000D02*
X115443000Y-110871000D01*
X115443000Y-110871000D02*
X115443000Y-114808000D01*
X105863000Y-69123000D02*
X114863000Y-69123000D01*
X114863000Y-69123000D02*
X114863000Y-77123000D01*
X114863000Y-77123000D02*
X105863000Y-77123000D01*
X105863000Y-77123000D02*
X105863000Y-69123000D01*
X99349000Y-68623000D02*
X121539000Y-68623000D01*
X121539000Y-68623000D02*
X121539000Y-121623000D01*
X121539000Y-121623000D02*
X99349000Y-121623000D01*
X99349000Y-121623000D02*
X99349000Y-68623000D01*
X104775000Y-115316000D02*
X106045000Y-115316000D01*
X106045000Y-115316000D02*
X106045000Y-113157000D01*
X106045000Y-113157000D02*
X104775000Y-113157000D01*
X104775000Y-113157000D02*
X104775000Y-115316000D01*
X108077000Y-115316000D02*
X109347000Y-115316000D01*
X109347000Y-115316000D02*
X109347000Y-113157000D01*
X109347000Y-113157000D02*
X108077000Y-113157000D01*
X108077000Y-113157000D02*
X108077000Y-115316000D01*
X109093000Y-83312000D02*
X105029000Y-83312000D01*
X105029000Y-83312000D02*
X105029000Y-86360000D01*
X105029000Y-86360000D02*
X109093000Y-86360000D01*
X109093000Y-86360000D02*
X109093000Y-83312000D01*
X115316000Y-83312000D02*
X111252000Y-83312000D01*
X111252000Y-83312000D02*
X111252000Y-86360000D01*
X111252000Y-86360000D02*
X115316000Y-86360000D01*
X115316000Y-86360000D02*
X115316000Y-83312000D01*
%TD*%
M02*
