%TF.GenerationSoftware,KiCad,Pcbnew,(6.0.6)*%
%TF.CreationDate,2022-08-26T12:21:53+07:00*%
%TF.ProjectId,test,74657374-2e6b-4696-9361-645f70636258,rev?*%
%TF.SameCoordinates,Original*%
%TF.FileFunction,Copper,L2,Bot*%
%TF.FilePolarity,Positive*%
%FSLAX46Y46*%
G04 Gerber Fmt 4.6, Leading zero omitted, Abs format (unit mm)*
G04 Created by KiCad (PCBNEW (6.0.6)) date 2022-08-26 12:21:53*
%MOMM*%
%LPD*%
G01*
G04 APERTURE LIST*
%TA.AperFunction,ComponentPad*%
%ADD10C,1.700000*%
%TD*%
%TA.AperFunction,ComponentPad*%
%ADD11O,1.700000X1.700000*%
%TD*%
%TA.AperFunction,ComponentPad*%
%ADD12R,1.700000X1.700000*%
%TD*%
G04 APERTURE END LIST*
D10*
%TO.P,U1,1,GP0*%
%TO.N,unconnected-(U1-Pad1)*%
X101573000Y-70981000D03*
D11*
%TO.P,U1,2,GP1*%
%TO.N,unconnected-(U1-Pad2)*%
X101573000Y-73521000D03*
D12*
%TO.P,U1,3,GND*%
%TO.N,unconnected-(U1-Pad3)*%
X101573000Y-76061000D03*
D11*
%TO.P,U1,4,GP2*%
%TO.N,unconnected-(U1-Pad4)*%
X101573000Y-78601000D03*
%TO.P,U1,5,GP3*%
%TO.N,unconnected-(U1-Pad5)*%
X101573000Y-81141000D03*
%TO.P,U1,6,GP4*%
%TO.N,unconnected-(U1-Pad6)*%
X101573000Y-83681000D03*
%TO.P,U1,7,GP5*%
%TO.N,unconnected-(U1-Pad7)*%
X101573000Y-86221000D03*
D12*
%TO.P,U1,8,GND*%
%TO.N,unconnected-(U1-Pad8)*%
X101573000Y-88761000D03*
D11*
%TO.P,U1,9,GP6*%
%TO.N,unconnected-(U1-Pad9)*%
X101573000Y-91301000D03*
%TO.P,U1,10,GP7*%
%TO.N,unconnected-(U1-Pad10)*%
X101573000Y-93841000D03*
%TO.P,U1,11,GP8*%
%TO.N,unconnected-(U1-Pad11)*%
X101573000Y-96381000D03*
%TO.P,U1,12,GP9*%
%TO.N,unconnected-(U1-Pad12)*%
X101573000Y-98921000D03*
D12*
%TO.P,U1,13,GND*%
%TO.N,unconnected-(U1-Pad13)*%
X101573000Y-101461000D03*
D11*
%TO.P,U1,14,GP10*%
%TO.N,unconnected-(U1-Pad14)*%
X101573000Y-104001000D03*
%TO.P,U1,15,GP11*%
%TO.N,unconnected-(U1-Pad15)*%
X101573000Y-106541000D03*
%TO.P,U1,16,GP12*%
%TO.N,unconnected-(U1-Pad16)*%
X101573000Y-109081000D03*
%TO.P,U1,17,GP13*%
%TO.N,unconnected-(U1-Pad17)*%
X101573000Y-111621000D03*
D12*
%TO.P,U1,18,GND*%
%TO.N,unconnected-(U1-Pad18)*%
X101573000Y-114161000D03*
D11*
%TO.P,U1,19,GP14*%
%TO.N,unconnected-(U1-Pad19)*%
X101573000Y-116701000D03*
%TO.P,U1,20,GP15*%
%TO.N,unconnected-(U1-Pad20)*%
X101573000Y-119241000D03*
D12*
%TO.P,U1,21,GP16*%
%TO.N,unconnected-(U1-Pad21)*%
X119380000Y-119241000D03*
D11*
%TO.P,U1,22,GP17*%
%TO.N,unconnected-(U1-Pad22)*%
X119380000Y-116701000D03*
D12*
%TO.P,U1,23,GND*%
%TO.N,unconnected-(U1-Pad23)*%
X119380000Y-114173000D03*
D11*
%TO.P,U1,24,GP18*%
%TO.N,unconnected-(U1-Pad24)*%
X119380000Y-111621000D03*
%TO.P,U1,25,GP19*%
%TO.N,unconnected-(U1-Pad25)*%
X119380000Y-109081000D03*
%TO.P,U1,26,GP20*%
%TO.N,unconnected-(U1-Pad26)*%
X119380000Y-106541000D03*
%TO.P,U1,27,GP21*%
%TO.N,unconnected-(U1-Pad27)*%
X119380000Y-104001000D03*
D12*
%TO.P,U1,28,GND*%
%TO.N,unconnected-(U1-Pad28)*%
X119380000Y-101461000D03*
D11*
%TO.P,U1,29,GP22*%
%TO.N,unconnected-(U1-Pad29)*%
X119380000Y-98921000D03*
%TO.P,U1,30,RUN*%
%TO.N,unconnected-(U1-Pad30)*%
X119380000Y-96393000D03*
%TO.P,U1,31,GP26*%
%TO.N,unconnected-(U1-Pad31)*%
X119380000Y-93841000D03*
%TO.P,U1,32,GP27*%
%TO.N,unconnected-(U1-Pad32)*%
X119380000Y-91301000D03*
D12*
%TO.P,U1,33,GND*%
%TO.N,unconnected-(U1-Pad33)*%
X119380000Y-88761000D03*
D11*
%TO.P,U1,34,GP28*%
%TO.N,unconnected-(U1-Pad34)*%
X119380000Y-86221000D03*
%TO.P,U1,35,GP29*%
%TO.N,unconnected-(U1-Pad35)*%
X119380000Y-83681000D03*
%TO.P,U1,36,3V3*%
%TO.N,unconnected-(U1-Pad36)*%
X119380000Y-81141000D03*
%TO.P,U1,37,GP23*%
%TO.N,unconnected-(U1-Pad37)*%
X119380000Y-78601000D03*
D12*
%TO.P,U1,38,GND*%
%TO.N,unconnected-(U1-Pad38)*%
X119380000Y-76061000D03*
D11*
%TO.P,U1,39,VSYS*%
%TO.N,unconnected-(U1-Pad39)*%
X119380000Y-73521000D03*
D10*
%TO.P,U1,40,VBUS*%
%TO.N,unconnected-(U1-Pad40)*%
X119380000Y-70981000D03*
D12*
%TO.P,U1,41,GND*%
%TO.N,unconnected-(U1-Pad41)*%
X106680000Y-118999000D03*
%TO.P,U1,42,SWDIO*%
%TO.N,unconnected-(U1-Pad42)*%
X109220000Y-118999000D03*
%TO.P,U1,43,SWCLK*%
%TO.N,unconnected-(U1-Pad43)*%
X111760000Y-118999000D03*
%TO.P,U1,44,3V3*%
%TO.N,unconnected-(U1-Pad44)*%
X114300000Y-118999000D03*
%TD*%
M02*
