M48
; DRILL file {KiCad (6.0.6)} date Fri Aug 26 12:21:55 2022
; FORMAT={-:-/ absolute / inch / decimal}
; #@! TF.CreationDate,2022-08-26T12:21:55+07:00
; #@! TF.GenerationSoftware,Kicad,Pcbnew,(6.0.6)
; #@! TF.FileFunction,Plated,1,2,PTH
FMAT,2
INCH
; #@! TA.AperFunction,Plated,PTH,ComponentDrill
T1C0.0394
%
G90
G05
T1
X3.9989Y-2.7945
X3.9989Y-2.8945
X3.9989Y-2.9945
X3.9989Y-3.0945
X3.9989Y-3.1945
X3.9989Y-3.2945
X3.9989Y-3.3945
X3.9989Y-3.4945
X3.9989Y-3.5945
X3.9989Y-3.6945
X3.9989Y-3.7945
X3.9989Y-3.8945
X3.9989Y-3.9945
X3.9989Y-4.0945
X3.9989Y-4.1945
X3.9989Y-4.2945
X3.9989Y-4.3945
X3.9989Y-4.4945
X3.9989Y-4.5945
X3.9989Y-4.6945
X4.2Y-4.685
X4.3Y-4.685
X4.4Y-4.685
X4.5Y-4.685
X4.7Y-2.7945
X4.7Y-2.8945
X4.7Y-2.9945
X4.7Y-3.0945
X4.7Y-3.1945
X4.7Y-3.2945
X4.7Y-3.3945
X4.7Y-3.4945
X4.7Y-3.5945
X4.7Y-3.6945
X4.7Y-3.795
X4.7Y-3.8945
X4.7Y-3.9945
X4.7Y-4.0945
X4.7Y-4.1945
X4.7Y-4.2945
X4.7Y-4.3945
X4.7Y-4.495
X4.7Y-4.5945
X4.7Y-4.6945
T0
M30
