%TF.GenerationSoftware,KiCad,Pcbnew,(6.0.6)*%
%TF.CreationDate,2022-09-13T11:19:58+07:00*%
%TF.ProjectId,Master,4d617374-6572-42e6-9b69-6361645f7063,rev?*%
%TF.SameCoordinates,Original*%
%TF.FileFunction,Legend,Top*%
%TF.FilePolarity,Positive*%
%FSLAX46Y46*%
G04 Gerber Fmt 4.6, Leading zero omitted, Abs format (unit mm)*
G04 Created by KiCad (PCBNEW (6.0.6)) date 2022-09-13 11:19:58*
%MOMM*%
%LPD*%
G01*
G04 APERTURE LIST*
%ADD10C,0.150000*%
%ADD11C,0.190500*%
%ADD12C,0.127000*%
%ADD13C,0.285750*%
%ADD14C,0.254000*%
%ADD15C,0.177800*%
%ADD16C,0.203200*%
%ADD17C,0.200000*%
%ADD18C,0.120000*%
G04 APERTURE END LIST*
D10*
X197673000Y-58293000D02*
X202057000Y-58293000D01*
X159613600Y-138150600D02*
X159613600Y-135890000D01*
X121031000Y-138176000D02*
X121031000Y-135890000D01*
X91821000Y-133096000D02*
X89535000Y-133096000D01*
X154533600Y-138176000D02*
X154533600Y-135890000D01*
X91821000Y-116332000D02*
X89535000Y-116332000D01*
X91821000Y-135636000D02*
X89535000Y-135636000D01*
X91821000Y-128016000D02*
X89535000Y-128016000D01*
X197673000Y-53213000D02*
X202057000Y-53213000D01*
X139319000Y-138201000D02*
X139319000Y-135915000D01*
X197673000Y-80772000D02*
X202057000Y-80772000D01*
X197673000Y-85725000D02*
X202057000Y-85725000D01*
X91821000Y-130556000D02*
X89535000Y-130556000D01*
X125984000Y-138176000D02*
X125984000Y-135890000D01*
X162102800Y-138176000D02*
X162102800Y-135890000D01*
X157065500Y-138151000D02*
X157065500Y-135940800D01*
X197706000Y-48260000D02*
X202090000Y-48260000D01*
X91821000Y-111252000D02*
X89535000Y-111252000D01*
X91821000Y-113792000D02*
X89535000Y-113792000D01*
X91821000Y-125476000D02*
X89535000Y-125476000D01*
X91821000Y-106172000D02*
X89535000Y-106172000D01*
X151942800Y-138150600D02*
X151942800Y-135890000D01*
X197739000Y-90678000D02*
X202057000Y-90678000D01*
X91821000Y-108712000D02*
X89535000Y-108712000D01*
D11*
X176883180Y-72264209D02*
X177899180Y-72264209D01*
X177899180Y-72506114D01*
X177850800Y-72651257D01*
X177754038Y-72748019D01*
X177657276Y-72796400D01*
X177463752Y-72844780D01*
X177318609Y-72844780D01*
X177125085Y-72796400D01*
X177028323Y-72748019D01*
X176931561Y-72651257D01*
X176883180Y-72506114D01*
X176883180Y-72264209D01*
X176883180Y-73860780D02*
X177366990Y-73522114D01*
X176883180Y-73280209D02*
X177899180Y-73280209D01*
X177899180Y-73667257D01*
X177850800Y-73764019D01*
X177802419Y-73812400D01*
X177705657Y-73860780D01*
X177560514Y-73860780D01*
X177463752Y-73812400D01*
X177415371Y-73764019D01*
X177366990Y-73667257D01*
X177366990Y-73280209D01*
X177899180Y-74489733D02*
X177899180Y-74683257D01*
X177850800Y-74780019D01*
X177754038Y-74876780D01*
X177560514Y-74925161D01*
X177221847Y-74925161D01*
X177028323Y-74876780D01*
X176931561Y-74780019D01*
X176883180Y-74683257D01*
X176883180Y-74489733D01*
X176931561Y-74392971D01*
X177028323Y-74296209D01*
X177221847Y-74247828D01*
X177560514Y-74247828D01*
X177754038Y-74296209D01*
X177850800Y-74392971D01*
X177899180Y-74489733D01*
X176883180Y-75360590D02*
X177899180Y-75360590D01*
X177899180Y-75747638D01*
X177850800Y-75844400D01*
X177802419Y-75892780D01*
X177705657Y-75941161D01*
X177560514Y-75941161D01*
X177463752Y-75892780D01*
X177415371Y-75844400D01*
X177366990Y-75747638D01*
X177366990Y-75360590D01*
X176786419Y-76134685D02*
X176786419Y-76908780D01*
X177899180Y-77005542D02*
X177899180Y-77586114D01*
X176883180Y-77295828D02*
X177899180Y-77295828D01*
X177899180Y-77924780D02*
X177076704Y-77924780D01*
X176979942Y-77973161D01*
X176931561Y-78021542D01*
X176883180Y-78118304D01*
X176883180Y-78311828D01*
X176931561Y-78408590D01*
X176979942Y-78456971D01*
X177076704Y-78505352D01*
X177899180Y-78505352D01*
X177415371Y-79327828D02*
X177366990Y-79472971D01*
X177318609Y-79521352D01*
X177221847Y-79569733D01*
X177076704Y-79569733D01*
X176979942Y-79521352D01*
X176931561Y-79472971D01*
X176883180Y-79376209D01*
X176883180Y-78989161D01*
X177899180Y-78989161D01*
X177899180Y-79327828D01*
X177850800Y-79424590D01*
X177802419Y-79472971D01*
X177705657Y-79521352D01*
X177608895Y-79521352D01*
X177512133Y-79472971D01*
X177463752Y-79424590D01*
X177415371Y-79327828D01*
X177415371Y-78989161D01*
X177415371Y-80005161D02*
X177415371Y-80343828D01*
X176883180Y-80488971D02*
X176883180Y-80005161D01*
X177899180Y-80005161D01*
X177899180Y-80488971D01*
D12*
X198197409Y-55098647D02*
X198197409Y-54759980D01*
X198705409Y-54977695D01*
X198197409Y-54639028D02*
X198705409Y-54469695D01*
X198197409Y-54300361D01*
X153169257Y-139536714D02*
X153314400Y-139536714D01*
X153386971Y-139500428D01*
X153423257Y-139464142D01*
X153495828Y-139355285D01*
X153532114Y-139210142D01*
X153532114Y-138919857D01*
X153495828Y-138847285D01*
X153459542Y-138811000D01*
X153386971Y-138774714D01*
X153241828Y-138774714D01*
X153169257Y-138811000D01*
X153132971Y-138847285D01*
X153096685Y-138919857D01*
X153096685Y-139101285D01*
X153132971Y-139173857D01*
X153169257Y-139210142D01*
X153241828Y-139246428D01*
X153386971Y-139246428D01*
X153459542Y-139210142D01*
X153495828Y-139173857D01*
X153532114Y-139101285D01*
D10*
X93159338Y-111987390D02*
X93159338Y-112410723D01*
X92524338Y-112138580D01*
X93159338Y-112561914D02*
X92524338Y-112773580D01*
X93159338Y-112985247D01*
D13*
X133847114Y-133994071D02*
X134554685Y-133994071D01*
X134173685Y-134429500D01*
X134336971Y-134429500D01*
X134445828Y-134483928D01*
X134500257Y-134538357D01*
X134554685Y-134647214D01*
X134554685Y-134919357D01*
X134500257Y-135028214D01*
X134445828Y-135082642D01*
X134336971Y-135137071D01*
X134010400Y-135137071D01*
X133901542Y-135082642D01*
X133847114Y-135028214D01*
X135044542Y-135028214D02*
X135098971Y-135082642D01*
X135044542Y-135137071D01*
X134990114Y-135082642D01*
X135044542Y-135028214D01*
X135044542Y-135137071D01*
X135479971Y-133994071D02*
X136187542Y-133994071D01*
X135806542Y-134429500D01*
X135969828Y-134429500D01*
X136078685Y-134483928D01*
X136133114Y-134538357D01*
X136187542Y-134647214D01*
X136187542Y-134919357D01*
X136133114Y-135028214D01*
X136078685Y-135082642D01*
X135969828Y-135137071D01*
X135643257Y-135137071D01*
X135534400Y-135082642D01*
X135479971Y-135028214D01*
X136514114Y-133994071D02*
X136895114Y-135137071D01*
X137276114Y-133994071D01*
D12*
X160201428Y-138796485D02*
X160237714Y-138760200D01*
X160310285Y-138723914D01*
X160491714Y-138723914D01*
X160564285Y-138760200D01*
X160600571Y-138796485D01*
X160636857Y-138869057D01*
X160636857Y-138941628D01*
X160600571Y-139050485D01*
X160165142Y-139485914D01*
X160636857Y-139485914D01*
X160890857Y-138723914D02*
X161362571Y-138723914D01*
X161108571Y-139014200D01*
X161217428Y-139014200D01*
X161290000Y-139050485D01*
X161326285Y-139086771D01*
X161362571Y-139159342D01*
X161362571Y-139340771D01*
X161326285Y-139413342D01*
X161290000Y-139449628D01*
X161217428Y-139485914D01*
X160999714Y-139485914D01*
X160927142Y-139449628D01*
X160890857Y-139413342D01*
X201576819Y-90230476D02*
X201601009Y-90157904D01*
X201601009Y-90036952D01*
X201576819Y-89988571D01*
X201552628Y-89964380D01*
X201504247Y-89940190D01*
X201455866Y-89940190D01*
X201407485Y-89964380D01*
X201383295Y-89988571D01*
X201359104Y-90036952D01*
X201334914Y-90133714D01*
X201310723Y-90182095D01*
X201286533Y-90206285D01*
X201238152Y-90230476D01*
X201189771Y-90230476D01*
X201141390Y-90206285D01*
X201117200Y-90182095D01*
X201093009Y-90133714D01*
X201093009Y-90012761D01*
X201117200Y-89940190D01*
X201093009Y-89795047D02*
X201093009Y-89504761D01*
X201601009Y-89649904D02*
X201093009Y-89649904D01*
X201334914Y-89335428D02*
X201334914Y-89166095D01*
X201601009Y-89093523D02*
X201601009Y-89335428D01*
X201093009Y-89335428D01*
X201093009Y-89093523D01*
X201601009Y-88875809D02*
X201093009Y-88875809D01*
X201093009Y-88682285D01*
X201117200Y-88633904D01*
X201141390Y-88609714D01*
X201189771Y-88585523D01*
X201262342Y-88585523D01*
X201310723Y-88609714D01*
X201334914Y-88633904D01*
X201359104Y-88682285D01*
X201359104Y-88875809D01*
X198286914Y-84884380D02*
X198286914Y-85053714D01*
X198553009Y-85053714D02*
X198045009Y-85053714D01*
X198045009Y-84811809D01*
X198020819Y-84255428D02*
X198673961Y-84690857D01*
X198286914Y-83916761D02*
X198311104Y-83844190D01*
X198335295Y-83820000D01*
X198383676Y-83795809D01*
X198456247Y-83795809D01*
X198504628Y-83820000D01*
X198528819Y-83844190D01*
X198553009Y-83892571D01*
X198553009Y-84086095D01*
X198045009Y-84086095D01*
X198045009Y-83916761D01*
X198069200Y-83868380D01*
X198093390Y-83844190D01*
X198141771Y-83820000D01*
X198190152Y-83820000D01*
X198238533Y-83844190D01*
X198262723Y-83868380D01*
X198286914Y-83916761D01*
X198286914Y-84086095D01*
X198553009Y-82949142D02*
X198553009Y-83191047D01*
X198045009Y-83191047D01*
X198553009Y-82779809D02*
X198045009Y-82779809D01*
X198553009Y-82537904D02*
X198045009Y-82537904D01*
X198407866Y-82368571D01*
X198045009Y-82199238D01*
X198553009Y-82199238D01*
X198553009Y-81957333D02*
X198045009Y-81957333D01*
X198045009Y-81788000D02*
X198045009Y-81497714D01*
X198553009Y-81642857D02*
X198045009Y-81642857D01*
D10*
X93210138Y-125814061D02*
X93210138Y-126176919D01*
X92575138Y-125995490D02*
X93210138Y-125995490D01*
X92514661Y-126237395D02*
X92514661Y-126721204D01*
X92575138Y-126872395D02*
X93210138Y-126872395D01*
X93210138Y-127023585D01*
X93179900Y-127114300D01*
X93119423Y-127174776D01*
X93058947Y-127205014D01*
X92937995Y-127235252D01*
X92847280Y-127235252D01*
X92726328Y-127205014D01*
X92665852Y-127174776D01*
X92605376Y-127114300D01*
X92575138Y-127023585D01*
X92575138Y-126872395D01*
X93210138Y-127416680D02*
X93210138Y-127779538D01*
X92575138Y-127598109D02*
X93210138Y-127598109D01*
X93210138Y-131654247D02*
X93210138Y-131351866D01*
X92907757Y-131321628D01*
X92937995Y-131351866D01*
X92968233Y-131412342D01*
X92968233Y-131563533D01*
X92937995Y-131624009D01*
X92907757Y-131654247D01*
X92847280Y-131684485D01*
X92696090Y-131684485D01*
X92635614Y-131654247D01*
X92605376Y-131624009D01*
X92575138Y-131563533D01*
X92575138Y-131412342D01*
X92605376Y-131351866D01*
X92635614Y-131321628D01*
X93210138Y-131865914D02*
X92575138Y-132077580D01*
X93210138Y-132289247D01*
D12*
X201117200Y-79838247D02*
X201093009Y-79886628D01*
X201093009Y-79959200D01*
X201117200Y-80031771D01*
X201165580Y-80080152D01*
X201213961Y-80104342D01*
X201310723Y-80128533D01*
X201383295Y-80128533D01*
X201480057Y-80104342D01*
X201528438Y-80080152D01*
X201576819Y-80031771D01*
X201601009Y-79959200D01*
X201601009Y-79910819D01*
X201576819Y-79838247D01*
X201552628Y-79814057D01*
X201383295Y-79814057D01*
X201383295Y-79910819D01*
X201601009Y-79596342D02*
X201093009Y-79596342D01*
X201601009Y-79306057D01*
X201093009Y-79306057D01*
X201601009Y-79064152D02*
X201093009Y-79064152D01*
X201093009Y-78943200D01*
X201117200Y-78870628D01*
X201165580Y-78822247D01*
X201213961Y-78798057D01*
X201310723Y-78773866D01*
X201383295Y-78773866D01*
X201480057Y-78798057D01*
X201528438Y-78822247D01*
X201576819Y-78870628D01*
X201601009Y-78943200D01*
X201601009Y-79064152D01*
D10*
X92473538Y-104433309D02*
X93108538Y-104433309D01*
X93108538Y-104675214D01*
X93078300Y-104735690D01*
X93048061Y-104765928D01*
X92987585Y-104796166D01*
X92896871Y-104796166D01*
X92836395Y-104765928D01*
X92806157Y-104735690D01*
X92775919Y-104675214D01*
X92775919Y-104433309D01*
X92896871Y-105340452D02*
X92473538Y-105340452D01*
X93138776Y-105189261D02*
X92685204Y-105038071D01*
X92685204Y-105431166D01*
D12*
X155375428Y-138847285D02*
X155411714Y-138811000D01*
X155484285Y-138774714D01*
X155665714Y-138774714D01*
X155738285Y-138811000D01*
X155774571Y-138847285D01*
X155810857Y-138919857D01*
X155810857Y-138992428D01*
X155774571Y-139101285D01*
X155339142Y-139536714D01*
X155810857Y-139536714D01*
X156536571Y-139536714D02*
X156101142Y-139536714D01*
X156318857Y-139536714D02*
X156318857Y-138774714D01*
X156246285Y-138883571D01*
X156173714Y-138956142D01*
X156101142Y-138992428D01*
D10*
X93129100Y-109548990D02*
X93159338Y-109488514D01*
X93159338Y-109397800D01*
X93129100Y-109307085D01*
X93068623Y-109246609D01*
X93008147Y-109216371D01*
X92887195Y-109186133D01*
X92796480Y-109186133D01*
X92675528Y-109216371D01*
X92615052Y-109246609D01*
X92554576Y-109307085D01*
X92524338Y-109397800D01*
X92524338Y-109458276D01*
X92554576Y-109548990D01*
X92584814Y-109579228D01*
X92796480Y-109579228D01*
X92796480Y-109458276D01*
X92524338Y-109851371D02*
X93159338Y-109851371D01*
X92524338Y-110214228D01*
X93159338Y-110214228D01*
X92524338Y-110516609D02*
X93159338Y-110516609D01*
X93159338Y-110667800D01*
X93129100Y-110758514D01*
X93068623Y-110818990D01*
X93008147Y-110849228D01*
X92887195Y-110879466D01*
X92796480Y-110879466D01*
X92675528Y-110849228D01*
X92615052Y-110818990D01*
X92554576Y-110758514D01*
X92524338Y-110667800D01*
X92524338Y-110516609D01*
D12*
X201753409Y-57563657D02*
X201753409Y-57805561D01*
X201245409Y-57805561D01*
X201245409Y-57297561D02*
X201245409Y-57200800D01*
X201269600Y-57152419D01*
X201317980Y-57104038D01*
X201414742Y-57079847D01*
X201584076Y-57079847D01*
X201680838Y-57104038D01*
X201729219Y-57152419D01*
X201753409Y-57200800D01*
X201753409Y-57297561D01*
X201729219Y-57345942D01*
X201680838Y-57394323D01*
X201584076Y-57418514D01*
X201414742Y-57418514D01*
X201317980Y-57394323D01*
X201269600Y-57345942D01*
X201245409Y-57297561D01*
X201705028Y-56571847D02*
X201729219Y-56596038D01*
X201753409Y-56668609D01*
X201753409Y-56716990D01*
X201729219Y-56789561D01*
X201680838Y-56837942D01*
X201632457Y-56862133D01*
X201535695Y-56886323D01*
X201463123Y-56886323D01*
X201366361Y-56862133D01*
X201317980Y-56837942D01*
X201269600Y-56789561D01*
X201245409Y-56716990D01*
X201245409Y-56668609D01*
X201269600Y-56596038D01*
X201293790Y-56571847D01*
X201753409Y-56354133D02*
X201245409Y-56354133D01*
X201753409Y-56063847D02*
X201463123Y-56281561D01*
X201245409Y-56063847D02*
X201535695Y-56354133D01*
X196944342Y-62188876D02*
X196218628Y-62188876D01*
X196581485Y-61735304D02*
X196581485Y-61251495D01*
X196581485Y-60949114D02*
X196581485Y-60465304D01*
X196581485Y-60162923D02*
X196581485Y-59679114D01*
X196581485Y-59376733D02*
X196581485Y-58892923D01*
X196581485Y-58590542D02*
X196581485Y-58106733D01*
X196750819Y-57834590D02*
X196775009Y-57743876D01*
X196775009Y-57592685D01*
X196750819Y-57532209D01*
X196726628Y-57501971D01*
X196678247Y-57471733D01*
X196629866Y-57471733D01*
X196581485Y-57501971D01*
X196557295Y-57532209D01*
X196533104Y-57592685D01*
X196508914Y-57713638D01*
X196484723Y-57774114D01*
X196460533Y-57804352D01*
X196412152Y-57834590D01*
X196363771Y-57834590D01*
X196315390Y-57804352D01*
X196291200Y-57774114D01*
X196267009Y-57713638D01*
X196267009Y-57562447D01*
X196291200Y-57471733D01*
X196267009Y-57078638D02*
X196267009Y-56957685D01*
X196291200Y-56897209D01*
X196339580Y-56836733D01*
X196436342Y-56806495D01*
X196605676Y-56806495D01*
X196702438Y-56836733D01*
X196750819Y-56897209D01*
X196775009Y-56957685D01*
X196775009Y-57078638D01*
X196750819Y-57139114D01*
X196702438Y-57199590D01*
X196605676Y-57229828D01*
X196436342Y-57229828D01*
X196339580Y-57199590D01*
X196291200Y-57139114D01*
X196267009Y-57078638D01*
X196775009Y-56231971D02*
X196775009Y-56534352D01*
X196267009Y-56534352D01*
X196775009Y-56020304D02*
X196267009Y-56020304D01*
X196775009Y-55717923D02*
X196267009Y-55717923D01*
X196775009Y-55355066D01*
X196267009Y-55355066D01*
X196267009Y-54931733D02*
X196267009Y-54810780D01*
X196291200Y-54750304D01*
X196339580Y-54689828D01*
X196436342Y-54659590D01*
X196605676Y-54659590D01*
X196702438Y-54689828D01*
X196750819Y-54750304D01*
X196775009Y-54810780D01*
X196775009Y-54931733D01*
X196750819Y-54992209D01*
X196702438Y-55052685D01*
X196605676Y-55082923D01*
X196436342Y-55082923D01*
X196339580Y-55052685D01*
X196291200Y-54992209D01*
X196267009Y-54931733D01*
X196775009Y-54387447D02*
X196267009Y-54387447D01*
X196775009Y-54085066D02*
X196267009Y-54085066D01*
X196267009Y-53933876D01*
X196291200Y-53843161D01*
X196339580Y-53782685D01*
X196387961Y-53752447D01*
X196484723Y-53722209D01*
X196557295Y-53722209D01*
X196654057Y-53752447D01*
X196702438Y-53782685D01*
X196750819Y-53843161D01*
X196775009Y-53933876D01*
X196775009Y-54085066D01*
X196581485Y-53450066D02*
X196581485Y-52966257D01*
X196581485Y-52663876D02*
X196581485Y-52180066D01*
X196581485Y-51877685D02*
X196581485Y-51393876D01*
X196581485Y-51091495D02*
X196581485Y-50607685D01*
X196581485Y-50305304D02*
X196581485Y-49821495D01*
X196944342Y-49367923D02*
X196218628Y-49367923D01*
X198630419Y-94579923D02*
X198654609Y-94507352D01*
X198654609Y-94386400D01*
X198630419Y-94338019D01*
X198606228Y-94313828D01*
X198557847Y-94289638D01*
X198509466Y-94289638D01*
X198461085Y-94313828D01*
X198436895Y-94338019D01*
X198412704Y-94386400D01*
X198388514Y-94483161D01*
X198364323Y-94531542D01*
X198340133Y-94555733D01*
X198291752Y-94579923D01*
X198243371Y-94579923D01*
X198194990Y-94555733D01*
X198170800Y-94531542D01*
X198146609Y-94483161D01*
X198146609Y-94362209D01*
X198170800Y-94289638D01*
X198654609Y-93830019D02*
X198654609Y-94071923D01*
X198146609Y-94071923D01*
X198654609Y-93660685D02*
X198146609Y-93660685D01*
X198654609Y-93418780D02*
X198146609Y-93418780D01*
X198146609Y-93297828D01*
X198170800Y-93225257D01*
X198219180Y-93176876D01*
X198267561Y-93152685D01*
X198364323Y-93128495D01*
X198436895Y-93128495D01*
X198533657Y-93152685D01*
X198582038Y-93176876D01*
X198630419Y-93225257D01*
X198654609Y-93297828D01*
X198654609Y-93418780D01*
X198388514Y-92910780D02*
X198388514Y-92741447D01*
X198654609Y-92668876D02*
X198654609Y-92910780D01*
X198146609Y-92910780D01*
X198146609Y-92668876D01*
X198553009Y-79852761D02*
X198311104Y-80022095D01*
X198553009Y-80143047D02*
X198045009Y-80143047D01*
X198045009Y-79949523D01*
X198069200Y-79901142D01*
X198093390Y-79876952D01*
X198141771Y-79852761D01*
X198214342Y-79852761D01*
X198262723Y-79876952D01*
X198286914Y-79901142D01*
X198311104Y-79949523D01*
X198311104Y-80143047D01*
X198045009Y-79538285D02*
X198045009Y-79441523D01*
X198069200Y-79393142D01*
X198117580Y-79344761D01*
X198214342Y-79320571D01*
X198383676Y-79320571D01*
X198480438Y-79344761D01*
X198528819Y-79393142D01*
X198553009Y-79441523D01*
X198553009Y-79538285D01*
X198528819Y-79586666D01*
X198480438Y-79635047D01*
X198383676Y-79659238D01*
X198214342Y-79659238D01*
X198117580Y-79635047D01*
X198069200Y-79586666D01*
X198045009Y-79538285D01*
X198553009Y-78860952D02*
X198553009Y-79102857D01*
X198045009Y-79102857D01*
X198553009Y-78449714D02*
X198553009Y-78691619D01*
X198045009Y-78691619D01*
X198286914Y-78280380D02*
X198286914Y-78111047D01*
X198553009Y-78038476D02*
X198553009Y-78280380D01*
X198045009Y-78280380D01*
X198045009Y-78038476D01*
X198553009Y-77530476D02*
X198311104Y-77699809D01*
X198553009Y-77820761D02*
X198045009Y-77820761D01*
X198045009Y-77627238D01*
X198069200Y-77578857D01*
X198093390Y-77554666D01*
X198141771Y-77530476D01*
X198214342Y-77530476D01*
X198262723Y-77554666D01*
X198286914Y-77578857D01*
X198311104Y-77627238D01*
X198311104Y-77820761D01*
X198553009Y-76683809D02*
X198553009Y-76925714D01*
X198045009Y-76925714D01*
X198553009Y-76514476D02*
X198045009Y-76514476D01*
X198553009Y-76272571D02*
X198045009Y-76272571D01*
X198407866Y-76103238D01*
X198045009Y-75933904D01*
X198553009Y-75933904D01*
X198553009Y-75692000D02*
X198045009Y-75692000D01*
X198045009Y-75522666D02*
X198045009Y-75232380D01*
X198553009Y-75377523D02*
X198045009Y-75377523D01*
X198603809Y-89400742D02*
X198361904Y-89570076D01*
X198603809Y-89691028D02*
X198095809Y-89691028D01*
X198095809Y-89497504D01*
X198120000Y-89449123D01*
X198144190Y-89424933D01*
X198192571Y-89400742D01*
X198265142Y-89400742D01*
X198313523Y-89424933D01*
X198337714Y-89449123D01*
X198361904Y-89497504D01*
X198361904Y-89691028D01*
X198095809Y-89086266D02*
X198095809Y-88989504D01*
X198120000Y-88941123D01*
X198168380Y-88892742D01*
X198265142Y-88868552D01*
X198434476Y-88868552D01*
X198531238Y-88892742D01*
X198579619Y-88941123D01*
X198603809Y-88989504D01*
X198603809Y-89086266D01*
X198579619Y-89134647D01*
X198531238Y-89183028D01*
X198434476Y-89207219D01*
X198265142Y-89207219D01*
X198168380Y-89183028D01*
X198120000Y-89134647D01*
X198095809Y-89086266D01*
X198603809Y-88408933D02*
X198603809Y-88650838D01*
X198095809Y-88650838D01*
X198603809Y-87997695D02*
X198603809Y-88239600D01*
X198095809Y-88239600D01*
X198603809Y-87828361D02*
X198095809Y-87828361D01*
X198603809Y-87586457D02*
X198095809Y-87586457D01*
X198603809Y-87296171D01*
X198095809Y-87296171D01*
X198120000Y-86788171D02*
X198095809Y-86836552D01*
X198095809Y-86909123D01*
X198120000Y-86981695D01*
X198168380Y-87030076D01*
X198216761Y-87054266D01*
X198313523Y-87078457D01*
X198386095Y-87078457D01*
X198482857Y-87054266D01*
X198531238Y-87030076D01*
X198579619Y-86981695D01*
X198603809Y-86909123D01*
X198603809Y-86860742D01*
X198579619Y-86788171D01*
X198555428Y-86763980D01*
X198386095Y-86763980D01*
X198386095Y-86860742D01*
D11*
X176832380Y-97025580D02*
X176832380Y-96541771D01*
X177848380Y-96541771D01*
X177848380Y-97557771D02*
X177848380Y-97751295D01*
X177800000Y-97848057D01*
X177703238Y-97944819D01*
X177509714Y-97993200D01*
X177171047Y-97993200D01*
X176977523Y-97944819D01*
X176880761Y-97848057D01*
X176832380Y-97751295D01*
X176832380Y-97557771D01*
X176880761Y-97461009D01*
X176977523Y-97364247D01*
X177171047Y-97315866D01*
X177509714Y-97315866D01*
X177703238Y-97364247D01*
X177800000Y-97461009D01*
X177848380Y-97557771D01*
X176929142Y-99009200D02*
X176880761Y-98960819D01*
X176832380Y-98815676D01*
X176832380Y-98718914D01*
X176880761Y-98573771D01*
X176977523Y-98477009D01*
X177074285Y-98428628D01*
X177267809Y-98380247D01*
X177412952Y-98380247D01*
X177606476Y-98428628D01*
X177703238Y-98477009D01*
X177800000Y-98573771D01*
X177848380Y-98718914D01*
X177848380Y-98815676D01*
X177800000Y-98960819D01*
X177751619Y-99009200D01*
X176832380Y-99444628D02*
X177848380Y-99444628D01*
X176832380Y-100025200D02*
X177412952Y-99589771D01*
X177848380Y-100025200D02*
X177267809Y-99444628D01*
X176735619Y-100218723D02*
X176735619Y-100992819D01*
X177848380Y-101089580D02*
X177848380Y-101670152D01*
X176832380Y-101379866D02*
X177848380Y-101379866D01*
X177848380Y-102008819D02*
X177025904Y-102008819D01*
X176929142Y-102057200D01*
X176880761Y-102105580D01*
X176832380Y-102202342D01*
X176832380Y-102395866D01*
X176880761Y-102492628D01*
X176929142Y-102541009D01*
X177025904Y-102589390D01*
X177848380Y-102589390D01*
X177364571Y-103411866D02*
X177316190Y-103557009D01*
X177267809Y-103605390D01*
X177171047Y-103653771D01*
X177025904Y-103653771D01*
X176929142Y-103605390D01*
X176880761Y-103557009D01*
X176832380Y-103460247D01*
X176832380Y-103073200D01*
X177848380Y-103073200D01*
X177848380Y-103411866D01*
X177800000Y-103508628D01*
X177751619Y-103557009D01*
X177654857Y-103605390D01*
X177558095Y-103605390D01*
X177461333Y-103557009D01*
X177412952Y-103508628D01*
X177364571Y-103411866D01*
X177364571Y-103073200D01*
X177364571Y-104089200D02*
X177364571Y-104427866D01*
X176832380Y-104573009D02*
X176832380Y-104089200D01*
X177848380Y-104089200D01*
X177848380Y-104573009D01*
D12*
X157864628Y-138796485D02*
X157900914Y-138760200D01*
X157973485Y-138723914D01*
X158154914Y-138723914D01*
X158227485Y-138760200D01*
X158263771Y-138796485D01*
X158300057Y-138869057D01*
X158300057Y-138941628D01*
X158263771Y-139050485D01*
X157828342Y-139485914D01*
X158300057Y-139485914D01*
X158590342Y-138796485D02*
X158626628Y-138760200D01*
X158699200Y-138723914D01*
X158880628Y-138723914D01*
X158953200Y-138760200D01*
X158989485Y-138796485D01*
X159025771Y-138869057D01*
X159025771Y-138941628D01*
X158989485Y-139050485D01*
X158554057Y-139485914D01*
X159025771Y-139485914D01*
X201117200Y-84918247D02*
X201093009Y-84966628D01*
X201093009Y-85039200D01*
X201117200Y-85111771D01*
X201165580Y-85160152D01*
X201213961Y-85184342D01*
X201310723Y-85208533D01*
X201383295Y-85208533D01*
X201480057Y-85184342D01*
X201528438Y-85160152D01*
X201576819Y-85111771D01*
X201601009Y-85039200D01*
X201601009Y-84990819D01*
X201576819Y-84918247D01*
X201552628Y-84894057D01*
X201383295Y-84894057D01*
X201383295Y-84990819D01*
X201601009Y-84676342D02*
X201093009Y-84676342D01*
X201601009Y-84386057D01*
X201093009Y-84386057D01*
X201601009Y-84144152D02*
X201093009Y-84144152D01*
X201093009Y-84023200D01*
X201117200Y-83950628D01*
X201165580Y-83902247D01*
X201213961Y-83878057D01*
X201310723Y-83853866D01*
X201383295Y-83853866D01*
X201480057Y-83878057D01*
X201528438Y-83902247D01*
X201576819Y-83950628D01*
X201601009Y-84023200D01*
X201601009Y-84144152D01*
X201753409Y-52570742D02*
X201511504Y-52740076D01*
X201753409Y-52861028D02*
X201245409Y-52861028D01*
X201245409Y-52667504D01*
X201269600Y-52619123D01*
X201293790Y-52594933D01*
X201342171Y-52570742D01*
X201414742Y-52570742D01*
X201463123Y-52594933D01*
X201487314Y-52619123D01*
X201511504Y-52667504D01*
X201511504Y-52861028D01*
X201245409Y-52256266D02*
X201245409Y-52159504D01*
X201269600Y-52111123D01*
X201317980Y-52062742D01*
X201414742Y-52038552D01*
X201584076Y-52038552D01*
X201680838Y-52062742D01*
X201729219Y-52111123D01*
X201753409Y-52159504D01*
X201753409Y-52256266D01*
X201729219Y-52304647D01*
X201680838Y-52353028D01*
X201584076Y-52377219D01*
X201414742Y-52377219D01*
X201317980Y-52353028D01*
X201269600Y-52304647D01*
X201245409Y-52256266D01*
X201753409Y-51578933D02*
X201753409Y-51820838D01*
X201245409Y-51820838D01*
X201753409Y-51167695D02*
X201753409Y-51409600D01*
X201245409Y-51409600D01*
X201753409Y-50998361D02*
X201245409Y-50998361D01*
X201753409Y-50756457D02*
X201245409Y-50756457D01*
X201753409Y-50466171D01*
X201245409Y-50466171D01*
X201269600Y-49958171D02*
X201245409Y-50006552D01*
X201245409Y-50079123D01*
X201269600Y-50151695D01*
X201317980Y-50200076D01*
X201366361Y-50224266D01*
X201463123Y-50248457D01*
X201535695Y-50248457D01*
X201632457Y-50224266D01*
X201680838Y-50200076D01*
X201729219Y-50151695D01*
X201753409Y-50079123D01*
X201753409Y-50030742D01*
X201729219Y-49958171D01*
X201705028Y-49933980D01*
X201535695Y-49933980D01*
X201535695Y-50030742D01*
D10*
X92473538Y-117031709D02*
X93108538Y-117031709D01*
X93108538Y-117273614D01*
X93078300Y-117334090D01*
X93048061Y-117364328D01*
X92987585Y-117394566D01*
X92896871Y-117394566D01*
X92836395Y-117364328D01*
X92806157Y-117334090D01*
X92775919Y-117273614D01*
X92775919Y-117031709D01*
X92473538Y-117999328D02*
X92473538Y-117636471D01*
X92473538Y-117817900D02*
X93108538Y-117817900D01*
X93017823Y-117757423D01*
X92957347Y-117696947D01*
X92927109Y-117636471D01*
D11*
X176889833Y-45495633D02*
X177778833Y-45495633D01*
X177143833Y-45791966D01*
X177778833Y-46088300D01*
X176889833Y-46088300D01*
X177778833Y-46680966D02*
X177778833Y-46850300D01*
X177736500Y-46934966D01*
X177651833Y-47019633D01*
X177482500Y-47061966D01*
X177186166Y-47061966D01*
X177016833Y-47019633D01*
X176932166Y-46934966D01*
X176889833Y-46850300D01*
X176889833Y-46680966D01*
X176932166Y-46596300D01*
X177016833Y-46511633D01*
X177186166Y-46469300D01*
X177482500Y-46469300D01*
X177651833Y-46511633D01*
X177736500Y-46596300D01*
X177778833Y-46680966D01*
X177778833Y-47315966D02*
X177778833Y-47823966D01*
X176889833Y-47569966D02*
X177778833Y-47569966D01*
X177778833Y-48289633D02*
X177778833Y-48458966D01*
X177736500Y-48543633D01*
X177651833Y-48628300D01*
X177482500Y-48670633D01*
X177186166Y-48670633D01*
X177016833Y-48628300D01*
X176932166Y-48543633D01*
X176889833Y-48458966D01*
X176889833Y-48289633D01*
X176932166Y-48204966D01*
X177016833Y-48120300D01*
X177186166Y-48077966D01*
X177482500Y-48077966D01*
X177651833Y-48120300D01*
X177736500Y-48204966D01*
X177778833Y-48289633D01*
X176889833Y-49559633D02*
X177313166Y-49263300D01*
X176889833Y-49051633D02*
X177778833Y-49051633D01*
X177778833Y-49390300D01*
X177736500Y-49474966D01*
X177694166Y-49517300D01*
X177609500Y-49559633D01*
X177482500Y-49559633D01*
X177397833Y-49517300D01*
X177355500Y-49474966D01*
X177313166Y-49390300D01*
X177313166Y-49051633D01*
X176805166Y-49728966D02*
X176805166Y-50406300D01*
X176932166Y-50575633D02*
X176889833Y-50702633D01*
X176889833Y-50914300D01*
X176932166Y-50998966D01*
X176974500Y-51041300D01*
X177059166Y-51083633D01*
X177143833Y-51083633D01*
X177228500Y-51041300D01*
X177270833Y-50998966D01*
X177313166Y-50914300D01*
X177355500Y-50744966D01*
X177397833Y-50660300D01*
X177440166Y-50617966D01*
X177524833Y-50575633D01*
X177609500Y-50575633D01*
X177694166Y-50617966D01*
X177736500Y-50660300D01*
X177778833Y-50744966D01*
X177778833Y-50956633D01*
X177736500Y-51083633D01*
X176889833Y-51887966D02*
X176889833Y-51464633D01*
X177778833Y-51464633D01*
X176889833Y-52184300D02*
X177778833Y-52184300D01*
X176889833Y-52607633D02*
X177778833Y-52607633D01*
X177778833Y-52819300D01*
X177736500Y-52946300D01*
X177651833Y-53030966D01*
X177567166Y-53073300D01*
X177397833Y-53115633D01*
X177270833Y-53115633D01*
X177101500Y-53073300D01*
X177016833Y-53030966D01*
X176932166Y-52946300D01*
X176889833Y-52819300D01*
X176889833Y-52607633D01*
X177355500Y-53496633D02*
X177355500Y-53792966D01*
X176889833Y-53919966D02*
X176889833Y-53496633D01*
X177778833Y-53496633D01*
X177778833Y-53919966D01*
X177821166Y-54935966D02*
X176678166Y-54173966D01*
X176889833Y-55740300D02*
X177313166Y-55443966D01*
X176889833Y-55232300D02*
X177778833Y-55232300D01*
X177778833Y-55570966D01*
X177736500Y-55655633D01*
X177694166Y-55697966D01*
X177609500Y-55740300D01*
X177482500Y-55740300D01*
X177397833Y-55697966D01*
X177355500Y-55655633D01*
X177313166Y-55570966D01*
X177313166Y-55232300D01*
X177778833Y-56290633D02*
X177778833Y-56459966D01*
X177736500Y-56544633D01*
X177651833Y-56629300D01*
X177482500Y-56671633D01*
X177186166Y-56671633D01*
X177016833Y-56629300D01*
X176932166Y-56544633D01*
X176889833Y-56459966D01*
X176889833Y-56290633D01*
X176932166Y-56205966D01*
X177016833Y-56121300D01*
X177186166Y-56078966D01*
X177482500Y-56078966D01*
X177651833Y-56121300D01*
X177736500Y-56205966D01*
X177778833Y-56290633D01*
X176889833Y-57475966D02*
X176889833Y-57052633D01*
X177778833Y-57052633D01*
X176889833Y-58195633D02*
X176889833Y-57772300D01*
X177778833Y-57772300D01*
X177355500Y-58491966D02*
X177355500Y-58788300D01*
X176889833Y-58915300D02*
X176889833Y-58491966D01*
X177778833Y-58491966D01*
X177778833Y-58915300D01*
X176889833Y-59804300D02*
X177313166Y-59507966D01*
X176889833Y-59296300D02*
X177778833Y-59296300D01*
X177778833Y-59634966D01*
X177736500Y-59719633D01*
X177694166Y-59761966D01*
X177609500Y-59804300D01*
X177482500Y-59804300D01*
X177397833Y-59761966D01*
X177355500Y-59719633D01*
X177313166Y-59634966D01*
X177313166Y-59296300D01*
D10*
X197035661Y-47528238D02*
X196400661Y-47528238D01*
X196854233Y-47316571D01*
X196400661Y-47104904D01*
X197035661Y-47104904D01*
X196400661Y-46681571D02*
X196400661Y-46560619D01*
X196430900Y-46500142D01*
X196491376Y-46439666D01*
X196612328Y-46409428D01*
X196823995Y-46409428D01*
X196944947Y-46439666D01*
X197005423Y-46500142D01*
X197035661Y-46560619D01*
X197035661Y-46681571D01*
X197005423Y-46742047D01*
X196944947Y-46802523D01*
X196823995Y-46832761D01*
X196612328Y-46832761D01*
X196491376Y-46802523D01*
X196430900Y-46742047D01*
X196400661Y-46681571D01*
X196400661Y-46228000D02*
X196400661Y-45865142D01*
X197035661Y-46046571D02*
X196400661Y-46046571D01*
X196400661Y-45532523D02*
X196400661Y-45411571D01*
X196430900Y-45351095D01*
X196491376Y-45290619D01*
X196612328Y-45260380D01*
X196823995Y-45260380D01*
X196944947Y-45290619D01*
X197005423Y-45351095D01*
X197035661Y-45411571D01*
X197035661Y-45532523D01*
X197005423Y-45593000D01*
X196944947Y-45653476D01*
X196823995Y-45683714D01*
X196612328Y-45683714D01*
X196491376Y-45653476D01*
X196430900Y-45593000D01*
X196400661Y-45532523D01*
X197035661Y-44625380D02*
X196733280Y-44837047D01*
X197035661Y-44988238D02*
X196400661Y-44988238D01*
X196400661Y-44746333D01*
X196430900Y-44685857D01*
X196461138Y-44655619D01*
X196521614Y-44625380D01*
X196612328Y-44625380D01*
X196672804Y-44655619D01*
X196703042Y-44685857D01*
X196733280Y-44746333D01*
X196733280Y-44988238D01*
X197005423Y-43899666D02*
X197035661Y-43808952D01*
X197035661Y-43657761D01*
X197005423Y-43597285D01*
X196975185Y-43567047D01*
X196914709Y-43536809D01*
X196854233Y-43536809D01*
X196793757Y-43567047D01*
X196763519Y-43597285D01*
X196733280Y-43657761D01*
X196703042Y-43778714D01*
X196672804Y-43839190D01*
X196642566Y-43869428D01*
X196582090Y-43899666D01*
X196521614Y-43899666D01*
X196461138Y-43869428D01*
X196430900Y-43839190D01*
X196400661Y-43778714D01*
X196400661Y-43627523D01*
X196430900Y-43536809D01*
X196370423Y-42811095D02*
X197186852Y-43355380D01*
X197035661Y-42297047D02*
X197035661Y-42599428D01*
X196400661Y-42599428D01*
D14*
X91633523Y-46535219D02*
X91633523Y-45519219D01*
X92020571Y-45519219D01*
X92117333Y-45567600D01*
X92165714Y-45615980D01*
X92214095Y-45712742D01*
X92214095Y-45857885D01*
X92165714Y-45954647D01*
X92117333Y-46003028D01*
X92020571Y-46051409D01*
X91633523Y-46051409D01*
X93230095Y-46438457D02*
X93181714Y-46486838D01*
X93036571Y-46535219D01*
X92939809Y-46535219D01*
X92794666Y-46486838D01*
X92697904Y-46390076D01*
X92649523Y-46293314D01*
X92601142Y-46099790D01*
X92601142Y-45954647D01*
X92649523Y-45761123D01*
X92697904Y-45664361D01*
X92794666Y-45567600D01*
X92939809Y-45519219D01*
X93036571Y-45519219D01*
X93181714Y-45567600D01*
X93230095Y-45615980D01*
X93423619Y-46631980D02*
X94197714Y-46631980D01*
X94923428Y-46535219D02*
X94439619Y-46535219D01*
X94439619Y-45519219D01*
X95262095Y-46535219D02*
X95262095Y-45519219D01*
X95745904Y-46535219D02*
X95745904Y-45519219D01*
X96326476Y-46535219D01*
X96326476Y-45519219D01*
X96810285Y-46535219D02*
X96810285Y-45519219D01*
X97390857Y-46535219D02*
X96955428Y-45954647D01*
X97390857Y-45519219D02*
X96810285Y-46099790D01*
D12*
X201242990Y-45308761D02*
X201218800Y-45284571D01*
X201194609Y-45236190D01*
X201194609Y-45115238D01*
X201218800Y-45066857D01*
X201242990Y-45042666D01*
X201291371Y-45018476D01*
X201339752Y-45018476D01*
X201412323Y-45042666D01*
X201702609Y-45332952D01*
X201702609Y-45018476D01*
X201363942Y-44583047D02*
X201702609Y-44583047D01*
X201170419Y-44704000D02*
X201533276Y-44824952D01*
X201533276Y-44510476D01*
X201194609Y-44389523D02*
X201702609Y-44220190D01*
X201194609Y-44050857D01*
D15*
X93943714Y-103653771D02*
X95395142Y-103653771D01*
X94669428Y-104379485D02*
X94669428Y-105153580D01*
X94669428Y-105637390D02*
X94669428Y-106411485D01*
X94669428Y-106895295D02*
X94669428Y-107669390D01*
X94669428Y-108153200D02*
X94669428Y-108927295D01*
X94282380Y-109411104D02*
X95298380Y-109411104D01*
X95298380Y-109798152D01*
X95250000Y-109894914D01*
X95201619Y-109943295D01*
X95104857Y-109991676D01*
X94959714Y-109991676D01*
X94862952Y-109943295D01*
X94814571Y-109894914D01*
X94766190Y-109798152D01*
X94766190Y-109411104D01*
X94282380Y-111007676D02*
X94766190Y-110669009D01*
X94282380Y-110427104D02*
X95298380Y-110427104D01*
X95298380Y-110814152D01*
X95250000Y-110910914D01*
X95201619Y-110959295D01*
X95104857Y-111007676D01*
X94959714Y-111007676D01*
X94862952Y-110959295D01*
X94814571Y-110910914D01*
X94766190Y-110814152D01*
X94766190Y-110427104D01*
X95298380Y-111636628D02*
X95298380Y-111830152D01*
X95250000Y-111926914D01*
X95153238Y-112023676D01*
X94959714Y-112072057D01*
X94621047Y-112072057D01*
X94427523Y-112023676D01*
X94330761Y-111926914D01*
X94282380Y-111830152D01*
X94282380Y-111636628D01*
X94330761Y-111539866D01*
X94427523Y-111443104D01*
X94621047Y-111394723D01*
X94959714Y-111394723D01*
X95153238Y-111443104D01*
X95250000Y-111539866D01*
X95298380Y-111636628D01*
X95298380Y-112410723D02*
X94282380Y-113088057D01*
X95298380Y-113088057D02*
X94282380Y-112410723D01*
X94669428Y-113475104D02*
X94669428Y-114249200D01*
X94669428Y-114733009D02*
X94669428Y-115507104D01*
X94669428Y-115990914D02*
X94669428Y-116765009D01*
X94669428Y-117248819D02*
X94669428Y-118022914D01*
X93943714Y-118748628D02*
X95395142Y-118748628D01*
D11*
X133587066Y-108676923D02*
X134433733Y-108676923D01*
X133889447Y-109946923D01*
X134736114Y-108676923D02*
X135159447Y-109946923D01*
X135582780Y-108676923D01*
X136792304Y-108676923D02*
X137518019Y-108676923D01*
X137155161Y-109946923D02*
X137155161Y-108676923D01*
X138183257Y-108676923D02*
X138425161Y-108676923D01*
X138546114Y-108737400D01*
X138667066Y-108858352D01*
X138727542Y-109100257D01*
X138727542Y-109523590D01*
X138667066Y-109765495D01*
X138546114Y-109886447D01*
X138425161Y-109946923D01*
X138183257Y-109946923D01*
X138062304Y-109886447D01*
X137941352Y-109765495D01*
X137880876Y-109523590D01*
X137880876Y-109100257D01*
X137941352Y-108858352D01*
X138062304Y-108737400D01*
X138183257Y-108676923D01*
X140844209Y-108676923D02*
X140239447Y-108676923D01*
X140178971Y-109281685D01*
X140239447Y-109221209D01*
X140360400Y-109160733D01*
X140662780Y-109160733D01*
X140783733Y-109221209D01*
X140844209Y-109281685D01*
X140904685Y-109402638D01*
X140904685Y-109705019D01*
X140844209Y-109825971D01*
X140783733Y-109886447D01*
X140662780Y-109946923D01*
X140360400Y-109946923D01*
X140239447Y-109886447D01*
X140178971Y-109825971D01*
X141267542Y-108676923D02*
X141690876Y-109946923D01*
X142114209Y-108676923D01*
D10*
X153674838Y-45584533D02*
X154158647Y-45584533D01*
X153578076Y-45874819D02*
X153916742Y-44858819D01*
X154255409Y-45874819D01*
X154594076Y-45874819D02*
X154594076Y-44858819D01*
X154594076Y-45342628D02*
X155174647Y-45342628D01*
X155174647Y-45874819D02*
X155174647Y-44858819D01*
X155513314Y-44858819D02*
X156093885Y-44858819D01*
X155803600Y-45874819D02*
X155803600Y-44858819D01*
X156964742Y-45874819D02*
X156384171Y-45874819D01*
X156674457Y-45874819D02*
X156674457Y-44858819D01*
X156577695Y-45003961D01*
X156480933Y-45100723D01*
X156384171Y-45149104D01*
X157593695Y-44858819D02*
X157690457Y-44858819D01*
X157787219Y-44907200D01*
X157835600Y-44955580D01*
X157883980Y-45052342D01*
X157932361Y-45245866D01*
X157932361Y-45487771D01*
X157883980Y-45681295D01*
X157835600Y-45778057D01*
X157787219Y-45826438D01*
X157690457Y-45874819D01*
X157593695Y-45874819D01*
X157496933Y-45826438D01*
X157448552Y-45778057D01*
X157400171Y-45681295D01*
X157351790Y-45487771D01*
X157351790Y-45245866D01*
X157400171Y-45052342D01*
X157448552Y-44955580D01*
X157496933Y-44907200D01*
X157593695Y-44858819D01*
D12*
X198197409Y-49917047D02*
X198197409Y-49578380D01*
X198705409Y-49796095D01*
X198197409Y-49457428D02*
X198705409Y-49288095D01*
X198197409Y-49118761D01*
D10*
X92473538Y-114491709D02*
X93108538Y-114491709D01*
X93108538Y-114733614D01*
X93078300Y-114794090D01*
X93048061Y-114824328D01*
X92987585Y-114854566D01*
X92896871Y-114854566D01*
X92836395Y-114824328D01*
X92806157Y-114794090D01*
X92775919Y-114733614D01*
X92775919Y-114491709D01*
X93048061Y-115096471D02*
X93078300Y-115126709D01*
X93108538Y-115187185D01*
X93108538Y-115338376D01*
X93078300Y-115398852D01*
X93048061Y-115429090D01*
X92987585Y-115459328D01*
X92927109Y-115459328D01*
X92836395Y-115429090D01*
X92473538Y-115066233D01*
X92473538Y-115459328D01*
D12*
X201601009Y-82661276D02*
X201601009Y-82903180D01*
X201093009Y-82903180D01*
X201601009Y-82491942D02*
X201093009Y-82491942D01*
X201601009Y-82250038D02*
X201093009Y-82250038D01*
X201455866Y-82080704D01*
X201093009Y-81911371D01*
X201601009Y-81911371D01*
X201601009Y-81669466D02*
X201093009Y-81669466D01*
X201093009Y-81500133D02*
X201093009Y-81209847D01*
X201601009Y-81354990D02*
X201093009Y-81354990D01*
X201218800Y-47478647D02*
X201194609Y-47527028D01*
X201194609Y-47599600D01*
X201218800Y-47672171D01*
X201267180Y-47720552D01*
X201315561Y-47744742D01*
X201412323Y-47768933D01*
X201484895Y-47768933D01*
X201581657Y-47744742D01*
X201630038Y-47720552D01*
X201678419Y-47672171D01*
X201702609Y-47599600D01*
X201702609Y-47551219D01*
X201678419Y-47478647D01*
X201654228Y-47454457D01*
X201484895Y-47454457D01*
X201484895Y-47551219D01*
X201702609Y-47236742D02*
X201194609Y-47236742D01*
X201702609Y-46946457D01*
X201194609Y-46946457D01*
X201702609Y-46704552D02*
X201194609Y-46704552D01*
X201194609Y-46583600D01*
X201218800Y-46511028D01*
X201267180Y-46462647D01*
X201315561Y-46438457D01*
X201412323Y-46414266D01*
X201484895Y-46414266D01*
X201581657Y-46438457D01*
X201630038Y-46462647D01*
X201678419Y-46511028D01*
X201702609Y-46583600D01*
X201702609Y-46704552D01*
X201601009Y-87376000D02*
X201093009Y-87376000D01*
X201093009Y-87255047D01*
X201117200Y-87182476D01*
X201165580Y-87134095D01*
X201213961Y-87109904D01*
X201310723Y-87085714D01*
X201383295Y-87085714D01*
X201480057Y-87109904D01*
X201528438Y-87134095D01*
X201576819Y-87182476D01*
X201601009Y-87255047D01*
X201601009Y-87376000D01*
X201601009Y-86868000D02*
X201093009Y-86868000D01*
X201601009Y-86335809D02*
X201359104Y-86505142D01*
X201601009Y-86626095D02*
X201093009Y-86626095D01*
X201093009Y-86432571D01*
X201117200Y-86384190D01*
X201141390Y-86360000D01*
X201189771Y-86335809D01*
X201262342Y-86335809D01*
X201310723Y-86360000D01*
X201334914Y-86384190D01*
X201359104Y-86432571D01*
X201359104Y-86626095D01*
D13*
X122573142Y-133994071D02*
X123335142Y-133994071D01*
X122845285Y-135137071D01*
X123607285Y-133994071D02*
X123988285Y-135137071D01*
X124369285Y-133994071D01*
D12*
X201753409Y-63035542D02*
X201245409Y-63035542D01*
X201245409Y-62914590D01*
X201269600Y-62842019D01*
X201317980Y-62793638D01*
X201366361Y-62769447D01*
X201463123Y-62745257D01*
X201535695Y-62745257D01*
X201632457Y-62769447D01*
X201680838Y-62793638D01*
X201729219Y-62842019D01*
X201753409Y-62914590D01*
X201753409Y-63035542D01*
X201753409Y-62237257D02*
X201511504Y-62406590D01*
X201753409Y-62527542D02*
X201245409Y-62527542D01*
X201245409Y-62334019D01*
X201269600Y-62285638D01*
X201293790Y-62261447D01*
X201342171Y-62237257D01*
X201414742Y-62237257D01*
X201463123Y-62261447D01*
X201487314Y-62285638D01*
X201511504Y-62334019D01*
X201511504Y-62527542D01*
X201245409Y-61922780D02*
X201245409Y-61826019D01*
X201269600Y-61777638D01*
X201317980Y-61729257D01*
X201414742Y-61705066D01*
X201584076Y-61705066D01*
X201680838Y-61729257D01*
X201729219Y-61777638D01*
X201753409Y-61826019D01*
X201753409Y-61922780D01*
X201729219Y-61971161D01*
X201680838Y-62019542D01*
X201584076Y-62043733D01*
X201414742Y-62043733D01*
X201317980Y-62019542D01*
X201269600Y-61971161D01*
X201245409Y-61922780D01*
X201753409Y-61487352D02*
X201245409Y-61487352D01*
X201245409Y-61293828D01*
X201269600Y-61245447D01*
X201293790Y-61221257D01*
X201342171Y-61197066D01*
X201414742Y-61197066D01*
X201463123Y-61221257D01*
X201487314Y-61245447D01*
X201511504Y-61293828D01*
X201511504Y-61487352D01*
X201627619Y-95361276D02*
X201651809Y-95288704D01*
X201651809Y-95167752D01*
X201627619Y-95119371D01*
X201603428Y-95095180D01*
X201555047Y-95070990D01*
X201506666Y-95070990D01*
X201458285Y-95095180D01*
X201434095Y-95119371D01*
X201409904Y-95167752D01*
X201385714Y-95264514D01*
X201361523Y-95312895D01*
X201337333Y-95337085D01*
X201288952Y-95361276D01*
X201240571Y-95361276D01*
X201192190Y-95337085D01*
X201168000Y-95312895D01*
X201143809Y-95264514D01*
X201143809Y-95143561D01*
X201168000Y-95070990D01*
X201143809Y-94925847D02*
X201143809Y-94635561D01*
X201651809Y-94780704D02*
X201143809Y-94780704D01*
X201385714Y-94466228D02*
X201385714Y-94296895D01*
X201651809Y-94224323D02*
X201651809Y-94466228D01*
X201143809Y-94466228D01*
X201143809Y-94224323D01*
X201651809Y-94006609D02*
X201143809Y-94006609D01*
X201143809Y-93813085D01*
X201168000Y-93764704D01*
X201192190Y-93740514D01*
X201240571Y-93716323D01*
X201313142Y-93716323D01*
X201361523Y-93740514D01*
X201385714Y-93764704D01*
X201409904Y-93813085D01*
X201409904Y-94006609D01*
D16*
X110127142Y-78108628D02*
X110127142Y-76584628D01*
X110490000Y-76584628D01*
X110707714Y-76657200D01*
X110852857Y-76802342D01*
X110925428Y-76947485D01*
X110998000Y-77237771D01*
X110998000Y-77455485D01*
X110925428Y-77745771D01*
X110852857Y-77890914D01*
X110707714Y-78036057D01*
X110490000Y-78108628D01*
X110127142Y-78108628D01*
X111433428Y-76584628D02*
X111941428Y-78108628D01*
X112449428Y-76584628D01*
X112594571Y-78253771D02*
X113755714Y-78253771D01*
X114844285Y-78108628D02*
X114118571Y-78108628D01*
X114118571Y-76584628D01*
X115352285Y-78108628D02*
X115352285Y-76584628D01*
X116078000Y-78108628D02*
X116078000Y-76584628D01*
X116948857Y-78108628D01*
X116948857Y-76584628D01*
X117674571Y-78108628D02*
X117674571Y-76584628D01*
X118545428Y-78108628D02*
X117892285Y-77237771D01*
X118545428Y-76584628D02*
X117674571Y-77455485D01*
D12*
X201651809Y-92456000D02*
X201143809Y-92456000D01*
X201143809Y-92335047D01*
X201168000Y-92262476D01*
X201216380Y-92214095D01*
X201264761Y-92189904D01*
X201361523Y-92165714D01*
X201434095Y-92165714D01*
X201530857Y-92189904D01*
X201579238Y-92214095D01*
X201627619Y-92262476D01*
X201651809Y-92335047D01*
X201651809Y-92456000D01*
X201651809Y-91948000D02*
X201143809Y-91948000D01*
X201651809Y-91415809D02*
X201409904Y-91585142D01*
X201651809Y-91706095D02*
X201143809Y-91706095D01*
X201143809Y-91512571D01*
X201168000Y-91464190D01*
X201192190Y-91440000D01*
X201240571Y-91415809D01*
X201313142Y-91415809D01*
X201361523Y-91440000D01*
X201385714Y-91464190D01*
X201409904Y-91512571D01*
X201409904Y-91706095D01*
D16*
X93305085Y-78108628D02*
X93305085Y-76584628D01*
X93885657Y-76584628D01*
X94030800Y-76657200D01*
X94103371Y-76729771D01*
X94175942Y-76874914D01*
X94175942Y-77092628D01*
X94103371Y-77237771D01*
X94030800Y-77310342D01*
X93885657Y-77382914D01*
X93305085Y-77382914D01*
X95699942Y-77963485D02*
X95627371Y-78036057D01*
X95409657Y-78108628D01*
X95264514Y-78108628D01*
X95046800Y-78036057D01*
X94901657Y-77890914D01*
X94829085Y-77745771D01*
X94756514Y-77455485D01*
X94756514Y-77237771D01*
X94829085Y-76947485D01*
X94901657Y-76802342D01*
X95046800Y-76657200D01*
X95264514Y-76584628D01*
X95409657Y-76584628D01*
X95627371Y-76657200D01*
X95699942Y-76729771D01*
X95990228Y-78253771D02*
X97151371Y-78253771D01*
X98239942Y-78108628D02*
X97514228Y-78108628D01*
X97514228Y-76584628D01*
X98747942Y-78108628D02*
X98747942Y-76584628D01*
X99473657Y-78108628D02*
X99473657Y-76584628D01*
X100344514Y-78108628D01*
X100344514Y-76584628D01*
X101070228Y-78108628D02*
X101070228Y-76584628D01*
X101941085Y-78108628D02*
X101287942Y-77237771D01*
X101941085Y-76584628D02*
X101070228Y-77455485D01*
D12*
X201601009Y-77479676D02*
X201601009Y-77721580D01*
X201093009Y-77721580D01*
X201601009Y-77310342D02*
X201093009Y-77310342D01*
X201601009Y-77068438D02*
X201093009Y-77068438D01*
X201455866Y-76899104D01*
X201093009Y-76729771D01*
X201601009Y-76729771D01*
X201601009Y-76487866D02*
X201093009Y-76487866D01*
X201093009Y-76318533D02*
X201093009Y-76028247D01*
X201601009Y-76173390D02*
X201093009Y-76173390D01*
D13*
X128103085Y-133994071D02*
X127558800Y-133994071D01*
X127504371Y-134538357D01*
X127558800Y-134483928D01*
X127667657Y-134429500D01*
X127939800Y-134429500D01*
X128048657Y-134483928D01*
X128103085Y-134538357D01*
X128157514Y-134647214D01*
X128157514Y-134919357D01*
X128103085Y-135028214D01*
X128048657Y-135082642D01*
X127939800Y-135137071D01*
X127667657Y-135137071D01*
X127558800Y-135082642D01*
X127504371Y-135028214D01*
X128484085Y-133994071D02*
X128865085Y-135137071D01*
X129246085Y-133994071D01*
D10*
X92473538Y-106668509D02*
X93108538Y-106668509D01*
X93108538Y-106910414D01*
X93078300Y-106970890D01*
X93048061Y-107001128D01*
X92987585Y-107031366D01*
X92896871Y-107031366D01*
X92836395Y-107001128D01*
X92806157Y-106970890D01*
X92775919Y-106910414D01*
X92775919Y-106668509D01*
X93108538Y-107243033D02*
X93108538Y-107636128D01*
X92866633Y-107424461D01*
X92866633Y-107515176D01*
X92836395Y-107575652D01*
X92806157Y-107605890D01*
X92745680Y-107636128D01*
X92594490Y-107636128D01*
X92534014Y-107605890D01*
X92503776Y-107575652D01*
X92473538Y-107515176D01*
X92473538Y-107333747D01*
X92503776Y-107273271D01*
X92534014Y-107243033D01*
D13*
X142181942Y-134099300D02*
X142073085Y-134044871D01*
X141909800Y-134044871D01*
X141746514Y-134099300D01*
X141637657Y-134208157D01*
X141583228Y-134317014D01*
X141528800Y-134534728D01*
X141528800Y-134698014D01*
X141583228Y-134915728D01*
X141637657Y-135024585D01*
X141746514Y-135133442D01*
X141909800Y-135187871D01*
X142018657Y-135187871D01*
X142181942Y-135133442D01*
X142236371Y-135079014D01*
X142236371Y-134698014D01*
X142018657Y-134698014D01*
X142726228Y-135187871D02*
X142726228Y-134044871D01*
X143379371Y-135187871D01*
X143379371Y-134044871D01*
X143923657Y-135187871D02*
X143923657Y-134044871D01*
X144195800Y-134044871D01*
X144359085Y-134099300D01*
X144467942Y-134208157D01*
X144522371Y-134317014D01*
X144576800Y-134534728D01*
X144576800Y-134698014D01*
X144522371Y-134915728D01*
X144467942Y-135024585D01*
X144359085Y-135133442D01*
X144195800Y-135187871D01*
X143923657Y-135187871D01*
X117003285Y-134102928D02*
X117057714Y-134048500D01*
X117166571Y-133994071D01*
X117438714Y-133994071D01*
X117547571Y-134048500D01*
X117602000Y-134102928D01*
X117656428Y-134211785D01*
X117656428Y-134320642D01*
X117602000Y-134483928D01*
X116948857Y-135137071D01*
X117656428Y-135137071D01*
X118636142Y-134375071D02*
X118636142Y-135137071D01*
X118364000Y-133939642D02*
X118091857Y-134756071D01*
X118799428Y-134756071D01*
X119071571Y-133994071D02*
X119452571Y-135137071D01*
X119833571Y-133994071D01*
D12*
X162843028Y-138796485D02*
X162879314Y-138760200D01*
X162951885Y-138723914D01*
X163133314Y-138723914D01*
X163205885Y-138760200D01*
X163242171Y-138796485D01*
X163278457Y-138869057D01*
X163278457Y-138941628D01*
X163242171Y-139050485D01*
X162806742Y-139485914D01*
X163278457Y-139485914D01*
X163641314Y-139485914D02*
X163786457Y-139485914D01*
X163859028Y-139449628D01*
X163895314Y-139413342D01*
X163967885Y-139304485D01*
X164004171Y-139159342D01*
X164004171Y-138869057D01*
X163967885Y-138796485D01*
X163931600Y-138760200D01*
X163859028Y-138723914D01*
X163713885Y-138723914D01*
X163641314Y-138760200D01*
X163605028Y-138796485D01*
X163568742Y-138869057D01*
X163568742Y-139050485D01*
X163605028Y-139123057D01*
X163641314Y-139159342D01*
X163713885Y-139195628D01*
X163859028Y-139195628D01*
X163931600Y-139159342D01*
X163967885Y-139123057D01*
X164004171Y-139050485D01*
X150701828Y-139101285D02*
X150629257Y-139065000D01*
X150592971Y-139028714D01*
X150556685Y-138956142D01*
X150556685Y-138919857D01*
X150592971Y-138847285D01*
X150629257Y-138811000D01*
X150701828Y-138774714D01*
X150846971Y-138774714D01*
X150919542Y-138811000D01*
X150955828Y-138847285D01*
X150992114Y-138919857D01*
X150992114Y-138956142D01*
X150955828Y-139028714D01*
X150919542Y-139065000D01*
X150846971Y-139101285D01*
X150701828Y-139101285D01*
X150629257Y-139137571D01*
X150592971Y-139173857D01*
X150556685Y-139246428D01*
X150556685Y-139391571D01*
X150592971Y-139464142D01*
X150629257Y-139500428D01*
X150701828Y-139536714D01*
X150846971Y-139536714D01*
X150919542Y-139500428D01*
X150955828Y-139464142D01*
X150992114Y-139391571D01*
X150992114Y-139246428D01*
X150955828Y-139173857D01*
X150919542Y-139137571D01*
X150846971Y-139101285D01*
D11*
X176781580Y-119609809D02*
X177265390Y-119271142D01*
X176781580Y-119029238D02*
X177797580Y-119029238D01*
X177797580Y-119416285D01*
X177749200Y-119513047D01*
X177700819Y-119561428D01*
X177604057Y-119609809D01*
X177458914Y-119609809D01*
X177362152Y-119561428D01*
X177313771Y-119513047D01*
X177265390Y-119416285D01*
X177265390Y-119029238D01*
X177797580Y-120238761D02*
X177797580Y-120432285D01*
X177749200Y-120529047D01*
X177652438Y-120625809D01*
X177458914Y-120674190D01*
X177120247Y-120674190D01*
X176926723Y-120625809D01*
X176829961Y-120529047D01*
X176781580Y-120432285D01*
X176781580Y-120238761D01*
X176829961Y-120142000D01*
X176926723Y-120045238D01*
X177120247Y-119996857D01*
X177458914Y-119996857D01*
X177652438Y-120045238D01*
X177749200Y-120142000D01*
X177797580Y-120238761D01*
X176781580Y-121593428D02*
X176781580Y-121109619D01*
X177797580Y-121109619D01*
X176781580Y-122415904D02*
X176781580Y-121932095D01*
X177797580Y-121932095D01*
X176781580Y-122754571D02*
X177797580Y-122754571D01*
X176781580Y-123238380D02*
X177797580Y-123238380D01*
X176781580Y-123818952D01*
X177797580Y-123818952D01*
X177749200Y-124834952D02*
X177797580Y-124738190D01*
X177797580Y-124593047D01*
X177749200Y-124447904D01*
X177652438Y-124351142D01*
X177555676Y-124302761D01*
X177362152Y-124254380D01*
X177217009Y-124254380D01*
X177023485Y-124302761D01*
X176926723Y-124351142D01*
X176829961Y-124447904D01*
X176781580Y-124593047D01*
X176781580Y-124689809D01*
X176829961Y-124834952D01*
X176878342Y-124883333D01*
X177217009Y-124883333D01*
X177217009Y-124689809D01*
X176684819Y-125076857D02*
X176684819Y-125850952D01*
X177797580Y-125947714D02*
X177797580Y-126528285D01*
X176781580Y-126238000D02*
X177797580Y-126238000D01*
X177797580Y-126866952D02*
X176975104Y-126866952D01*
X176878342Y-126915333D01*
X176829961Y-126963714D01*
X176781580Y-127060476D01*
X176781580Y-127254000D01*
X176829961Y-127350761D01*
X176878342Y-127399142D01*
X176975104Y-127447523D01*
X177797580Y-127447523D01*
X177313771Y-128270000D02*
X177265390Y-128415142D01*
X177217009Y-128463523D01*
X177120247Y-128511904D01*
X176975104Y-128511904D01*
X176878342Y-128463523D01*
X176829961Y-128415142D01*
X176781580Y-128318380D01*
X176781580Y-127931333D01*
X177797580Y-127931333D01*
X177797580Y-128270000D01*
X177749200Y-128366761D01*
X177700819Y-128415142D01*
X177604057Y-128463523D01*
X177507295Y-128463523D01*
X177410533Y-128415142D01*
X177362152Y-128366761D01*
X177313771Y-128270000D01*
X177313771Y-127931333D01*
X177313771Y-128947333D02*
X177313771Y-129286000D01*
X176781580Y-129431142D02*
X176781580Y-128947333D01*
X177797580Y-128947333D01*
X177797580Y-129431142D01*
D10*
X92554576Y-122625757D02*
X92524338Y-122716471D01*
X92524338Y-122867661D01*
X92554576Y-122928138D01*
X92584814Y-122958376D01*
X92645290Y-122988614D01*
X92705766Y-122988614D01*
X92766242Y-122958376D01*
X92796480Y-122928138D01*
X92826719Y-122867661D01*
X92856957Y-122746709D01*
X92887195Y-122686233D01*
X92917433Y-122655995D01*
X92977909Y-122625757D01*
X93038385Y-122625757D01*
X93098861Y-122655995D01*
X93129100Y-122686233D01*
X93159338Y-122746709D01*
X93159338Y-122897900D01*
X93129100Y-122988614D01*
X93159338Y-123170042D02*
X93159338Y-123532900D01*
X92524338Y-123351471D02*
X93159338Y-123351471D01*
X92463861Y-123593376D02*
X92463861Y-124077185D01*
X92524338Y-124228376D02*
X93159338Y-124228376D01*
X93159338Y-124379566D01*
X93129100Y-124470280D01*
X93068623Y-124530757D01*
X93008147Y-124560995D01*
X92887195Y-124591233D01*
X92796480Y-124591233D01*
X92675528Y-124560995D01*
X92615052Y-124530757D01*
X92554576Y-124470280D01*
X92524338Y-124379566D01*
X92524338Y-124228376D01*
X93159338Y-124772661D02*
X93159338Y-125135519D01*
X92524338Y-124954090D02*
X93159338Y-124954090D01*
D14*
X108876495Y-46433619D02*
X108876495Y-45417619D01*
X109118400Y-45417619D01*
X109263542Y-45466000D01*
X109360304Y-45562761D01*
X109408685Y-45659523D01*
X109457066Y-45853047D01*
X109457066Y-45998190D01*
X109408685Y-46191714D01*
X109360304Y-46288476D01*
X109263542Y-46385238D01*
X109118400Y-46433619D01*
X108876495Y-46433619D01*
X109747352Y-45417619D02*
X110086019Y-46433619D01*
X110424685Y-45417619D01*
X110521447Y-46530380D02*
X111295542Y-46530380D01*
X112021257Y-46433619D02*
X111537447Y-46433619D01*
X111537447Y-45417619D01*
X112359923Y-46433619D02*
X112359923Y-45417619D01*
X112843733Y-46433619D02*
X112843733Y-45417619D01*
X113424304Y-46433619D01*
X113424304Y-45417619D01*
X113908114Y-46433619D02*
X113908114Y-45417619D01*
X114488685Y-46433619D02*
X114053257Y-45853047D01*
X114488685Y-45417619D02*
X113908114Y-45998190D01*
D13*
X153753457Y-134589157D02*
X153372457Y-134589157D01*
X153372457Y-135187871D02*
X153372457Y-134044871D01*
X153916742Y-134044871D01*
X155005314Y-135187871D02*
X154624314Y-134643585D01*
X154352171Y-135187871D02*
X154352171Y-134044871D01*
X154787600Y-134044871D01*
X154896457Y-134099300D01*
X154950885Y-134153728D01*
X155005314Y-134262585D01*
X155005314Y-134425871D01*
X154950885Y-134534728D01*
X154896457Y-134589157D01*
X154787600Y-134643585D01*
X154352171Y-134643585D01*
X155495171Y-134589157D02*
X155876171Y-134589157D01*
X156039457Y-135187871D02*
X155495171Y-135187871D01*
X155495171Y-134044871D01*
X156039457Y-134044871D01*
X156529314Y-134589157D02*
X156910314Y-134589157D01*
X157073600Y-135187871D02*
X156529314Y-135187871D01*
X156529314Y-134044871D01*
X157073600Y-134044871D01*
X158434314Y-135187871D02*
X158434314Y-134044871D01*
X158869742Y-134044871D01*
X158978600Y-134099300D01*
X159033028Y-134153728D01*
X159087457Y-134262585D01*
X159087457Y-134425871D01*
X159033028Y-134534728D01*
X158978600Y-134589157D01*
X158869742Y-134643585D01*
X158434314Y-134643585D01*
X159577314Y-135187871D02*
X159577314Y-134044871D01*
X160121600Y-135187871D02*
X160121600Y-134044871D01*
X160774742Y-135187871D01*
X160774742Y-134044871D01*
D11*
X132687180Y-124342676D02*
X132747657Y-124282200D01*
X132868609Y-124221723D01*
X133170990Y-124221723D01*
X133291942Y-124282200D01*
X133352419Y-124342676D01*
X133412895Y-124463628D01*
X133412895Y-124584580D01*
X133352419Y-124766009D01*
X132626704Y-125491723D01*
X133412895Y-125491723D01*
X134501466Y-124645057D02*
X134501466Y-125491723D01*
X134199085Y-124161247D02*
X133896704Y-125068390D01*
X134682895Y-125068390D01*
X134985276Y-124221723D02*
X135408609Y-125491723D01*
X135831942Y-124221723D01*
X137041466Y-124221723D02*
X137767180Y-124221723D01*
X137404323Y-125491723D02*
X137404323Y-124221723D01*
X138432419Y-124221723D02*
X138674323Y-124221723D01*
X138795276Y-124282200D01*
X138916228Y-124403152D01*
X138976704Y-124645057D01*
X138976704Y-125068390D01*
X138916228Y-125310295D01*
X138795276Y-125431247D01*
X138674323Y-125491723D01*
X138432419Y-125491723D01*
X138311466Y-125431247D01*
X138190514Y-125310295D01*
X138130038Y-125068390D01*
X138130038Y-124645057D01*
X138190514Y-124403152D01*
X138311466Y-124282200D01*
X138432419Y-124221723D01*
X140367657Y-124221723D02*
X141214323Y-124221723D01*
X140670038Y-125491723D01*
X141516704Y-124221723D02*
X141940038Y-125491723D01*
X142363371Y-124221723D01*
D12*
X198197409Y-60077047D02*
X198197409Y-59738380D01*
X198705409Y-59956095D01*
X198197409Y-59617428D02*
X198705409Y-59448095D01*
X198197409Y-59278761D01*
D10*
X93179900Y-128751390D02*
X93210138Y-128690914D01*
X93210138Y-128600200D01*
X93179900Y-128509485D01*
X93119423Y-128449009D01*
X93058947Y-128418771D01*
X92937995Y-128388533D01*
X92847280Y-128388533D01*
X92726328Y-128418771D01*
X92665852Y-128449009D01*
X92605376Y-128509485D01*
X92575138Y-128600200D01*
X92575138Y-128660676D01*
X92605376Y-128751390D01*
X92635614Y-128781628D01*
X92847280Y-128781628D01*
X92847280Y-128660676D01*
X92575138Y-129053771D02*
X93210138Y-129053771D01*
X92575138Y-129416628D01*
X93210138Y-129416628D01*
X92575138Y-129719009D02*
X93210138Y-129719009D01*
X93210138Y-129870200D01*
X93179900Y-129960914D01*
X93119423Y-130021390D01*
X93058947Y-130051628D01*
X92937995Y-130081866D01*
X92847280Y-130081866D01*
X92726328Y-130051628D01*
X92665852Y-130021390D01*
X92605376Y-129960914D01*
X92575138Y-129870200D01*
X92575138Y-129719009D01*
%TO.C,U5*%
X103714080Y-131317904D02*
X104523604Y-131317904D01*
X104618842Y-131270285D01*
X104666461Y-131222666D01*
X104714080Y-131127428D01*
X104714080Y-130936952D01*
X104666461Y-130841714D01*
X104618842Y-130794095D01*
X104523604Y-130746476D01*
X103714080Y-130746476D01*
X103714080Y-129794095D02*
X103714080Y-130270285D01*
X104190271Y-130317904D01*
X104142652Y-130270285D01*
X104095033Y-130175047D01*
X104095033Y-129936952D01*
X104142652Y-129841714D01*
X104190271Y-129794095D01*
X104285509Y-129746476D01*
X104523604Y-129746476D01*
X104618842Y-129794095D01*
X104666461Y-129841714D01*
X104714080Y-129936952D01*
X104714080Y-130175047D01*
X104666461Y-130270285D01*
X104618842Y-130317904D01*
X108071095Y-131487938D02*
X108373476Y-131487938D01*
X108373476Y-132122938D01*
X107950142Y-132122938D02*
X107738476Y-131487938D01*
X107526809Y-132122938D01*
X108068676Y-134027938D02*
X108371057Y-134027938D01*
X108371057Y-134662938D01*
X107947723Y-134662938D02*
X107736057Y-134027938D01*
X107524390Y-134662938D01*
X107342961Y-134602461D02*
X107312723Y-134632700D01*
X107252247Y-134662938D01*
X107101057Y-134662938D01*
X107040580Y-134632700D01*
X107010342Y-134602461D01*
X106980104Y-134541985D01*
X106980104Y-134481509D01*
X107010342Y-134390795D01*
X107373200Y-134027938D01*
X106980104Y-134027938D01*
X102350652Y-133977138D02*
X102350652Y-134612138D01*
X102350652Y-134309757D02*
X101987795Y-134309757D01*
X101987795Y-133977138D02*
X101987795Y-134612138D01*
X101776128Y-134612138D02*
X101564461Y-133977138D01*
X101352795Y-134612138D01*
X101171366Y-134551661D02*
X101141128Y-134581900D01*
X101080652Y-134612138D01*
X100929461Y-134612138D01*
X100868985Y-134581900D01*
X100838747Y-134551661D01*
X100808509Y-134491185D01*
X100808509Y-134430709D01*
X100838747Y-134339995D01*
X101201604Y-133977138D01*
X100808509Y-133977138D01*
X102350652Y-136517138D02*
X102350652Y-137152138D01*
X102350652Y-136849757D02*
X101987795Y-136849757D01*
X101987795Y-136517138D02*
X101987795Y-137152138D01*
X101776128Y-137152138D02*
X101564461Y-136517138D01*
X101352795Y-137152138D01*
X100808509Y-136517138D02*
X101171366Y-136517138D01*
X100989938Y-136517138D02*
X100989938Y-137152138D01*
X101050414Y-137061423D01*
X101110890Y-137000947D01*
X101171366Y-136970709D01*
X108068676Y-126458738D02*
X108371057Y-126458738D01*
X108371057Y-127093738D01*
X107947723Y-127093738D02*
X107736057Y-126458738D01*
X107524390Y-127093738D01*
X107373200Y-127093738D02*
X106980104Y-127093738D01*
X107191771Y-126851833D01*
X107101057Y-126851833D01*
X107040580Y-126821595D01*
X107010342Y-126791357D01*
X106980104Y-126730880D01*
X106980104Y-126579690D01*
X107010342Y-126519214D01*
X107040580Y-126488976D01*
X107101057Y-126458738D01*
X107282485Y-126458738D01*
X107342961Y-126488976D01*
X107373200Y-126519214D01*
X101976909Y-129552700D02*
X102037385Y-129582938D01*
X102128100Y-129582938D01*
X102218814Y-129552700D01*
X102279290Y-129492223D01*
X102309528Y-129431747D01*
X102339766Y-129310795D01*
X102339766Y-129220080D01*
X102309528Y-129099128D01*
X102279290Y-129038652D01*
X102218814Y-128978176D01*
X102128100Y-128947938D01*
X102067623Y-128947938D01*
X101976909Y-128978176D01*
X101946671Y-129008414D01*
X101946671Y-129220080D01*
X102067623Y-129220080D01*
X101674528Y-128947938D02*
X101674528Y-129582938D01*
X101311671Y-128947938D01*
X101311671Y-129582938D01*
X101009290Y-128947938D02*
X101009290Y-129582938D01*
X100858100Y-129582938D01*
X100767385Y-129552700D01*
X100706909Y-129492223D01*
X100676671Y-129431747D01*
X100646433Y-129310795D01*
X100646433Y-129220080D01*
X100676671Y-129099128D01*
X100706909Y-129038652D01*
X100767385Y-128978176D01*
X100858100Y-128947938D01*
X101009290Y-128947938D01*
X108068676Y-136517138D02*
X108371057Y-136517138D01*
X108371057Y-137152138D01*
X107947723Y-137152138D02*
X107736057Y-136517138D01*
X107524390Y-137152138D01*
X106980104Y-136517138D02*
X107342961Y-136517138D01*
X107161533Y-136517138D02*
X107161533Y-137152138D01*
X107222009Y-137061423D01*
X107282485Y-137000947D01*
X107342961Y-136970709D01*
X108072909Y-129552700D02*
X108133385Y-129582938D01*
X108224100Y-129582938D01*
X108314814Y-129552700D01*
X108375290Y-129492223D01*
X108405528Y-129431747D01*
X108435766Y-129310795D01*
X108435766Y-129220080D01*
X108405528Y-129099128D01*
X108375290Y-129038652D01*
X108314814Y-128978176D01*
X108224100Y-128947938D01*
X108163623Y-128947938D01*
X108072909Y-128978176D01*
X108042671Y-129008414D01*
X108042671Y-129220080D01*
X108163623Y-129220080D01*
X107770528Y-128947938D02*
X107770528Y-129582938D01*
X107407671Y-128947938D01*
X107407671Y-129582938D01*
X107105290Y-128947938D02*
X107105290Y-129582938D01*
X106954100Y-129582938D01*
X106863385Y-129552700D01*
X106802909Y-129492223D01*
X106772671Y-129431747D01*
X106742433Y-129310795D01*
X106742433Y-129220080D01*
X106772671Y-129099128D01*
X106802909Y-129038652D01*
X106863385Y-128978176D01*
X106954100Y-128947938D01*
X107105290Y-128947938D01*
X102353071Y-131437138D02*
X102353071Y-132072138D01*
X102353071Y-131769757D02*
X101990214Y-131769757D01*
X101990214Y-131437138D02*
X101990214Y-132072138D01*
X101778547Y-132072138D02*
X101566880Y-131437138D01*
X101355214Y-132072138D01*
X102350652Y-126407938D02*
X102350652Y-127042938D01*
X102350652Y-126740557D02*
X101987795Y-126740557D01*
X101987795Y-126407938D02*
X101987795Y-127042938D01*
X101776128Y-127042938D02*
X101564461Y-126407938D01*
X101352795Y-127042938D01*
X101201604Y-127042938D02*
X100808509Y-127042938D01*
X101020176Y-126801033D01*
X100929461Y-126801033D01*
X100868985Y-126770795D01*
X100838747Y-126740557D01*
X100808509Y-126680080D01*
X100808509Y-126528890D01*
X100838747Y-126468414D01*
X100868985Y-126438176D01*
X100929461Y-126407938D01*
X101110890Y-126407938D01*
X101171366Y-126438176D01*
X101201604Y-126468414D01*
X108068676Y-123867938D02*
X108371057Y-123867938D01*
X108371057Y-124502938D01*
X107947723Y-124502938D02*
X107736057Y-123867938D01*
X107524390Y-124502938D01*
X107040580Y-124291271D02*
X107040580Y-123867938D01*
X107191771Y-124533176D02*
X107342961Y-124079604D01*
X106949866Y-124079604D01*
X102350652Y-123918738D02*
X102350652Y-124553738D01*
X102350652Y-124251357D02*
X101987795Y-124251357D01*
X101987795Y-123918738D02*
X101987795Y-124553738D01*
X101776128Y-124553738D02*
X101564461Y-123918738D01*
X101352795Y-124553738D01*
X100868985Y-124342071D02*
X100868985Y-123918738D01*
X101020176Y-124583976D02*
X101171366Y-124130404D01*
X100778271Y-124130404D01*
%TO.C,U8*%
X182149619Y-75946095D02*
X181340095Y-75946095D01*
X181244857Y-75993714D01*
X181197238Y-76041333D01*
X181149619Y-76136571D01*
X181149619Y-76327047D01*
X181197238Y-76422285D01*
X181244857Y-76469904D01*
X181340095Y-76517523D01*
X182149619Y-76517523D01*
X181721047Y-77136571D02*
X181768666Y-77041333D01*
X181816285Y-76993714D01*
X181911523Y-76946095D01*
X181959142Y-76946095D01*
X182054380Y-76993714D01*
X182102000Y-77041333D01*
X182149619Y-77136571D01*
X182149619Y-77327047D01*
X182102000Y-77422285D01*
X182054380Y-77469904D01*
X181959142Y-77517523D01*
X181911523Y-77517523D01*
X181816285Y-77469904D01*
X181768666Y-77422285D01*
X181721047Y-77327047D01*
X181721047Y-77136571D01*
X181673428Y-77041333D01*
X181625809Y-76993714D01*
X181530571Y-76946095D01*
X181340095Y-76946095D01*
X181244857Y-76993714D01*
X181197238Y-77041333D01*
X181149619Y-77136571D01*
X181149619Y-77327047D01*
X181197238Y-77422285D01*
X181244857Y-77469904D01*
X181340095Y-77517523D01*
X181530571Y-77517523D01*
X181625809Y-77469904D01*
X181673428Y-77422285D01*
X181721047Y-77327047D01*
X188507619Y-69119952D02*
X188507619Y-69310428D01*
X188460000Y-69405666D01*
X188364761Y-69500904D01*
X188174285Y-69548523D01*
X187840952Y-69548523D01*
X187650476Y-69500904D01*
X187555238Y-69405666D01*
X187507619Y-69310428D01*
X187507619Y-69119952D01*
X187555238Y-69024714D01*
X187650476Y-68929476D01*
X187840952Y-68881857D01*
X188174285Y-68881857D01*
X188364761Y-68929476D01*
X188460000Y-69024714D01*
X188507619Y-69119952D01*
X188507619Y-69977095D02*
X187698095Y-69977095D01*
X187602857Y-70024714D01*
X187555238Y-70072333D01*
X187507619Y-70167571D01*
X187507619Y-70358047D01*
X187555238Y-70453285D01*
X187602857Y-70500904D01*
X187698095Y-70548523D01*
X188507619Y-70548523D01*
X188507619Y-70881857D02*
X188507619Y-71453285D01*
X187507619Y-71167571D02*
X188507619Y-71167571D01*
X187888571Y-71786619D02*
X187888571Y-72548523D01*
X188507619Y-80962714D02*
X187507619Y-81296047D01*
X188507619Y-81629380D01*
X187507619Y-81962714D02*
X188507619Y-81962714D01*
X187507619Y-82438904D02*
X188507619Y-82438904D01*
X187507619Y-83010333D01*
X188507619Y-83010333D01*
X187888571Y-83486523D02*
X187888571Y-84248428D01*
X193714619Y-80962714D02*
X192714619Y-81296047D01*
X193714619Y-81629380D01*
X192714619Y-81962714D02*
X193714619Y-81962714D01*
X192714619Y-82438904D02*
X193714619Y-82438904D01*
X192714619Y-83010333D01*
X193714619Y-83010333D01*
X193095571Y-83486523D02*
X193095571Y-84248428D01*
X192714619Y-83867476D02*
X193476523Y-83867476D01*
X193714619Y-69119952D02*
X193714619Y-69310428D01*
X193667000Y-69405666D01*
X193571761Y-69500904D01*
X193381285Y-69548523D01*
X193047952Y-69548523D01*
X192857476Y-69500904D01*
X192762238Y-69405666D01*
X192714619Y-69310428D01*
X192714619Y-69119952D01*
X192762238Y-69024714D01*
X192857476Y-68929476D01*
X193047952Y-68881857D01*
X193381285Y-68881857D01*
X193571761Y-68929476D01*
X193667000Y-69024714D01*
X193714619Y-69119952D01*
X193714619Y-69977095D02*
X192905095Y-69977095D01*
X192809857Y-70024714D01*
X192762238Y-70072333D01*
X192714619Y-70167571D01*
X192714619Y-70358047D01*
X192762238Y-70453285D01*
X192809857Y-70500904D01*
X192905095Y-70548523D01*
X193714619Y-70548523D01*
X193714619Y-70881857D02*
X193714619Y-71453285D01*
X192714619Y-71167571D02*
X193714619Y-71167571D01*
X193095571Y-71786619D02*
X193095571Y-72548523D01*
X192714619Y-72167571D02*
X193476523Y-72167571D01*
X168846500Y-78637190D02*
X168876738Y-78576714D01*
X168876738Y-78486000D01*
X168846500Y-78395285D01*
X168786023Y-78334809D01*
X168725547Y-78304571D01*
X168604595Y-78274333D01*
X168513880Y-78274333D01*
X168392928Y-78304571D01*
X168332452Y-78334809D01*
X168271976Y-78395285D01*
X168241738Y-78486000D01*
X168241738Y-78546476D01*
X168271976Y-78637190D01*
X168302214Y-78667428D01*
X168513880Y-78667428D01*
X168513880Y-78546476D01*
X168241738Y-78939571D02*
X168876738Y-78939571D01*
X168241738Y-79302428D01*
X168876738Y-79302428D01*
X168241738Y-79604809D02*
X168876738Y-79604809D01*
X168876738Y-79756000D01*
X168846500Y-79846714D01*
X168786023Y-79907190D01*
X168725547Y-79937428D01*
X168604595Y-79967666D01*
X168513880Y-79967666D01*
X168392928Y-79937428D01*
X168332452Y-79907190D01*
X168271976Y-79846714D01*
X168241738Y-79756000D01*
X168241738Y-79604809D01*
X168876738Y-71697547D02*
X168876738Y-72060404D01*
X168241738Y-71878976D02*
X168876738Y-71878976D01*
X168241738Y-72634928D02*
X168544119Y-72423261D01*
X168241738Y-72272071D02*
X168876738Y-72272071D01*
X168876738Y-72513976D01*
X168846500Y-72574452D01*
X168816261Y-72604690D01*
X168755785Y-72634928D01*
X168665071Y-72634928D01*
X168604595Y-72604690D01*
X168574357Y-72574452D01*
X168544119Y-72513976D01*
X168544119Y-72272071D01*
X168241738Y-72907071D02*
X168876738Y-72907071D01*
X168846500Y-73542071D02*
X168876738Y-73481595D01*
X168876738Y-73390880D01*
X168846500Y-73300166D01*
X168786023Y-73239690D01*
X168725547Y-73209452D01*
X168604595Y-73179214D01*
X168513880Y-73179214D01*
X168392928Y-73209452D01*
X168332452Y-73239690D01*
X168271976Y-73300166D01*
X168241738Y-73390880D01*
X168241738Y-73451357D01*
X168271976Y-73542071D01*
X168302214Y-73572309D01*
X168513880Y-73572309D01*
X168513880Y-73451357D01*
X168906976Y-74298023D02*
X168090547Y-73753738D01*
X168241738Y-74509690D02*
X168876738Y-74509690D01*
X168876738Y-74751595D01*
X168846500Y-74812071D01*
X168816261Y-74842309D01*
X168755785Y-74872547D01*
X168665071Y-74872547D01*
X168604595Y-74842309D01*
X168574357Y-74812071D01*
X168544119Y-74751595D01*
X168544119Y-74509690D01*
X168876738Y-75084214D02*
X168241738Y-75235404D01*
X168695309Y-75356357D01*
X168241738Y-75477309D01*
X168876738Y-75628500D01*
X168241738Y-75870404D02*
X168876738Y-75870404D01*
X168423166Y-76082071D01*
X168876738Y-76293738D01*
X168241738Y-76293738D01*
%TO.C,J7*%
X199131333Y-66760666D02*
X200131333Y-66760666D01*
X200331333Y-66827333D01*
X200464666Y-66960666D01*
X200531333Y-67160666D01*
X200531333Y-67294000D01*
X199131333Y-66227333D02*
X199131333Y-65294000D01*
X200531333Y-65894000D01*
%TO.C,J5*%
X114220666Y-136358380D02*
X114220666Y-137072666D01*
X114173047Y-137215523D01*
X114077809Y-137310761D01*
X113934952Y-137358380D01*
X113839714Y-137358380D01*
X115173047Y-136358380D02*
X114696857Y-136358380D01*
X114649238Y-136834571D01*
X114696857Y-136786952D01*
X114792095Y-136739333D01*
X115030190Y-136739333D01*
X115125428Y-136786952D01*
X115173047Y-136834571D01*
X115220666Y-136929809D01*
X115220666Y-137167904D01*
X115173047Y-137263142D01*
X115125428Y-137310761D01*
X115030190Y-137358380D01*
X114792095Y-137358380D01*
X114696857Y-137310761D01*
X114649238Y-137263142D01*
%TO.C,J2*%
X94027666Y-51776380D02*
X94027666Y-52490666D01*
X93980047Y-52633523D01*
X93884809Y-52728761D01*
X93741952Y-52776380D01*
X93646714Y-52776380D01*
X94456238Y-51871619D02*
X94503857Y-51824000D01*
X94599095Y-51776380D01*
X94837190Y-51776380D01*
X94932428Y-51824000D01*
X94980047Y-51871619D01*
X95027666Y-51966857D01*
X95027666Y-52062095D01*
X94980047Y-52204952D01*
X94408619Y-52776380D01*
X95027666Y-52776380D01*
%TO.C,J3*%
X90130380Y-120729333D02*
X90844666Y-120729333D01*
X90987523Y-120776952D01*
X91082761Y-120872190D01*
X91130380Y-121015047D01*
X91130380Y-121110285D01*
X90130380Y-120348380D02*
X90130380Y-119729333D01*
X90511333Y-120062666D01*
X90511333Y-119919809D01*
X90558952Y-119824571D01*
X90606571Y-119776952D01*
X90701809Y-119729333D01*
X90939904Y-119729333D01*
X91035142Y-119776952D01*
X91082761Y-119824571D01*
X91130380Y-119919809D01*
X91130380Y-120205523D01*
X91082761Y-120300761D01*
X91035142Y-120348380D01*
%TO.C,U2*%
X96520095Y-73628380D02*
X96520095Y-74437904D01*
X96567714Y-74533142D01*
X96615333Y-74580761D01*
X96710571Y-74628380D01*
X96901047Y-74628380D01*
X96996285Y-74580761D01*
X97043904Y-74533142D01*
X97091523Y-74437904D01*
X97091523Y-73628380D01*
X97520095Y-73723619D02*
X97567714Y-73676000D01*
X97662952Y-73628380D01*
X97901047Y-73628380D01*
X97996285Y-73676000D01*
X98043904Y-73723619D01*
X98091523Y-73818857D01*
X98091523Y-73914095D01*
X98043904Y-74056952D01*
X97472476Y-74628380D01*
X98091523Y-74628380D01*
D15*
X98526600Y-95696314D02*
X98272600Y-95333457D01*
X98091171Y-95696314D02*
X98091171Y-94934314D01*
X98381457Y-94934314D01*
X98454028Y-94970600D01*
X98490314Y-95006885D01*
X98526600Y-95079457D01*
X98526600Y-95188314D01*
X98490314Y-95260885D01*
X98454028Y-95297171D01*
X98381457Y-95333457D01*
X98091171Y-95333457D01*
X98780600Y-94934314D02*
X99288600Y-95696314D01*
X99288600Y-94934314D02*
X98780600Y-95696314D01*
X99578885Y-95696314D02*
X99578885Y-94934314D01*
X99760314Y-94934314D01*
X99869171Y-94970600D01*
X99941742Y-95043171D01*
X99978028Y-95115742D01*
X100014314Y-95260885D01*
X100014314Y-95369742D01*
X99978028Y-95514885D01*
X99941742Y-95587457D01*
X99869171Y-95660028D01*
X99760314Y-95696314D01*
X99578885Y-95696314D01*
D14*
X91327514Y-61036200D02*
X92053228Y-61036200D01*
X91182371Y-61471628D02*
X91690371Y-59947628D01*
X92198371Y-61471628D01*
X92706371Y-60891057D02*
X93867514Y-60891057D01*
X93286942Y-61471628D02*
X93286942Y-60310485D01*
D15*
X95533028Y-94934314D02*
X95968457Y-94934314D01*
X95750742Y-95696314D02*
X95750742Y-94934314D01*
X96149885Y-94934314D02*
X96657885Y-95696314D01*
X96657885Y-94934314D02*
X96149885Y-95696314D01*
X96948171Y-95696314D02*
X96948171Y-94934314D01*
X97129600Y-94934314D01*
X97238457Y-94970600D01*
X97311028Y-95043171D01*
X97347314Y-95115742D01*
X97383600Y-95260885D01*
X97383600Y-95369742D01*
X97347314Y-95514885D01*
X97311028Y-95587457D01*
X97238457Y-95660028D01*
X97129600Y-95696314D01*
X96948171Y-95696314D01*
X100994028Y-94970600D02*
X100921457Y-94934314D01*
X100812600Y-94934314D01*
X100703742Y-94970600D01*
X100631171Y-95043171D01*
X100594885Y-95115742D01*
X100558600Y-95260885D01*
X100558600Y-95369742D01*
X100594885Y-95514885D01*
X100631171Y-95587457D01*
X100703742Y-95660028D01*
X100812600Y-95696314D01*
X100885171Y-95696314D01*
X100994028Y-95660028D01*
X101030314Y-95623742D01*
X101030314Y-95369742D01*
X100885171Y-95369742D01*
X101356885Y-95696314D02*
X101356885Y-94934314D01*
X101792314Y-95696314D01*
X101792314Y-94934314D01*
X102155171Y-95696314D02*
X102155171Y-94934314D01*
X102336600Y-94934314D01*
X102445457Y-94970600D01*
X102518028Y-95043171D01*
X102554314Y-95115742D01*
X102590600Y-95260885D01*
X102590600Y-95369742D01*
X102554314Y-95514885D01*
X102518028Y-95587457D01*
X102445457Y-95660028D01*
X102336600Y-95696314D01*
X102155171Y-95696314D01*
D14*
X101073857Y-60274200D02*
X100928714Y-60201628D01*
X100711000Y-60201628D01*
X100493285Y-60274200D01*
X100348142Y-60419342D01*
X100275571Y-60564485D01*
X100203000Y-60854771D01*
X100203000Y-61072485D01*
X100275571Y-61362771D01*
X100348142Y-61507914D01*
X100493285Y-61653057D01*
X100711000Y-61725628D01*
X100856142Y-61725628D01*
X101073857Y-61653057D01*
X101146428Y-61580485D01*
X101146428Y-61072485D01*
X100856142Y-61072485D01*
X101799571Y-61725628D02*
X101799571Y-60201628D01*
X102670428Y-61725628D01*
X102670428Y-60201628D01*
X103396142Y-61725628D02*
X103396142Y-60201628D01*
X103759000Y-60201628D01*
X103976714Y-60274200D01*
X104121857Y-60419342D01*
X104194428Y-60564485D01*
X104267000Y-60854771D01*
X104267000Y-61072485D01*
X104194428Y-61362771D01*
X104121857Y-61507914D01*
X103976714Y-61653057D01*
X103759000Y-61725628D01*
X103396142Y-61725628D01*
D15*
X92938600Y-94934314D02*
X93192600Y-95696314D01*
X93446600Y-94934314D01*
X94136028Y-95623742D02*
X94099742Y-95660028D01*
X93990885Y-95696314D01*
X93918314Y-95696314D01*
X93809457Y-95660028D01*
X93736885Y-95587457D01*
X93700600Y-95514885D01*
X93664314Y-95369742D01*
X93664314Y-95260885D01*
X93700600Y-95115742D01*
X93736885Y-95043171D01*
X93809457Y-94970600D01*
X93918314Y-94934314D01*
X93990885Y-94934314D01*
X94099742Y-94970600D01*
X94136028Y-95006885D01*
X94898028Y-95623742D02*
X94861742Y-95660028D01*
X94752885Y-95696314D01*
X94680314Y-95696314D01*
X94571457Y-95660028D01*
X94498885Y-95587457D01*
X94462600Y-95514885D01*
X94426314Y-95369742D01*
X94426314Y-95260885D01*
X94462600Y-95115742D01*
X94498885Y-95043171D01*
X94571457Y-94970600D01*
X94680314Y-94934314D01*
X94752885Y-94934314D01*
X94861742Y-94970600D01*
X94898028Y-95006885D01*
D14*
X96955428Y-60800342D02*
X97173142Y-60872914D01*
X97245714Y-60945485D01*
X97318285Y-61090628D01*
X97318285Y-61308342D01*
X97245714Y-61453485D01*
X97173142Y-61526057D01*
X97028000Y-61598628D01*
X96447428Y-61598628D01*
X96447428Y-60074628D01*
X96955428Y-60074628D01*
X97100571Y-60147200D01*
X97173142Y-60219771D01*
X97245714Y-60364914D01*
X97245714Y-60510057D01*
X97173142Y-60655200D01*
X97100571Y-60727771D01*
X96955428Y-60800342D01*
X96447428Y-60800342D01*
X97971428Y-61018057D02*
X99132571Y-61018057D01*
D10*
%TO.C,J10*%
X166068476Y-136485380D02*
X166068476Y-137199666D01*
X166020857Y-137342523D01*
X165925619Y-137437761D01*
X165782761Y-137485380D01*
X165687523Y-137485380D01*
X167068476Y-137485380D02*
X166497047Y-137485380D01*
X166782761Y-137485380D02*
X166782761Y-136485380D01*
X166687523Y-136628238D01*
X166592285Y-136723476D01*
X166497047Y-136771095D01*
X167687523Y-136485380D02*
X167782761Y-136485380D01*
X167878000Y-136533000D01*
X167925619Y-136580619D01*
X167973238Y-136675857D01*
X168020857Y-136866333D01*
X168020857Y-137104428D01*
X167973238Y-137294904D01*
X167925619Y-137390142D01*
X167878000Y-137437761D01*
X167782761Y-137485380D01*
X167687523Y-137485380D01*
X167592285Y-137437761D01*
X167544666Y-137390142D01*
X167497047Y-137294904D01*
X167449428Y-137104428D01*
X167449428Y-136866333D01*
X167497047Y-136675857D01*
X167544666Y-136580619D01*
X167592285Y-136533000D01*
X167687523Y-136485380D01*
%TO.C,U6*%
X136144095Y-121118380D02*
X136144095Y-121927904D01*
X136191714Y-122023142D01*
X136239333Y-122070761D01*
X136334571Y-122118380D01*
X136525047Y-122118380D01*
X136620285Y-122070761D01*
X136667904Y-122023142D01*
X136715523Y-121927904D01*
X136715523Y-121118380D01*
X137620285Y-121118380D02*
X137429809Y-121118380D01*
X137334571Y-121166000D01*
X137286952Y-121213619D01*
X137191714Y-121356476D01*
X137144095Y-121546952D01*
X137144095Y-121927904D01*
X137191714Y-122023142D01*
X137239333Y-122070761D01*
X137334571Y-122118380D01*
X137525047Y-122118380D01*
X137620285Y-122070761D01*
X137667904Y-122023142D01*
X137715523Y-121927904D01*
X137715523Y-121689809D01*
X137667904Y-121594571D01*
X137620285Y-121546952D01*
X137525047Y-121499333D01*
X137334571Y-121499333D01*
X137239333Y-121546952D01*
X137191714Y-121594571D01*
X137144095Y-121689809D01*
X158870952Y-127937380D02*
X158677428Y-127937380D01*
X158580666Y-127889000D01*
X158483904Y-127792238D01*
X158435523Y-127598714D01*
X158435523Y-127260047D01*
X158483904Y-127066523D01*
X158580666Y-126969761D01*
X158677428Y-126921380D01*
X158870952Y-126921380D01*
X158967714Y-126969761D01*
X159064476Y-127066523D01*
X159112857Y-127260047D01*
X159112857Y-127598714D01*
X159064476Y-127792238D01*
X158967714Y-127889000D01*
X158870952Y-127937380D01*
X158000095Y-127937380D02*
X158000095Y-127114904D01*
X157951714Y-127018142D01*
X157903333Y-126969761D01*
X157806571Y-126921380D01*
X157613047Y-126921380D01*
X157516285Y-126969761D01*
X157467904Y-127018142D01*
X157419523Y-127114904D01*
X157419523Y-127937380D01*
X157080857Y-127937380D02*
X156500285Y-127937380D01*
X156790571Y-126921380D02*
X156790571Y-127937380D01*
X156161619Y-127308428D02*
X155387523Y-127308428D01*
X158870952Y-117015380D02*
X158677428Y-117015380D01*
X158580666Y-116967000D01*
X158483904Y-116870238D01*
X158435523Y-116676714D01*
X158435523Y-116338047D01*
X158483904Y-116144523D01*
X158580666Y-116047761D01*
X158677428Y-115999380D01*
X158870952Y-115999380D01*
X158967714Y-116047761D01*
X159064476Y-116144523D01*
X159112857Y-116338047D01*
X159112857Y-116676714D01*
X159064476Y-116870238D01*
X158967714Y-116967000D01*
X158870952Y-117015380D01*
X158000095Y-117015380D02*
X158000095Y-116192904D01*
X157951714Y-116096142D01*
X157903333Y-116047761D01*
X157806571Y-115999380D01*
X157613047Y-115999380D01*
X157516285Y-116047761D01*
X157467904Y-116096142D01*
X157419523Y-116192904D01*
X157419523Y-117015380D01*
X157080857Y-117015380D02*
X156500285Y-117015380D01*
X156790571Y-115999380D02*
X156790571Y-117015380D01*
X156161619Y-116386428D02*
X155387523Y-116386428D01*
X155774571Y-115999380D02*
X155774571Y-116773476D01*
X119398142Y-127302380D02*
X119398142Y-128318380D01*
X118914333Y-127302380D02*
X118914333Y-128318380D01*
X118333761Y-127302380D01*
X118333761Y-128318380D01*
X117849952Y-127689428D02*
X117075857Y-127689428D01*
X119398142Y-115999380D02*
X119398142Y-117015380D01*
X118914333Y-115999380D02*
X118914333Y-117015380D01*
X118333761Y-115999380D01*
X118333761Y-117015380D01*
X117849952Y-116386428D02*
X117075857Y-116386428D01*
X117462904Y-115999380D02*
X117462904Y-116773476D01*
%TO.C,U4*%
X103714080Y-111886904D02*
X104523604Y-111886904D01*
X104618842Y-111839285D01*
X104666461Y-111791666D01*
X104714080Y-111696428D01*
X104714080Y-111505952D01*
X104666461Y-111410714D01*
X104618842Y-111363095D01*
X104523604Y-111315476D01*
X103714080Y-111315476D01*
X104047414Y-110410714D02*
X104714080Y-110410714D01*
X103666461Y-110648809D02*
X104380747Y-110886904D01*
X104380747Y-110267857D01*
X108068676Y-107027738D02*
X108371057Y-107027738D01*
X108371057Y-107662738D01*
X107947723Y-107662738D02*
X107736057Y-107027738D01*
X107524390Y-107662738D01*
X107373200Y-107662738D02*
X106980104Y-107662738D01*
X107191771Y-107420833D01*
X107101057Y-107420833D01*
X107040580Y-107390595D01*
X107010342Y-107360357D01*
X106980104Y-107299880D01*
X106980104Y-107148690D01*
X107010342Y-107088214D01*
X107040580Y-107057976D01*
X107101057Y-107027738D01*
X107282485Y-107027738D01*
X107342961Y-107057976D01*
X107373200Y-107088214D01*
X102350652Y-117086138D02*
X102350652Y-117721138D01*
X102350652Y-117418757D02*
X101987795Y-117418757D01*
X101987795Y-117086138D02*
X101987795Y-117721138D01*
X101776128Y-117721138D02*
X101564461Y-117086138D01*
X101352795Y-117721138D01*
X100808509Y-117086138D02*
X101171366Y-117086138D01*
X100989938Y-117086138D02*
X100989938Y-117721138D01*
X101050414Y-117630423D01*
X101110890Y-117569947D01*
X101171366Y-117539709D01*
X102350652Y-104487738D02*
X102350652Y-105122738D01*
X102350652Y-104820357D02*
X101987795Y-104820357D01*
X101987795Y-104487738D02*
X101987795Y-105122738D01*
X101776128Y-105122738D02*
X101564461Y-104487738D01*
X101352795Y-105122738D01*
X100868985Y-104911071D02*
X100868985Y-104487738D01*
X101020176Y-105152976D02*
X101171366Y-104699404D01*
X100778271Y-104699404D01*
X101976909Y-110121700D02*
X102037385Y-110151938D01*
X102128100Y-110151938D01*
X102218814Y-110121700D01*
X102279290Y-110061223D01*
X102309528Y-110000747D01*
X102339766Y-109879795D01*
X102339766Y-109789080D01*
X102309528Y-109668128D01*
X102279290Y-109607652D01*
X102218814Y-109547176D01*
X102128100Y-109516938D01*
X102067623Y-109516938D01*
X101976909Y-109547176D01*
X101946671Y-109577414D01*
X101946671Y-109789080D01*
X102067623Y-109789080D01*
X101674528Y-109516938D02*
X101674528Y-110151938D01*
X101311671Y-109516938D01*
X101311671Y-110151938D01*
X101009290Y-109516938D02*
X101009290Y-110151938D01*
X100858100Y-110151938D01*
X100767385Y-110121700D01*
X100706909Y-110061223D01*
X100676671Y-110000747D01*
X100646433Y-109879795D01*
X100646433Y-109789080D01*
X100676671Y-109668128D01*
X100706909Y-109607652D01*
X100767385Y-109547176D01*
X100858100Y-109516938D01*
X101009290Y-109516938D01*
X102353071Y-112006138D02*
X102353071Y-112641138D01*
X102353071Y-112338757D02*
X101990214Y-112338757D01*
X101990214Y-112006138D02*
X101990214Y-112641138D01*
X101778547Y-112641138D02*
X101566880Y-112006138D01*
X101355214Y-112641138D01*
X102350652Y-114546138D02*
X102350652Y-115181138D01*
X102350652Y-114878757D02*
X101987795Y-114878757D01*
X101987795Y-114546138D02*
X101987795Y-115181138D01*
X101776128Y-115181138D02*
X101564461Y-114546138D01*
X101352795Y-115181138D01*
X101171366Y-115120661D02*
X101141128Y-115150900D01*
X101080652Y-115181138D01*
X100929461Y-115181138D01*
X100868985Y-115150900D01*
X100838747Y-115120661D01*
X100808509Y-115060185D01*
X100808509Y-114999709D01*
X100838747Y-114908995D01*
X101201604Y-114546138D01*
X100808509Y-114546138D01*
X108068676Y-104436938D02*
X108371057Y-104436938D01*
X108371057Y-105071938D01*
X107947723Y-105071938D02*
X107736057Y-104436938D01*
X107524390Y-105071938D01*
X107040580Y-104860271D02*
X107040580Y-104436938D01*
X107191771Y-105102176D02*
X107342961Y-104648604D01*
X106949866Y-104648604D01*
X108068676Y-114596938D02*
X108371057Y-114596938D01*
X108371057Y-115231938D01*
X107947723Y-115231938D02*
X107736057Y-114596938D01*
X107524390Y-115231938D01*
X107342961Y-115171461D02*
X107312723Y-115201700D01*
X107252247Y-115231938D01*
X107101057Y-115231938D01*
X107040580Y-115201700D01*
X107010342Y-115171461D01*
X106980104Y-115110985D01*
X106980104Y-115050509D01*
X107010342Y-114959795D01*
X107373200Y-114596938D01*
X106980104Y-114596938D01*
X102350652Y-106976938D02*
X102350652Y-107611938D01*
X102350652Y-107309557D02*
X101987795Y-107309557D01*
X101987795Y-106976938D02*
X101987795Y-107611938D01*
X101776128Y-107611938D02*
X101564461Y-106976938D01*
X101352795Y-107611938D01*
X101201604Y-107611938D02*
X100808509Y-107611938D01*
X101020176Y-107370033D01*
X100929461Y-107370033D01*
X100868985Y-107339795D01*
X100838747Y-107309557D01*
X100808509Y-107249080D01*
X100808509Y-107097890D01*
X100838747Y-107037414D01*
X100868985Y-107007176D01*
X100929461Y-106976938D01*
X101110890Y-106976938D01*
X101171366Y-107007176D01*
X101201604Y-107037414D01*
X108072909Y-110121700D02*
X108133385Y-110151938D01*
X108224100Y-110151938D01*
X108314814Y-110121700D01*
X108375290Y-110061223D01*
X108405528Y-110000747D01*
X108435766Y-109879795D01*
X108435766Y-109789080D01*
X108405528Y-109668128D01*
X108375290Y-109607652D01*
X108314814Y-109547176D01*
X108224100Y-109516938D01*
X108163623Y-109516938D01*
X108072909Y-109547176D01*
X108042671Y-109577414D01*
X108042671Y-109789080D01*
X108163623Y-109789080D01*
X107770528Y-109516938D02*
X107770528Y-110151938D01*
X107407671Y-109516938D01*
X107407671Y-110151938D01*
X107105290Y-109516938D02*
X107105290Y-110151938D01*
X106954100Y-110151938D01*
X106863385Y-110121700D01*
X106802909Y-110061223D01*
X106772671Y-110000747D01*
X106742433Y-109879795D01*
X106742433Y-109789080D01*
X106772671Y-109668128D01*
X106802909Y-109607652D01*
X106863385Y-109547176D01*
X106954100Y-109516938D01*
X107105290Y-109516938D01*
X108068676Y-117086138D02*
X108371057Y-117086138D01*
X108371057Y-117721138D01*
X107947723Y-117721138D02*
X107736057Y-117086138D01*
X107524390Y-117721138D01*
X106980104Y-117086138D02*
X107342961Y-117086138D01*
X107161533Y-117086138D02*
X107161533Y-117721138D01*
X107222009Y-117630423D01*
X107282485Y-117569947D01*
X107342961Y-117539709D01*
X108071095Y-112056938D02*
X108373476Y-112056938D01*
X108373476Y-112691938D01*
X107950142Y-112691938D02*
X107738476Y-112056938D01*
X107526809Y-112691938D01*
%TO.C,J9*%
X147494065Y-42631393D02*
X147494065Y-43346967D01*
X147446360Y-43490081D01*
X147350950Y-43585491D01*
X147207836Y-43633196D01*
X147112426Y-43633196D01*
X148018819Y-43633196D02*
X148209639Y-43633196D01*
X148305049Y-43585491D01*
X148352753Y-43537786D01*
X148448163Y-43394672D01*
X148495868Y-43203852D01*
X148495868Y-42822213D01*
X148448163Y-42726803D01*
X148400458Y-42679098D01*
X148305049Y-42631393D01*
X148114229Y-42631393D01*
X148018819Y-42679098D01*
X147971114Y-42726803D01*
X147923409Y-42822213D01*
X147923409Y-43060737D01*
X147971114Y-43156147D01*
X148018819Y-43203852D01*
X148114229Y-43251557D01*
X148305049Y-43251557D01*
X148400458Y-43203852D01*
X148448163Y-43156147D01*
X148495868Y-43060737D01*
%TO.C,U3*%
X113588895Y-73628380D02*
X113588895Y-74437904D01*
X113636514Y-74533142D01*
X113684133Y-74580761D01*
X113779371Y-74628380D01*
X113969847Y-74628380D01*
X114065085Y-74580761D01*
X114112704Y-74533142D01*
X114160323Y-74437904D01*
X114160323Y-73628380D01*
X114541276Y-73628380D02*
X115160323Y-73628380D01*
X114826990Y-74009333D01*
X114969847Y-74009333D01*
X115065085Y-74056952D01*
X115112704Y-74104571D01*
X115160323Y-74199809D01*
X115160323Y-74437904D01*
X115112704Y-74533142D01*
X115065085Y-74580761D01*
X114969847Y-74628380D01*
X114684133Y-74628380D01*
X114588895Y-74580761D01*
X114541276Y-74533142D01*
D15*
X110007400Y-94934314D02*
X110261400Y-95696314D01*
X110515400Y-94934314D01*
X111204828Y-95623742D02*
X111168542Y-95660028D01*
X111059685Y-95696314D01*
X110987114Y-95696314D01*
X110878257Y-95660028D01*
X110805685Y-95587457D01*
X110769400Y-95514885D01*
X110733114Y-95369742D01*
X110733114Y-95260885D01*
X110769400Y-95115742D01*
X110805685Y-95043171D01*
X110878257Y-94970600D01*
X110987114Y-94934314D01*
X111059685Y-94934314D01*
X111168542Y-94970600D01*
X111204828Y-95006885D01*
X111966828Y-95623742D02*
X111930542Y-95660028D01*
X111821685Y-95696314D01*
X111749114Y-95696314D01*
X111640257Y-95660028D01*
X111567685Y-95587457D01*
X111531400Y-95514885D01*
X111495114Y-95369742D01*
X111495114Y-95260885D01*
X111531400Y-95115742D01*
X111567685Y-95043171D01*
X111640257Y-94970600D01*
X111749114Y-94934314D01*
X111821685Y-94934314D01*
X111930542Y-94970600D01*
X111966828Y-95006885D01*
D14*
X114024228Y-60800342D02*
X114241942Y-60872914D01*
X114314514Y-60945485D01*
X114387085Y-61090628D01*
X114387085Y-61308342D01*
X114314514Y-61453485D01*
X114241942Y-61526057D01*
X114096800Y-61598628D01*
X113516228Y-61598628D01*
X113516228Y-60074628D01*
X114024228Y-60074628D01*
X114169371Y-60147200D01*
X114241942Y-60219771D01*
X114314514Y-60364914D01*
X114314514Y-60510057D01*
X114241942Y-60655200D01*
X114169371Y-60727771D01*
X114024228Y-60800342D01*
X113516228Y-60800342D01*
X115040228Y-61018057D02*
X116201371Y-61018057D01*
D15*
X115595400Y-95696314D02*
X115341400Y-95333457D01*
X115159971Y-95696314D02*
X115159971Y-94934314D01*
X115450257Y-94934314D01*
X115522828Y-94970600D01*
X115559114Y-95006885D01*
X115595400Y-95079457D01*
X115595400Y-95188314D01*
X115559114Y-95260885D01*
X115522828Y-95297171D01*
X115450257Y-95333457D01*
X115159971Y-95333457D01*
X115849400Y-94934314D02*
X116357400Y-95696314D01*
X116357400Y-94934314D02*
X115849400Y-95696314D01*
X116647685Y-95696314D02*
X116647685Y-94934314D01*
X116829114Y-94934314D01*
X116937971Y-94970600D01*
X117010542Y-95043171D01*
X117046828Y-95115742D01*
X117083114Y-95260885D01*
X117083114Y-95369742D01*
X117046828Y-95514885D01*
X117010542Y-95587457D01*
X116937971Y-95660028D01*
X116829114Y-95696314D01*
X116647685Y-95696314D01*
D14*
X108396314Y-61036200D02*
X109122028Y-61036200D01*
X108251171Y-61471628D02*
X108759171Y-59947628D01*
X109267171Y-61471628D01*
X109775171Y-60891057D02*
X110936314Y-60891057D01*
X110355742Y-61471628D02*
X110355742Y-60310485D01*
X118142657Y-60274200D02*
X117997514Y-60201628D01*
X117779800Y-60201628D01*
X117562085Y-60274200D01*
X117416942Y-60419342D01*
X117344371Y-60564485D01*
X117271800Y-60854771D01*
X117271800Y-61072485D01*
X117344371Y-61362771D01*
X117416942Y-61507914D01*
X117562085Y-61653057D01*
X117779800Y-61725628D01*
X117924942Y-61725628D01*
X118142657Y-61653057D01*
X118215228Y-61580485D01*
X118215228Y-61072485D01*
X117924942Y-61072485D01*
X118868371Y-61725628D02*
X118868371Y-60201628D01*
X119739228Y-61725628D01*
X119739228Y-60201628D01*
X120464942Y-61725628D02*
X120464942Y-60201628D01*
X120827800Y-60201628D01*
X121045514Y-60274200D01*
X121190657Y-60419342D01*
X121263228Y-60564485D01*
X121335800Y-60854771D01*
X121335800Y-61072485D01*
X121263228Y-61362771D01*
X121190657Y-61507914D01*
X121045514Y-61653057D01*
X120827800Y-61725628D01*
X120464942Y-61725628D01*
D15*
X118062828Y-94970600D02*
X117990257Y-94934314D01*
X117881400Y-94934314D01*
X117772542Y-94970600D01*
X117699971Y-95043171D01*
X117663685Y-95115742D01*
X117627400Y-95260885D01*
X117627400Y-95369742D01*
X117663685Y-95514885D01*
X117699971Y-95587457D01*
X117772542Y-95660028D01*
X117881400Y-95696314D01*
X117953971Y-95696314D01*
X118062828Y-95660028D01*
X118099114Y-95623742D01*
X118099114Y-95369742D01*
X117953971Y-95369742D01*
X118425685Y-95696314D02*
X118425685Y-94934314D01*
X118861114Y-95696314D01*
X118861114Y-94934314D01*
X119223971Y-95696314D02*
X119223971Y-94934314D01*
X119405400Y-94934314D01*
X119514257Y-94970600D01*
X119586828Y-95043171D01*
X119623114Y-95115742D01*
X119659400Y-95260885D01*
X119659400Y-95369742D01*
X119623114Y-95514885D01*
X119586828Y-95587457D01*
X119514257Y-95660028D01*
X119405400Y-95696314D01*
X119223971Y-95696314D01*
X112601828Y-94934314D02*
X113037257Y-94934314D01*
X112819542Y-95696314D02*
X112819542Y-94934314D01*
X113218685Y-94934314D02*
X113726685Y-95696314D01*
X113726685Y-94934314D02*
X113218685Y-95696314D01*
X114016971Y-95696314D02*
X114016971Y-94934314D01*
X114198400Y-94934314D01*
X114307257Y-94970600D01*
X114379828Y-95043171D01*
X114416114Y-95115742D01*
X114452400Y-95260885D01*
X114452400Y-95369742D01*
X114416114Y-95514885D01*
X114379828Y-95587457D01*
X114307257Y-95660028D01*
X114198400Y-95696314D01*
X114016971Y-95696314D01*
D10*
%TO.C,C1*%
X153265142Y-107989666D02*
X153312761Y-108037285D01*
X153360380Y-108180142D01*
X153360380Y-108275380D01*
X153312761Y-108418238D01*
X153217523Y-108513476D01*
X153122285Y-108561095D01*
X152931809Y-108608714D01*
X152788952Y-108608714D01*
X152598476Y-108561095D01*
X152503238Y-108513476D01*
X152408000Y-108418238D01*
X152360380Y-108275380D01*
X152360380Y-108180142D01*
X152408000Y-108037285D01*
X152455619Y-107989666D01*
X153360380Y-107037285D02*
X153360380Y-107608714D01*
X153360380Y-107323000D02*
X152360380Y-107323000D01*
X152503238Y-107418238D01*
X152598476Y-107513476D01*
X152646095Y-107608714D01*
%TO.C,U11*%
X182149619Y-51593904D02*
X181340095Y-51593904D01*
X181244857Y-51641523D01*
X181197238Y-51689142D01*
X181149619Y-51784380D01*
X181149619Y-51974857D01*
X181197238Y-52070095D01*
X181244857Y-52117714D01*
X181340095Y-52165333D01*
X182149619Y-52165333D01*
X181149619Y-53165333D02*
X181149619Y-52593904D01*
X181149619Y-52879619D02*
X182149619Y-52879619D01*
X182006761Y-52784380D01*
X181911523Y-52689142D01*
X181863904Y-52593904D01*
X181149619Y-54117714D02*
X181149619Y-53546285D01*
X181149619Y-53832000D02*
X182149619Y-53832000D01*
X182006761Y-53736761D01*
X181911523Y-53641523D01*
X181863904Y-53546285D01*
X188507619Y-57086714D02*
X187507619Y-57420047D01*
X188507619Y-57753380D01*
X187507619Y-58086714D02*
X188507619Y-58086714D01*
X187507619Y-58562904D02*
X188507619Y-58562904D01*
X187507619Y-59134333D01*
X188507619Y-59134333D01*
X187888571Y-59610523D02*
X187888571Y-60372428D01*
X168846500Y-54761190D02*
X168876738Y-54700714D01*
X168876738Y-54610000D01*
X168846500Y-54519285D01*
X168786023Y-54458809D01*
X168725547Y-54428571D01*
X168604595Y-54398333D01*
X168513880Y-54398333D01*
X168392928Y-54428571D01*
X168332452Y-54458809D01*
X168271976Y-54519285D01*
X168241738Y-54610000D01*
X168241738Y-54670476D01*
X168271976Y-54761190D01*
X168302214Y-54791428D01*
X168513880Y-54791428D01*
X168513880Y-54670476D01*
X168241738Y-55063571D02*
X168876738Y-55063571D01*
X168241738Y-55426428D01*
X168876738Y-55426428D01*
X168241738Y-55728809D02*
X168876738Y-55728809D01*
X168876738Y-55880000D01*
X168846500Y-55970714D01*
X168786023Y-56031190D01*
X168725547Y-56061428D01*
X168604595Y-56091666D01*
X168513880Y-56091666D01*
X168392928Y-56061428D01*
X168332452Y-56031190D01*
X168271976Y-55970714D01*
X168241738Y-55880000D01*
X168241738Y-55728809D01*
X193714619Y-45243952D02*
X193714619Y-45434428D01*
X193667000Y-45529666D01*
X193571761Y-45624904D01*
X193381285Y-45672523D01*
X193047952Y-45672523D01*
X192857476Y-45624904D01*
X192762238Y-45529666D01*
X192714619Y-45434428D01*
X192714619Y-45243952D01*
X192762238Y-45148714D01*
X192857476Y-45053476D01*
X193047952Y-45005857D01*
X193381285Y-45005857D01*
X193571761Y-45053476D01*
X193667000Y-45148714D01*
X193714619Y-45243952D01*
X193714619Y-46101095D02*
X192905095Y-46101095D01*
X192809857Y-46148714D01*
X192762238Y-46196333D01*
X192714619Y-46291571D01*
X192714619Y-46482047D01*
X192762238Y-46577285D01*
X192809857Y-46624904D01*
X192905095Y-46672523D01*
X193714619Y-46672523D01*
X193714619Y-47005857D02*
X193714619Y-47577285D01*
X192714619Y-47291571D02*
X193714619Y-47291571D01*
X193095571Y-47910619D02*
X193095571Y-48672523D01*
X192714619Y-48291571D02*
X193476523Y-48291571D01*
X168876738Y-47821547D02*
X168876738Y-48184404D01*
X168241738Y-48002976D02*
X168876738Y-48002976D01*
X168241738Y-48758928D02*
X168544119Y-48547261D01*
X168241738Y-48396071D02*
X168876738Y-48396071D01*
X168876738Y-48637976D01*
X168846500Y-48698452D01*
X168816261Y-48728690D01*
X168755785Y-48758928D01*
X168665071Y-48758928D01*
X168604595Y-48728690D01*
X168574357Y-48698452D01*
X168544119Y-48637976D01*
X168544119Y-48396071D01*
X168241738Y-49031071D02*
X168876738Y-49031071D01*
X168846500Y-49666071D02*
X168876738Y-49605595D01*
X168876738Y-49514880D01*
X168846500Y-49424166D01*
X168786023Y-49363690D01*
X168725547Y-49333452D01*
X168604595Y-49303214D01*
X168513880Y-49303214D01*
X168392928Y-49333452D01*
X168332452Y-49363690D01*
X168271976Y-49424166D01*
X168241738Y-49514880D01*
X168241738Y-49575357D01*
X168271976Y-49666071D01*
X168302214Y-49696309D01*
X168513880Y-49696309D01*
X168513880Y-49575357D01*
X168906976Y-50422023D02*
X168090547Y-49877738D01*
X168241738Y-50633690D02*
X168876738Y-50633690D01*
X168876738Y-50875595D01*
X168846500Y-50936071D01*
X168816261Y-50966309D01*
X168755785Y-50996547D01*
X168665071Y-50996547D01*
X168604595Y-50966309D01*
X168574357Y-50936071D01*
X168544119Y-50875595D01*
X168544119Y-50633690D01*
X168876738Y-51208214D02*
X168241738Y-51359404D01*
X168695309Y-51480357D01*
X168241738Y-51601309D01*
X168876738Y-51752500D01*
X168241738Y-51994404D02*
X168876738Y-51994404D01*
X168423166Y-52206071D01*
X168876738Y-52417738D01*
X168241738Y-52417738D01*
X193714619Y-57086714D02*
X192714619Y-57420047D01*
X193714619Y-57753380D01*
X192714619Y-58086714D02*
X193714619Y-58086714D01*
X192714619Y-58562904D02*
X193714619Y-58562904D01*
X192714619Y-59134333D01*
X193714619Y-59134333D01*
X193095571Y-59610523D02*
X193095571Y-60372428D01*
X192714619Y-59991476D02*
X193476523Y-59991476D01*
X188507619Y-45243952D02*
X188507619Y-45434428D01*
X188460000Y-45529666D01*
X188364761Y-45624904D01*
X188174285Y-45672523D01*
X187840952Y-45672523D01*
X187650476Y-45624904D01*
X187555238Y-45529666D01*
X187507619Y-45434428D01*
X187507619Y-45243952D01*
X187555238Y-45148714D01*
X187650476Y-45053476D01*
X187840952Y-45005857D01*
X188174285Y-45005857D01*
X188364761Y-45053476D01*
X188460000Y-45148714D01*
X188507619Y-45243952D01*
X188507619Y-46101095D02*
X187698095Y-46101095D01*
X187602857Y-46148714D01*
X187555238Y-46196333D01*
X187507619Y-46291571D01*
X187507619Y-46482047D01*
X187555238Y-46577285D01*
X187602857Y-46624904D01*
X187698095Y-46672523D01*
X188507619Y-46672523D01*
X188507619Y-47005857D02*
X188507619Y-47577285D01*
X187507619Y-47291571D02*
X188507619Y-47291571D01*
X187888571Y-47910619D02*
X187888571Y-48672523D01*
%TO.C,U9*%
X182149619Y-99822095D02*
X181340095Y-99822095D01*
X181244857Y-99869714D01*
X181197238Y-99917333D01*
X181149619Y-100012571D01*
X181149619Y-100203047D01*
X181197238Y-100298285D01*
X181244857Y-100345904D01*
X181340095Y-100393523D01*
X182149619Y-100393523D01*
X181149619Y-100917333D02*
X181149619Y-101107809D01*
X181197238Y-101203047D01*
X181244857Y-101250666D01*
X181387714Y-101345904D01*
X181578190Y-101393523D01*
X181959142Y-101393523D01*
X182054380Y-101345904D01*
X182102000Y-101298285D01*
X182149619Y-101203047D01*
X182149619Y-101012571D01*
X182102000Y-100917333D01*
X182054380Y-100869714D01*
X181959142Y-100822095D01*
X181721047Y-100822095D01*
X181625809Y-100869714D01*
X181578190Y-100917333D01*
X181530571Y-101012571D01*
X181530571Y-101203047D01*
X181578190Y-101298285D01*
X181625809Y-101345904D01*
X181721047Y-101393523D01*
X168876738Y-95573547D02*
X168876738Y-95936404D01*
X168241738Y-95754976D02*
X168876738Y-95754976D01*
X168241738Y-96510928D02*
X168544119Y-96299261D01*
X168241738Y-96148071D02*
X168876738Y-96148071D01*
X168876738Y-96389976D01*
X168846500Y-96450452D01*
X168816261Y-96480690D01*
X168755785Y-96510928D01*
X168665071Y-96510928D01*
X168604595Y-96480690D01*
X168574357Y-96450452D01*
X168544119Y-96389976D01*
X168544119Y-96148071D01*
X168241738Y-96783071D02*
X168876738Y-96783071D01*
X168846500Y-97418071D02*
X168876738Y-97357595D01*
X168876738Y-97266880D01*
X168846500Y-97176166D01*
X168786023Y-97115690D01*
X168725547Y-97085452D01*
X168604595Y-97055214D01*
X168513880Y-97055214D01*
X168392928Y-97085452D01*
X168332452Y-97115690D01*
X168271976Y-97176166D01*
X168241738Y-97266880D01*
X168241738Y-97327357D01*
X168271976Y-97418071D01*
X168302214Y-97448309D01*
X168513880Y-97448309D01*
X168513880Y-97327357D01*
X168906976Y-98174023D02*
X168090547Y-97629738D01*
X168241738Y-98385690D02*
X168876738Y-98385690D01*
X168876738Y-98627595D01*
X168846500Y-98688071D01*
X168816261Y-98718309D01*
X168755785Y-98748547D01*
X168665071Y-98748547D01*
X168604595Y-98718309D01*
X168574357Y-98688071D01*
X168544119Y-98627595D01*
X168544119Y-98385690D01*
X168876738Y-98960214D02*
X168241738Y-99111404D01*
X168695309Y-99232357D01*
X168241738Y-99353309D01*
X168876738Y-99504500D01*
X168241738Y-99746404D02*
X168876738Y-99746404D01*
X168423166Y-99958071D01*
X168876738Y-100169738D01*
X168241738Y-100169738D01*
X188507619Y-92995952D02*
X188507619Y-93186428D01*
X188460000Y-93281666D01*
X188364761Y-93376904D01*
X188174285Y-93424523D01*
X187840952Y-93424523D01*
X187650476Y-93376904D01*
X187555238Y-93281666D01*
X187507619Y-93186428D01*
X187507619Y-92995952D01*
X187555238Y-92900714D01*
X187650476Y-92805476D01*
X187840952Y-92757857D01*
X188174285Y-92757857D01*
X188364761Y-92805476D01*
X188460000Y-92900714D01*
X188507619Y-92995952D01*
X188507619Y-93853095D02*
X187698095Y-93853095D01*
X187602857Y-93900714D01*
X187555238Y-93948333D01*
X187507619Y-94043571D01*
X187507619Y-94234047D01*
X187555238Y-94329285D01*
X187602857Y-94376904D01*
X187698095Y-94424523D01*
X188507619Y-94424523D01*
X188507619Y-94757857D02*
X188507619Y-95329285D01*
X187507619Y-95043571D02*
X188507619Y-95043571D01*
X187888571Y-95662619D02*
X187888571Y-96424523D01*
X193714619Y-92995952D02*
X193714619Y-93186428D01*
X193667000Y-93281666D01*
X193571761Y-93376904D01*
X193381285Y-93424523D01*
X193047952Y-93424523D01*
X192857476Y-93376904D01*
X192762238Y-93281666D01*
X192714619Y-93186428D01*
X192714619Y-92995952D01*
X192762238Y-92900714D01*
X192857476Y-92805476D01*
X193047952Y-92757857D01*
X193381285Y-92757857D01*
X193571761Y-92805476D01*
X193667000Y-92900714D01*
X193714619Y-92995952D01*
X193714619Y-93853095D02*
X192905095Y-93853095D01*
X192809857Y-93900714D01*
X192762238Y-93948333D01*
X192714619Y-94043571D01*
X192714619Y-94234047D01*
X192762238Y-94329285D01*
X192809857Y-94376904D01*
X192905095Y-94424523D01*
X193714619Y-94424523D01*
X193714619Y-94757857D02*
X193714619Y-95329285D01*
X192714619Y-95043571D02*
X193714619Y-95043571D01*
X193095571Y-95662619D02*
X193095571Y-96424523D01*
X192714619Y-96043571D02*
X193476523Y-96043571D01*
X193714619Y-104838714D02*
X192714619Y-105172047D01*
X193714619Y-105505380D01*
X192714619Y-105838714D02*
X193714619Y-105838714D01*
X192714619Y-106314904D02*
X193714619Y-106314904D01*
X192714619Y-106886333D01*
X193714619Y-106886333D01*
X193095571Y-107362523D02*
X193095571Y-108124428D01*
X192714619Y-107743476D02*
X193476523Y-107743476D01*
X168846500Y-102513190D02*
X168876738Y-102452714D01*
X168876738Y-102362000D01*
X168846500Y-102271285D01*
X168786023Y-102210809D01*
X168725547Y-102180571D01*
X168604595Y-102150333D01*
X168513880Y-102150333D01*
X168392928Y-102180571D01*
X168332452Y-102210809D01*
X168271976Y-102271285D01*
X168241738Y-102362000D01*
X168241738Y-102422476D01*
X168271976Y-102513190D01*
X168302214Y-102543428D01*
X168513880Y-102543428D01*
X168513880Y-102422476D01*
X168241738Y-102815571D02*
X168876738Y-102815571D01*
X168241738Y-103178428D01*
X168876738Y-103178428D01*
X168241738Y-103480809D02*
X168876738Y-103480809D01*
X168876738Y-103632000D01*
X168846500Y-103722714D01*
X168786023Y-103783190D01*
X168725547Y-103813428D01*
X168604595Y-103843666D01*
X168513880Y-103843666D01*
X168392928Y-103813428D01*
X168332452Y-103783190D01*
X168271976Y-103722714D01*
X168241738Y-103632000D01*
X168241738Y-103480809D01*
X188507619Y-104838714D02*
X187507619Y-105172047D01*
X188507619Y-105505380D01*
X187507619Y-105838714D02*
X188507619Y-105838714D01*
X187507619Y-106314904D02*
X188507619Y-106314904D01*
X187507619Y-106886333D01*
X188507619Y-106886333D01*
X187888571Y-107362523D02*
X187888571Y-108124428D01*
%TO.C,J6*%
X148002666Y-136485380D02*
X148002666Y-137199666D01*
X147955047Y-137342523D01*
X147859809Y-137437761D01*
X147716952Y-137485380D01*
X147621714Y-137485380D01*
X148907428Y-136485380D02*
X148716952Y-136485380D01*
X148621714Y-136533000D01*
X148574095Y-136580619D01*
X148478857Y-136723476D01*
X148431238Y-136913952D01*
X148431238Y-137294904D01*
X148478857Y-137390142D01*
X148526476Y-137437761D01*
X148621714Y-137485380D01*
X148812190Y-137485380D01*
X148907428Y-137437761D01*
X148955047Y-137390142D01*
X149002666Y-137294904D01*
X149002666Y-137056809D01*
X148955047Y-136961571D01*
X148907428Y-136913952D01*
X148812190Y-136866333D01*
X148621714Y-136866333D01*
X148526476Y-136913952D01*
X148478857Y-136961571D01*
X148431238Y-137056809D01*
%TO.C,U7*%
X136271095Y-103854380D02*
X136271095Y-104663904D01*
X136318714Y-104759142D01*
X136366333Y-104806761D01*
X136461571Y-104854380D01*
X136652047Y-104854380D01*
X136747285Y-104806761D01*
X136794904Y-104759142D01*
X136842523Y-104663904D01*
X136842523Y-103854380D01*
X137223476Y-103854380D02*
X137890142Y-103854380D01*
X137461571Y-104854380D01*
X147344190Y-109156500D02*
X147283714Y-109126261D01*
X147193000Y-109126261D01*
X147102285Y-109156500D01*
X147041809Y-109216976D01*
X147011571Y-109277452D01*
X146981333Y-109398404D01*
X146981333Y-109489119D01*
X147011571Y-109610071D01*
X147041809Y-109670547D01*
X147102285Y-109731023D01*
X147193000Y-109761261D01*
X147253476Y-109761261D01*
X147344190Y-109731023D01*
X147374428Y-109700785D01*
X147374428Y-109489119D01*
X147253476Y-109489119D01*
X147646571Y-109761261D02*
X147646571Y-109126261D01*
X148009428Y-109761261D01*
X148009428Y-109126261D01*
X148311809Y-109761261D02*
X148311809Y-109126261D01*
X148463000Y-109126261D01*
X148553714Y-109156500D01*
X148614190Y-109216976D01*
X148644428Y-109277452D01*
X148674666Y-109398404D01*
X148674666Y-109489119D01*
X148644428Y-109610071D01*
X148614190Y-109670547D01*
X148553714Y-109731023D01*
X148463000Y-109761261D01*
X148311809Y-109761261D01*
X125333880Y-101633261D02*
X125545547Y-102268261D01*
X125757214Y-101633261D01*
X125968880Y-102268261D02*
X125968880Y-101844928D01*
X125968880Y-101633261D02*
X125938642Y-101663500D01*
X125968880Y-101693738D01*
X125999119Y-101663500D01*
X125968880Y-101633261D01*
X125968880Y-101693738D01*
X126271261Y-101844928D02*
X126271261Y-102268261D01*
X126271261Y-101905404D02*
X126301500Y-101875166D01*
X126361976Y-101844928D01*
X126452690Y-101844928D01*
X126513166Y-101875166D01*
X126543404Y-101935642D01*
X126543404Y-102268261D01*
X146860380Y-101506261D02*
X147072047Y-102141261D01*
X147283714Y-101506261D01*
X147586095Y-102141261D02*
X147525619Y-102111023D01*
X147495380Y-102080785D01*
X147465142Y-102020309D01*
X147465142Y-101838880D01*
X147495380Y-101778404D01*
X147525619Y-101748166D01*
X147586095Y-101717928D01*
X147676809Y-101717928D01*
X147737285Y-101748166D01*
X147767523Y-101778404D01*
X147797761Y-101838880D01*
X147797761Y-102020309D01*
X147767523Y-102080785D01*
X147737285Y-102111023D01*
X147676809Y-102141261D01*
X147586095Y-102141261D01*
X148342047Y-101717928D02*
X148342047Y-102141261D01*
X148069904Y-101717928D02*
X148069904Y-102050547D01*
X148100142Y-102111023D01*
X148160619Y-102141261D01*
X148251333Y-102141261D01*
X148311809Y-102111023D01*
X148342047Y-102080785D01*
X148553714Y-101717928D02*
X148795619Y-101717928D01*
X148644428Y-101506261D02*
X148644428Y-102050547D01*
X148674666Y-102111023D01*
X148735142Y-102141261D01*
X148795619Y-102141261D01*
X125500190Y-109156500D02*
X125439714Y-109126261D01*
X125349000Y-109126261D01*
X125258285Y-109156500D01*
X125197809Y-109216976D01*
X125167571Y-109277452D01*
X125137333Y-109398404D01*
X125137333Y-109489119D01*
X125167571Y-109610071D01*
X125197809Y-109670547D01*
X125258285Y-109731023D01*
X125349000Y-109761261D01*
X125409476Y-109761261D01*
X125500190Y-109731023D01*
X125530428Y-109700785D01*
X125530428Y-109489119D01*
X125409476Y-109489119D01*
X125802571Y-109761261D02*
X125802571Y-109126261D01*
X126165428Y-109761261D01*
X126165428Y-109126261D01*
X126467809Y-109761261D02*
X126467809Y-109126261D01*
X126619000Y-109126261D01*
X126709714Y-109156500D01*
X126770190Y-109216976D01*
X126800428Y-109277452D01*
X126830666Y-109398404D01*
X126830666Y-109489119D01*
X126800428Y-109610071D01*
X126770190Y-109670547D01*
X126709714Y-109731023D01*
X126619000Y-109761261D01*
X126467809Y-109761261D01*
%TO.C,U1*%
X135342380Y-73151904D02*
X136151904Y-73151904D01*
X136247142Y-73104285D01*
X136294761Y-73056666D01*
X136342380Y-72961428D01*
X136342380Y-72770952D01*
X136294761Y-72675714D01*
X136247142Y-72628095D01*
X136151904Y-72580476D01*
X135342380Y-72580476D01*
X136342380Y-71580476D02*
X136342380Y-72151904D01*
X136342380Y-71866190D02*
X135342380Y-71866190D01*
X135485238Y-71961428D01*
X135580476Y-72056666D01*
X135628095Y-72151904D01*
%TO.C,J1*%
X111299666Y-51903380D02*
X111299666Y-52617666D01*
X111252047Y-52760523D01*
X111156809Y-52855761D01*
X111013952Y-52903380D01*
X110918714Y-52903380D01*
X112299666Y-52903380D02*
X111728238Y-52903380D01*
X112013952Y-52903380D02*
X112013952Y-51903380D01*
X111918714Y-52046238D01*
X111823476Y-52141476D01*
X111728238Y-52189095D01*
%TO.C,J8*%
X199131333Y-99018666D02*
X200131333Y-99018666D01*
X200331333Y-99085333D01*
X200464666Y-99218666D01*
X200531333Y-99418666D01*
X200531333Y-99552000D01*
X199731333Y-98152000D02*
X199664666Y-98285333D01*
X199598000Y-98352000D01*
X199464666Y-98418666D01*
X199398000Y-98418666D01*
X199264666Y-98352000D01*
X199198000Y-98285333D01*
X199131333Y-98152000D01*
X199131333Y-97885333D01*
X199198000Y-97752000D01*
X199264666Y-97685333D01*
X199398000Y-97618666D01*
X199464666Y-97618666D01*
X199598000Y-97685333D01*
X199664666Y-97752000D01*
X199731333Y-97885333D01*
X199731333Y-98152000D01*
X199798000Y-98285333D01*
X199864666Y-98352000D01*
X199998000Y-98418666D01*
X200264666Y-98418666D01*
X200398000Y-98352000D01*
X200464666Y-98285333D01*
X200531333Y-98152000D01*
X200531333Y-97885333D01*
X200464666Y-97752000D01*
X200398000Y-97685333D01*
X200264666Y-97618666D01*
X199998000Y-97618666D01*
X199864666Y-97685333D01*
X199798000Y-97752000D01*
X199731333Y-97885333D01*
%TO.C,U10*%
X182149619Y-123221904D02*
X181340095Y-123221904D01*
X181244857Y-123269523D01*
X181197238Y-123317142D01*
X181149619Y-123412380D01*
X181149619Y-123602857D01*
X181197238Y-123698095D01*
X181244857Y-123745714D01*
X181340095Y-123793333D01*
X182149619Y-123793333D01*
X181149619Y-124793333D02*
X181149619Y-124221904D01*
X181149619Y-124507619D02*
X182149619Y-124507619D01*
X182006761Y-124412380D01*
X181911523Y-124317142D01*
X181863904Y-124221904D01*
X182149619Y-125412380D02*
X182149619Y-125507619D01*
X182102000Y-125602857D01*
X182054380Y-125650476D01*
X181959142Y-125698095D01*
X181768666Y-125745714D01*
X181530571Y-125745714D01*
X181340095Y-125698095D01*
X181244857Y-125650476D01*
X181197238Y-125602857D01*
X181149619Y-125507619D01*
X181149619Y-125412380D01*
X181197238Y-125317142D01*
X181244857Y-125269523D01*
X181340095Y-125221904D01*
X181530571Y-125174285D01*
X181768666Y-125174285D01*
X181959142Y-125221904D01*
X182054380Y-125269523D01*
X182102000Y-125317142D01*
X182149619Y-125412380D01*
X193714619Y-128714714D02*
X192714619Y-129048047D01*
X193714619Y-129381380D01*
X192714619Y-129714714D02*
X193714619Y-129714714D01*
X192714619Y-130190904D02*
X193714619Y-130190904D01*
X192714619Y-130762333D01*
X193714619Y-130762333D01*
X193095571Y-131238523D02*
X193095571Y-132000428D01*
X192714619Y-131619476D02*
X193476523Y-131619476D01*
X168846500Y-126389190D02*
X168876738Y-126328714D01*
X168876738Y-126238000D01*
X168846500Y-126147285D01*
X168786023Y-126086809D01*
X168725547Y-126056571D01*
X168604595Y-126026333D01*
X168513880Y-126026333D01*
X168392928Y-126056571D01*
X168332452Y-126086809D01*
X168271976Y-126147285D01*
X168241738Y-126238000D01*
X168241738Y-126298476D01*
X168271976Y-126389190D01*
X168302214Y-126419428D01*
X168513880Y-126419428D01*
X168513880Y-126298476D01*
X168241738Y-126691571D02*
X168876738Y-126691571D01*
X168241738Y-127054428D01*
X168876738Y-127054428D01*
X168241738Y-127356809D02*
X168876738Y-127356809D01*
X168876738Y-127508000D01*
X168846500Y-127598714D01*
X168786023Y-127659190D01*
X168725547Y-127689428D01*
X168604595Y-127719666D01*
X168513880Y-127719666D01*
X168392928Y-127689428D01*
X168332452Y-127659190D01*
X168271976Y-127598714D01*
X168241738Y-127508000D01*
X168241738Y-127356809D01*
X188507619Y-128714714D02*
X187507619Y-129048047D01*
X188507619Y-129381380D01*
X187507619Y-129714714D02*
X188507619Y-129714714D01*
X187507619Y-130190904D02*
X188507619Y-130190904D01*
X187507619Y-130762333D01*
X188507619Y-130762333D01*
X187888571Y-131238523D02*
X187888571Y-132000428D01*
X168876738Y-119449547D02*
X168876738Y-119812404D01*
X168241738Y-119630976D02*
X168876738Y-119630976D01*
X168241738Y-120386928D02*
X168544119Y-120175261D01*
X168241738Y-120024071D02*
X168876738Y-120024071D01*
X168876738Y-120265976D01*
X168846500Y-120326452D01*
X168816261Y-120356690D01*
X168755785Y-120386928D01*
X168665071Y-120386928D01*
X168604595Y-120356690D01*
X168574357Y-120326452D01*
X168544119Y-120265976D01*
X168544119Y-120024071D01*
X168241738Y-120659071D02*
X168876738Y-120659071D01*
X168846500Y-121294071D02*
X168876738Y-121233595D01*
X168876738Y-121142880D01*
X168846500Y-121052166D01*
X168786023Y-120991690D01*
X168725547Y-120961452D01*
X168604595Y-120931214D01*
X168513880Y-120931214D01*
X168392928Y-120961452D01*
X168332452Y-120991690D01*
X168271976Y-121052166D01*
X168241738Y-121142880D01*
X168241738Y-121203357D01*
X168271976Y-121294071D01*
X168302214Y-121324309D01*
X168513880Y-121324309D01*
X168513880Y-121203357D01*
X168906976Y-122050023D02*
X168090547Y-121505738D01*
X168241738Y-122261690D02*
X168876738Y-122261690D01*
X168876738Y-122503595D01*
X168846500Y-122564071D01*
X168816261Y-122594309D01*
X168755785Y-122624547D01*
X168665071Y-122624547D01*
X168604595Y-122594309D01*
X168574357Y-122564071D01*
X168544119Y-122503595D01*
X168544119Y-122261690D01*
X168876738Y-122836214D02*
X168241738Y-122987404D01*
X168695309Y-123108357D01*
X168241738Y-123229309D01*
X168876738Y-123380500D01*
X168241738Y-123622404D02*
X168876738Y-123622404D01*
X168423166Y-123834071D01*
X168876738Y-124045738D01*
X168241738Y-124045738D01*
X188507619Y-116871952D02*
X188507619Y-117062428D01*
X188460000Y-117157666D01*
X188364761Y-117252904D01*
X188174285Y-117300523D01*
X187840952Y-117300523D01*
X187650476Y-117252904D01*
X187555238Y-117157666D01*
X187507619Y-117062428D01*
X187507619Y-116871952D01*
X187555238Y-116776714D01*
X187650476Y-116681476D01*
X187840952Y-116633857D01*
X188174285Y-116633857D01*
X188364761Y-116681476D01*
X188460000Y-116776714D01*
X188507619Y-116871952D01*
X188507619Y-117729095D02*
X187698095Y-117729095D01*
X187602857Y-117776714D01*
X187555238Y-117824333D01*
X187507619Y-117919571D01*
X187507619Y-118110047D01*
X187555238Y-118205285D01*
X187602857Y-118252904D01*
X187698095Y-118300523D01*
X188507619Y-118300523D01*
X188507619Y-118633857D02*
X188507619Y-119205285D01*
X187507619Y-118919571D02*
X188507619Y-118919571D01*
X187888571Y-119538619D02*
X187888571Y-120300523D01*
X193714619Y-116871952D02*
X193714619Y-117062428D01*
X193667000Y-117157666D01*
X193571761Y-117252904D01*
X193381285Y-117300523D01*
X193047952Y-117300523D01*
X192857476Y-117252904D01*
X192762238Y-117157666D01*
X192714619Y-117062428D01*
X192714619Y-116871952D01*
X192762238Y-116776714D01*
X192857476Y-116681476D01*
X193047952Y-116633857D01*
X193381285Y-116633857D01*
X193571761Y-116681476D01*
X193667000Y-116776714D01*
X193714619Y-116871952D01*
X193714619Y-117729095D02*
X192905095Y-117729095D01*
X192809857Y-117776714D01*
X192762238Y-117824333D01*
X192714619Y-117919571D01*
X192714619Y-118110047D01*
X192762238Y-118205285D01*
X192809857Y-118252904D01*
X192905095Y-118300523D01*
X193714619Y-118300523D01*
X193714619Y-118633857D02*
X193714619Y-119205285D01*
X192714619Y-118919571D02*
X193714619Y-118919571D01*
X193095571Y-119538619D02*
X193095571Y-120300523D01*
X192714619Y-119919571D02*
X193476523Y-119919571D01*
%TO.C,J4*%
X92670380Y-137239333D02*
X93384666Y-137239333D01*
X93527523Y-137286952D01*
X93622761Y-137382190D01*
X93670380Y-137525047D01*
X93670380Y-137620285D01*
X93003714Y-136334571D02*
X93670380Y-136334571D01*
X92622761Y-136572666D02*
X93337047Y-136810761D01*
X93337047Y-136191714D01*
D12*
%TO.C,U5*%
X98038700Y-138303000D02*
X111246700Y-138303000D01*
X111246700Y-138303000D02*
X111246700Y-122555000D01*
X111246700Y-122555000D02*
X98038700Y-122555000D01*
X98038700Y-122555000D02*
X98038700Y-138303000D01*
D17*
X113112700Y-136842500D02*
G75*
G03*
X113112700Y-136842500I-100000J0D01*
G01*
D18*
%TO.C,U8*%
X165354000Y-71120000D02*
X165354000Y-82042000D01*
X190627000Y-68326000D02*
X190627000Y-84836000D01*
X167767000Y-76581000D02*
X162687000Y-76581000D01*
X190627000Y-76644500D02*
X185547000Y-76644500D01*
X167767000Y-71120000D02*
X162687000Y-71120000D01*
X162687000Y-71120000D02*
X162687000Y-82042000D01*
X162687000Y-82042000D02*
X167767000Y-82042000D01*
X167767000Y-82042000D02*
X167767000Y-71120000D01*
X195707000Y-68326000D02*
X185547000Y-68326000D01*
X185547000Y-68326000D02*
X185547000Y-84836000D01*
X185547000Y-84836000D02*
X195707000Y-84836000D01*
X195707000Y-84836000D02*
X195707000Y-68326000D01*
X195707000Y-68326000D02*
X162687000Y-68326000D01*
X162687000Y-68326000D02*
X162687000Y-84836000D01*
X162687000Y-84836000D02*
X195707000Y-84836000D01*
X195707000Y-84836000D02*
X195707000Y-68326000D01*
D12*
%TO.C,J7*%
X197673000Y-64590000D02*
X197673000Y-42090000D01*
X197673000Y-42090000D02*
X202123000Y-42090000D01*
X202123000Y-42090000D02*
X202123000Y-64590000D01*
X202123000Y-64590000D02*
X197673000Y-64590000D01*
D17*
X196773000Y-62090000D02*
G75*
G03*
X196773000Y-62090000I-100000J0D01*
G01*
D12*
%TO.C,J5*%
X115942500Y-138201000D02*
X115942500Y-135865000D01*
X130878500Y-135865000D02*
X130878500Y-138201000D01*
X115942500Y-135865000D02*
X130878500Y-135865000D01*
X115942500Y-138201000D02*
X130878500Y-138201000D01*
D17*
X131628500Y-137033000D02*
G75*
G03*
X131628500Y-137033000I-100000J0D01*
G01*
D12*
%TO.C,J2*%
X90686400Y-53594400D02*
X90686400Y-47844400D01*
X98086400Y-47844400D02*
X98086400Y-53594400D01*
X90686400Y-47844400D02*
X98086400Y-47844400D01*
X98086400Y-53594400D02*
X90686400Y-53594400D01*
D17*
X93236400Y-47219400D02*
G75*
G03*
X93236400Y-47219400I-100000J0D01*
G01*
%TO.C,J3*%
X90778000Y-119336500D02*
G75*
G03*
X90778000Y-119336500I-100000J0D01*
G01*
D12*
X89510000Y-103750500D02*
X91846000Y-103750500D01*
X89510000Y-103750500D02*
X89510000Y-118686500D01*
X91846000Y-103750500D02*
X91846000Y-118686500D01*
X91846000Y-118686500D02*
X89510000Y-118686500D01*
D18*
%TO.C,U2*%
X95656400Y-99161600D02*
X94792800Y-99161600D01*
X98196400Y-99161600D02*
X97332800Y-99161600D01*
X93522800Y-55981600D02*
X95656400Y-55981600D01*
X103695500Y-55981600D02*
X104736900Y-55981600D01*
X98602800Y-55981600D02*
X100736400Y-55981600D01*
X89509600Y-55981600D02*
X89509600Y-99161600D01*
X100736400Y-99161600D02*
X99872800Y-99161600D01*
X104736900Y-55981600D02*
X104749600Y-99136200D01*
X93116400Y-99161600D02*
X89509600Y-99161600D01*
X104749600Y-99161600D02*
X102412800Y-99161600D01*
X89509600Y-55981600D02*
X90551000Y-55981600D01*
D12*
%TO.C,J10*%
X149597500Y-138201000D02*
X164533500Y-138201000D01*
X164533500Y-135865000D02*
X164533500Y-138201000D01*
X149597500Y-138201000D02*
X149597500Y-135865000D01*
X149597500Y-135865000D02*
X164533500Y-135865000D01*
D17*
X165283500Y-137033000D02*
G75*
G03*
X165283500Y-137033000I-100000J0D01*
G01*
D18*
%TO.C,U6*%
X159639000Y-132334000D02*
X116459000Y-132334000D01*
X116459000Y-132334000D02*
X116459000Y-112014000D01*
X116459000Y-112014000D02*
X159639000Y-112014000D01*
X159639000Y-112014000D02*
X159639000Y-132334000D01*
D12*
%TO.C,U4*%
X98038700Y-103124000D02*
X98038700Y-118872000D01*
X111246700Y-103124000D02*
X98038700Y-103124000D01*
X98038700Y-118872000D02*
X111246700Y-118872000D01*
X111246700Y-118872000D02*
X111246700Y-103124000D01*
D17*
X113112700Y-117411500D02*
G75*
G03*
X113112700Y-117411500I-100000J0D01*
G01*
D12*
%TO.C,J9*%
X162096000Y-40830000D02*
X149696000Y-40830000D01*
X149696000Y-46580000D02*
X162096000Y-46580000D01*
X162096000Y-46580000D02*
X162096000Y-40830000D01*
X149696000Y-40830000D02*
X149696000Y-46580000D01*
D17*
X149186000Y-43180000D02*
G75*
G03*
X149186000Y-43180000I-100000J0D01*
G01*
D18*
%TO.C,U3*%
X106578400Y-55981600D02*
X107619800Y-55981600D01*
X121805700Y-55981600D02*
X121818400Y-99136200D01*
X110591600Y-55981600D02*
X112725200Y-55981600D01*
X117805200Y-99161600D02*
X116941600Y-99161600D01*
X115265200Y-99161600D02*
X114401600Y-99161600D01*
X110185200Y-99161600D02*
X106578400Y-99161600D01*
X112725200Y-99161600D02*
X111861600Y-99161600D01*
X121818400Y-99161600D02*
X119481600Y-99161600D01*
X115671600Y-55981600D02*
X117805200Y-55981600D01*
X120764300Y-55981600D02*
X121805700Y-55981600D01*
X106578400Y-55981600D02*
X106578400Y-99161600D01*
%TO.C,C1*%
X151588000Y-104152000D02*
X154154000Y-104152000D01*
X151305000Y-104832000D02*
X154154000Y-104832000D01*
X151317000Y-104792000D02*
X154154000Y-104792000D01*
X153160000Y-102512000D02*
X157228000Y-102512000D01*
X152410000Y-103072000D02*
X157978000Y-103072000D01*
X151237000Y-105072000D02*
X154154000Y-105072000D01*
X153549000Y-102312000D02*
X156839000Y-102312000D01*
X151115000Y-105953000D02*
X159273000Y-105953000D01*
X152879000Y-110482698D02*
X152879000Y-109682698D01*
X154246000Y-102072000D02*
X156142000Y-102072000D01*
X156234000Y-103752000D02*
X158559000Y-103752000D01*
X156234000Y-103432000D02*
X158318000Y-103432000D01*
X151750000Y-103872000D02*
X154154000Y-103872000D01*
X152907000Y-102672000D02*
X157481000Y-102672000D01*
X151170000Y-105393000D02*
X159218000Y-105393000D01*
X156234000Y-104472000D02*
X158951000Y-104472000D01*
X151114000Y-106073000D02*
X159274000Y-106073000D01*
X156234000Y-104072000D02*
X158756000Y-104072000D01*
X153028000Y-102592000D02*
X157360000Y-102592000D01*
X156234000Y-104432000D02*
X158934000Y-104432000D01*
X156234000Y-103952000D02*
X158687000Y-103952000D01*
X151292000Y-104872000D02*
X154154000Y-104872000D01*
X156234000Y-104952000D02*
X159119000Y-104952000D01*
X152543000Y-102952000D02*
X157845000Y-102952000D01*
X151157000Y-105473000D02*
X159231000Y-105473000D01*
X153848000Y-102192000D02*
X156540000Y-102192000D01*
X151802000Y-103792000D02*
X154154000Y-103792000D01*
X151269000Y-104952000D02*
X154154000Y-104952000D01*
X151420000Y-104512000D02*
X154154000Y-104512000D01*
X156234000Y-104312000D02*
X158880000Y-104312000D01*
X156234000Y-104112000D02*
X158778000Y-104112000D01*
X156234000Y-104872000D02*
X159096000Y-104872000D01*
X152966000Y-102632000D02*
X157422000Y-102632000D01*
X152038000Y-103472000D02*
X154154000Y-103472000D01*
X151610000Y-104112000D02*
X154154000Y-104112000D01*
X151114000Y-105993000D02*
X159274000Y-105993000D01*
X156234000Y-104592000D02*
X158999000Y-104592000D01*
X156234000Y-104192000D02*
X158821000Y-104192000D01*
X156234000Y-104272000D02*
X158860000Y-104272000D01*
X151389000Y-104592000D02*
X154154000Y-104592000D01*
X152249000Y-103232000D02*
X158139000Y-103232000D01*
X151184000Y-105312000D02*
X154154000Y-105312000D01*
X153381000Y-102392000D02*
X157007000Y-102392000D01*
X152070000Y-103432000D02*
X154154000Y-103432000D01*
X151856000Y-103712000D02*
X154154000Y-103712000D01*
X156234000Y-104152000D02*
X158800000Y-104152000D01*
X151567000Y-104192000D02*
X154154000Y-104192000D01*
X156234000Y-104632000D02*
X159015000Y-104632000D01*
X151123000Y-105793000D02*
X159265000Y-105793000D01*
X151829000Y-103752000D02*
X154154000Y-103752000D01*
X151126000Y-105753000D02*
X159262000Y-105753000D01*
X156234000Y-104992000D02*
X159130000Y-104992000D01*
X151146000Y-105553000D02*
X159242000Y-105553000D01*
X156234000Y-103512000D02*
X158383000Y-103512000D01*
X156234000Y-104792000D02*
X159071000Y-104792000D01*
X156234000Y-103312000D02*
X158213000Y-103312000D01*
X151164000Y-105433000D02*
X159224000Y-105433000D01*
X153230000Y-102472000D02*
X157158000Y-102472000D01*
X151373000Y-104632000D02*
X154154000Y-104632000D01*
X152453000Y-103032000D02*
X157935000Y-103032000D01*
X156234000Y-105352000D02*
X159211000Y-105352000D01*
X151508000Y-104312000D02*
X154154000Y-104312000D01*
X154661000Y-101992000D02*
X155727000Y-101992000D01*
X156234000Y-104672000D02*
X159029000Y-104672000D01*
X151142000Y-105593000D02*
X159246000Y-105593000D01*
X151120000Y-105833000D02*
X159268000Y-105833000D01*
X156234000Y-105112000D02*
X159161000Y-105112000D01*
X156234000Y-103992000D02*
X158711000Y-103992000D01*
X156234000Y-105192000D02*
X159179000Y-105192000D01*
X151974000Y-103552000D02*
X154154000Y-103552000D01*
X156234000Y-104832000D02*
X159083000Y-104832000D01*
X153304000Y-102432000D02*
X157084000Y-102432000D01*
X152479000Y-110082698D02*
X153279000Y-110082698D01*
X153463000Y-102352000D02*
X156925000Y-102352000D01*
X151114000Y-106033000D02*
X159274000Y-106033000D01*
X151200000Y-105232000D02*
X154154000Y-105232000D01*
X151258000Y-104992000D02*
X154154000Y-104992000D01*
X151914000Y-103632000D02*
X154154000Y-103632000D01*
X151725000Y-103912000D02*
X154154000Y-103912000D01*
X151344000Y-104712000D02*
X154154000Y-104712000D01*
X156234000Y-103472000D02*
X158350000Y-103472000D01*
X151472000Y-104392000D02*
X154154000Y-104392000D01*
X152794000Y-102752000D02*
X157594000Y-102752000D01*
X156234000Y-103912000D02*
X158663000Y-103912000D01*
X152327000Y-103152000D02*
X158061000Y-103152000D01*
X151192000Y-105272000D02*
X154154000Y-105272000D01*
X151227000Y-105112000D02*
X154154000Y-105112000D01*
X153741000Y-102232000D02*
X156647000Y-102232000D01*
X151118000Y-105873000D02*
X159270000Y-105873000D01*
X156234000Y-104352000D02*
X158898000Y-104352000D01*
X156234000Y-105272000D02*
X159196000Y-105272000D01*
X156234000Y-103672000D02*
X158503000Y-103672000D01*
X153092000Y-102552000D02*
X157296000Y-102552000D01*
X152005000Y-103512000D02*
X154154000Y-103512000D01*
X156234000Y-104912000D02*
X159108000Y-104912000D01*
X152104000Y-103392000D02*
X154154000Y-103392000D01*
X151701000Y-103952000D02*
X154154000Y-103952000D01*
X151247000Y-105032000D02*
X154154000Y-105032000D01*
X151437000Y-104472000D02*
X154154000Y-104472000D01*
X156234000Y-103632000D02*
X158474000Y-103632000D01*
X156234000Y-103392000D02*
X158284000Y-103392000D01*
X154096000Y-102112000D02*
X156292000Y-102112000D01*
X151677000Y-103992000D02*
X154154000Y-103992000D01*
X156234000Y-105232000D02*
X159188000Y-105232000D01*
X156234000Y-104392000D02*
X158916000Y-104392000D01*
X151885000Y-103672000D02*
X154154000Y-103672000D01*
X152287000Y-103192000D02*
X158101000Y-103192000D01*
X151133000Y-105673000D02*
X159255000Y-105673000D01*
X156234000Y-103832000D02*
X158612000Y-103832000D01*
X156234000Y-104552000D02*
X158984000Y-104552000D01*
X152211000Y-103272000D02*
X158177000Y-103272000D01*
X152497000Y-102992000D02*
X157891000Y-102992000D01*
X151547000Y-104232000D02*
X154154000Y-104232000D01*
X152740000Y-102792000D02*
X157648000Y-102792000D01*
X152849000Y-102712000D02*
X157539000Y-102712000D01*
X156234000Y-103712000D02*
X158532000Y-103712000D01*
X151331000Y-104752000D02*
X154154000Y-104752000D01*
X152689000Y-102832000D02*
X157699000Y-102832000D01*
X156234000Y-105032000D02*
X159141000Y-105032000D01*
X152638000Y-102872000D02*
X157750000Y-102872000D01*
X156234000Y-104712000D02*
X159044000Y-104712000D01*
X151152000Y-105513000D02*
X159236000Y-105513000D01*
X151137000Y-105633000D02*
X159251000Y-105633000D01*
X151404000Y-104552000D02*
X154154000Y-104552000D01*
X151129000Y-105713000D02*
X159259000Y-105713000D01*
X156234000Y-103872000D02*
X158638000Y-103872000D01*
X156234000Y-103792000D02*
X158586000Y-103792000D01*
X151944000Y-103592000D02*
X154154000Y-103592000D01*
X151490000Y-104352000D02*
X154154000Y-104352000D01*
X151454000Y-104432000D02*
X154154000Y-104432000D01*
X152175000Y-103312000D02*
X154154000Y-103312000D01*
X156234000Y-105072000D02*
X159151000Y-105072000D01*
X151209000Y-105192000D02*
X154154000Y-105192000D01*
X156234000Y-103352000D02*
X158249000Y-103352000D01*
X156234000Y-104032000D02*
X158734000Y-104032000D01*
X154426000Y-102032000D02*
X155962000Y-102032000D01*
X152139000Y-103352000D02*
X154154000Y-103352000D01*
X152368000Y-103112000D02*
X158020000Y-103112000D01*
X151359000Y-104672000D02*
X154154000Y-104672000D01*
X151654000Y-104032000D02*
X154154000Y-104032000D01*
X151776000Y-103832000D02*
X154154000Y-103832000D01*
X151528000Y-104272000D02*
X154154000Y-104272000D01*
X156234000Y-104232000D02*
X158841000Y-104232000D01*
X156234000Y-105312000D02*
X159204000Y-105312000D01*
X152590000Y-102912000D02*
X157798000Y-102912000D01*
X153642000Y-102272000D02*
X156746000Y-102272000D01*
X156234000Y-103552000D02*
X158414000Y-103552000D01*
X156234000Y-105152000D02*
X159170000Y-105152000D01*
X151218000Y-105152000D02*
X154154000Y-105152000D01*
X151117000Y-105913000D02*
X159271000Y-105913000D01*
X156234000Y-103592000D02*
X158444000Y-103592000D01*
X151280000Y-104912000D02*
X154154000Y-104912000D01*
X151177000Y-105352000D02*
X154154000Y-105352000D01*
X156234000Y-104512000D02*
X158968000Y-104512000D01*
X153965000Y-102152000D02*
X156423000Y-102152000D01*
X151632000Y-104072000D02*
X154154000Y-104072000D01*
X156234000Y-104752000D02*
X159057000Y-104752000D01*
X159314000Y-106073000D02*
G75*
G03*
X159314000Y-106073000I-4120000J0D01*
G01*
%TO.C,U11*%
X190627000Y-44450000D02*
X190627000Y-60960000D01*
X167767000Y-52705000D02*
X162687000Y-52705000D01*
X190627000Y-52768500D02*
X185547000Y-52768500D01*
X165354000Y-47244000D02*
X165354000Y-58166000D01*
X167767000Y-47244000D02*
X162687000Y-47244000D01*
X162687000Y-47244000D02*
X162687000Y-58166000D01*
X162687000Y-58166000D02*
X167767000Y-58166000D01*
X167767000Y-58166000D02*
X167767000Y-47244000D01*
X195707000Y-44450000D02*
X185547000Y-44450000D01*
X185547000Y-44450000D02*
X185547000Y-60960000D01*
X185547000Y-60960000D02*
X195707000Y-60960000D01*
X195707000Y-60960000D02*
X195707000Y-44450000D01*
X195707000Y-44450000D02*
X162687000Y-44450000D01*
X162687000Y-44450000D02*
X162687000Y-60960000D01*
X162687000Y-60960000D02*
X195707000Y-60960000D01*
X195707000Y-60960000D02*
X195707000Y-44450000D01*
%TO.C,U9*%
X190627000Y-100520500D02*
X185547000Y-100520500D01*
X190627000Y-92202000D02*
X190627000Y-108712000D01*
X165354000Y-94996000D02*
X165354000Y-105918000D01*
X167767000Y-100457000D02*
X162687000Y-100457000D01*
X195707000Y-92202000D02*
X185547000Y-92202000D01*
X185547000Y-92202000D02*
X185547000Y-108712000D01*
X185547000Y-108712000D02*
X195707000Y-108712000D01*
X195707000Y-108712000D02*
X195707000Y-92202000D01*
X167767000Y-94996000D02*
X162687000Y-94996000D01*
X162687000Y-94996000D02*
X162687000Y-105918000D01*
X162687000Y-105918000D02*
X167767000Y-105918000D01*
X167767000Y-105918000D02*
X167767000Y-94996000D01*
X195707000Y-92202000D02*
X162687000Y-92202000D01*
X162687000Y-92202000D02*
X162687000Y-108712000D01*
X162687000Y-108712000D02*
X195707000Y-108712000D01*
X195707000Y-108712000D02*
X195707000Y-92202000D01*
D12*
%TO.C,J6*%
X131851000Y-138201000D02*
X146787000Y-138201000D01*
X146787000Y-135865000D02*
X146787000Y-138201000D01*
X131851000Y-135865000D02*
X146787000Y-135865000D01*
X131851000Y-138201000D02*
X131851000Y-135865000D01*
D17*
X147537000Y-137033000D02*
G75*
G03*
X147537000Y-137033000I-100000J0D01*
G01*
D18*
%TO.C,U7*%
X124714000Y-105664000D02*
X127254000Y-105664000D01*
X149098000Y-105664000D02*
X146558000Y-105664000D01*
X124206000Y-110744000D02*
X149606000Y-110744000D01*
X149606000Y-110744000D02*
X149606000Y-100584000D01*
X149606000Y-100584000D02*
X124206000Y-100584000D01*
X124206000Y-100584000D02*
X124206000Y-110744000D01*
X124714000Y-108204000D02*
X127254000Y-108204000D01*
X127254000Y-108204000D02*
X127254000Y-103124000D01*
X127254000Y-103124000D02*
X124714000Y-103124000D01*
X124714000Y-103124000D02*
X124714000Y-108204000D01*
X146558000Y-108204000D02*
X149098000Y-108204000D01*
X149098000Y-108204000D02*
X149098000Y-103124000D01*
X149098000Y-103124000D02*
X146558000Y-103124000D01*
X146558000Y-103124000D02*
X146558000Y-108204000D01*
%TO.C,U1*%
X144593000Y-47498000D02*
X147253000Y-47498000D01*
X126786000Y-47498000D02*
X129446000Y-47498000D01*
X129446000Y-47498000D02*
X129446000Y-98346000D01*
X144593000Y-47498000D02*
X144593000Y-98346000D01*
X126786000Y-47498000D02*
X126786000Y-98346000D01*
X144593000Y-98346000D02*
X147253000Y-98346000D01*
X147253000Y-47498000D02*
X147253000Y-98346000D01*
X126786000Y-98346000D02*
X129446000Y-98346000D01*
X132406000Y-46898000D02*
X141406000Y-46898000D01*
X141406000Y-46898000D02*
X141406000Y-54898000D01*
X141406000Y-54898000D02*
X132406000Y-54898000D01*
X132406000Y-54898000D02*
X132406000Y-46898000D01*
X134620000Y-93091000D02*
X135890000Y-93091000D01*
X135890000Y-93091000D02*
X135890000Y-90932000D01*
X135890000Y-90932000D02*
X134620000Y-90932000D01*
X134620000Y-90932000D02*
X134620000Y-93091000D01*
X135636000Y-61087000D02*
X131572000Y-61087000D01*
X131572000Y-61087000D02*
X131572000Y-64135000D01*
X131572000Y-64135000D02*
X135636000Y-64135000D01*
X135636000Y-64135000D02*
X135636000Y-61087000D01*
X125892000Y-46398000D02*
X148082000Y-46398000D01*
X148082000Y-46398000D02*
X148082000Y-99398000D01*
X148082000Y-99398000D02*
X125892000Y-99398000D01*
X125892000Y-99398000D02*
X125892000Y-46398000D01*
X141859000Y-61087000D02*
X137795000Y-61087000D01*
X137795000Y-61087000D02*
X137795000Y-64135000D01*
X137795000Y-64135000D02*
X141859000Y-64135000D01*
X141859000Y-64135000D02*
X141859000Y-61087000D01*
X141986000Y-92583000D02*
X138938000Y-92583000D01*
X138938000Y-92583000D02*
X138938000Y-88646000D01*
X138938000Y-88646000D02*
X141986000Y-88646000D01*
X141986000Y-88646000D02*
X141986000Y-92583000D01*
X131318000Y-93091000D02*
X132588000Y-93091000D01*
X132588000Y-93091000D02*
X132588000Y-90932000D01*
X132588000Y-90932000D02*
X131318000Y-90932000D01*
X131318000Y-90932000D02*
X131318000Y-93091000D01*
D12*
%TO.C,J1*%
X115333000Y-53696000D02*
X107933000Y-53696000D01*
X107933000Y-47946000D02*
X115333000Y-47946000D01*
X107933000Y-53696000D02*
X107933000Y-47946000D01*
X115333000Y-47946000D02*
X115333000Y-53696000D01*
D17*
X110483000Y-47321000D02*
G75*
G03*
X110483000Y-47321000I-100000J0D01*
G01*
D12*
%TO.C,J8*%
X202123000Y-74475000D02*
X202123000Y-96975000D01*
X197673000Y-74475000D02*
X202123000Y-74475000D01*
X202123000Y-96975000D02*
X197673000Y-96975000D01*
X197673000Y-96975000D02*
X197673000Y-74475000D01*
D17*
X196773000Y-94475000D02*
G75*
G03*
X196773000Y-94475000I-100000J0D01*
G01*
D18*
%TO.C,U10*%
X165354000Y-118872000D02*
X165354000Y-129794000D01*
X167767000Y-124333000D02*
X162687000Y-124333000D01*
X190627000Y-116078000D02*
X190627000Y-132588000D01*
X190627000Y-124396500D02*
X185547000Y-124396500D01*
X195707000Y-116078000D02*
X185547000Y-116078000D01*
X185547000Y-116078000D02*
X185547000Y-132588000D01*
X185547000Y-132588000D02*
X195707000Y-132588000D01*
X195707000Y-132588000D02*
X195707000Y-116078000D01*
X167767000Y-118872000D02*
X162687000Y-118872000D01*
X162687000Y-118872000D02*
X162687000Y-129794000D01*
X162687000Y-129794000D02*
X167767000Y-129794000D01*
X167767000Y-129794000D02*
X167767000Y-118872000D01*
X195707000Y-116078000D02*
X162687000Y-116078000D01*
X162687000Y-116078000D02*
X162687000Y-132588000D01*
X162687000Y-132588000D02*
X195707000Y-132588000D01*
X195707000Y-132588000D02*
X195707000Y-116078000D01*
D12*
%TO.C,J4*%
X91846000Y-123054500D02*
X91846000Y-137990500D01*
X89510000Y-123054500D02*
X89510000Y-137990500D01*
X89510000Y-123054500D02*
X91846000Y-123054500D01*
X91846000Y-137990500D02*
X89510000Y-137990500D01*
D17*
X90778000Y-138640500D02*
G75*
G03*
X90778000Y-138640500I-100000J0D01*
G01*
%TD*%
M02*
