M48
; DRILL file {KiCad (6.0.6)} date Tue Sep 13 11:19:59 2022
; FORMAT={-:-/ absolute / inch / decimal}
; #@! TF.CreationDate,2022-09-13T11:19:59+07:00
; #@! TF.GenerationSoftware,Kicad,Pcbnew,(6.0.6)
; #@! TF.FileFunction,Plated,1,2,PTH
FMAT,2
INCH
; #@! TA.AperFunction,Plated,PTH,ViaDrill
T1C0.0100
; #@! TA.AperFunction,Plated,PTH,ViaDrill
T2C0.0200
; #@! TA.AperFunction,Plated,PTH,ViaDrill
T3C0.0300
; #@! TA.AperFunction,Plated,PTH,ComponentDrill
T4C0.0315
; #@! TA.AperFunction,Plated,PTH,ComponentDrill
T5C0.0374
; #@! TA.AperFunction,Plated,PTH,ComponentDrill
T6C0.0394
; #@! TA.AperFunction,Plated,PTH,ComponentDrill
T7C0.0400
; #@! TA.AperFunction,Plated,PTH,ComponentDrill
T8C0.0402
; #@! TA.AperFunction,Plated,PTH,ComponentDrill
T9C0.0417
; #@! TA.AperFunction,Plated,PTH,ViaDrill
T10C0.0450
; #@! TA.AperFunction,Plated,PTH,ComponentDrill
T11C0.0600
%
G90
G05
T1
X4.902Y-3.808
X4.942Y-3.808
X5.5656Y-4.15
X5.596Y-4.15
X5.849Y-2.477
X5.918Y-3.904
X5.918Y-4.06
X5.955Y-3.904
X5.955Y-4.06
X6.171Y-3.265
X6.171Y-3.897
X6.2Y-3.265
X6.2Y-3.897
X6.385Y-4.273
X6.385Y-4.59
X6.421Y-4.247
X6.421Y-4.6
T2
X4.005Y-4.105
X4.07Y-4.04
X4.135Y-3.22
X4.185Y-3.32
X4.235Y-3.42
X4.28Y-3.52
X4.76Y-3.71
X4.82Y-3.71
X6.47Y-3.42
X6.47Y-3.52
X6.47Y-3.62
X6.47Y-3.72
T3
X4.16Y-4.675
X4.305Y-4.77
X4.505Y-4.7
X4.51Y-4.225
X4.515Y-4.8
X4.745Y-4.165
X5.54Y-2.225
T4
X6.11Y-4.1072
X6.11Y-4.245
T5
X7.87Y-1.7555
X7.87Y-1.8539
X7.87Y-1.9524
X7.87Y-2.0508
X7.87Y-2.1492
X7.87Y-2.2476
X7.87Y-2.3461
X7.87Y-2.4445
X7.87Y-3.0305
X7.87Y-3.1289
X7.87Y-3.2274
X7.87Y-3.3258
X7.87Y-3.4242
X7.87Y-3.5226
X7.87Y-3.6211
X7.87Y-3.7195
T6
X3.6668Y-1.9762
X3.7652Y-1.9762
X4.3458Y-1.9802
X4.4442Y-1.9802
X5.0439Y-1.9195
X5.0439Y-2.0195
X5.0439Y-2.1195
X5.0439Y-2.2195
X5.0439Y-2.3195
X5.0439Y-2.4195
X5.0439Y-2.5195
X5.0439Y-2.6195
X5.0439Y-2.7195
X5.0439Y-2.8195
X5.0439Y-2.9195
X5.0439Y-3.0195
X5.0439Y-3.1195
X5.0439Y-3.2195
X5.0439Y-3.3195
X5.0439Y-3.4195
X5.0439Y-3.5195
X5.0439Y-3.6195
X5.0439Y-3.7195
X5.0439Y-3.8195
X5.245Y-3.81
X5.345Y-3.81
X5.445Y-3.81
X5.545Y-3.81
X5.745Y-1.9195
X5.745Y-2.0195
X5.745Y-2.1195
X5.745Y-2.2195
X5.745Y-2.3195
X5.745Y-2.4195
X5.745Y-2.5195
X5.745Y-2.6195
X5.745Y-2.7195
X5.745Y-2.8195
X5.745Y-2.92
X5.745Y-3.0195
X5.745Y-3.1195
X5.745Y-3.2195
X5.745Y-3.3195
X5.745Y-3.4195
X5.745Y-3.5195
X5.745Y-3.62
X5.745Y-3.7195
X5.745Y-3.8195
T7
X3.699Y-3.829
X3.799Y-3.829
X3.899Y-3.829
X3.9198Y-4.1225
X3.9198Y-4.2225
X3.9198Y-4.3225
X3.9198Y-4.4225
X3.9198Y-4.5225
X3.9198Y-4.6225
X3.9198Y-4.8875
X3.9198Y-4.9875
X3.9198Y-5.0875
X3.9198Y-5.1875
X3.9198Y-5.2875
X3.9198Y-5.3875
X3.999Y-3.829
X4.3198Y-4.1225
X4.3198Y-4.2225
X4.3198Y-4.3225
X4.3198Y-4.4225
X4.3198Y-4.5225
X4.3198Y-4.6225
X4.3198Y-4.8875
X4.3198Y-4.9875
X4.3198Y-5.0875
X4.3198Y-5.1875
X4.3198Y-5.2875
X4.3198Y-5.3875
X4.371Y-3.829
X4.471Y-3.829
X4.571Y-3.829
X4.671Y-3.829
X4.96Y-4.11
X4.96Y-4.21
X5.82Y-4.11
X5.82Y-4.21
X6.555Y-1.925
X6.555Y-2.025
X6.555Y-2.125
X6.555Y-2.225
X6.555Y-2.865
X6.555Y-2.965
X6.555Y-3.065
X6.555Y-3.165
X6.555Y-3.805
X6.555Y-3.905
X6.555Y-4.005
X6.555Y-4.105
X6.555Y-4.745
X6.555Y-4.845
X6.555Y-4.945
X6.555Y-5.045
X7.355Y-1.68
X7.355Y-2.47
X7.355Y-2.62
X7.355Y-3.41
X7.355Y-3.56
X7.355Y-4.35
X7.355Y-4.5
X7.355Y-5.29
X7.555Y-1.68
X7.555Y-2.47
X7.555Y-2.62
X7.555Y-3.41
X7.555Y-3.56
X7.555Y-4.35
X7.555Y-4.5
X7.555Y-5.29
T8
X3.57Y-4.1287
X3.57Y-4.2287
X3.57Y-4.3287
X3.57Y-4.4287
X3.57Y-4.5287
X3.57Y-4.6287
X3.57Y-4.8887
X3.57Y-4.9887
X3.57Y-5.0887
X3.57Y-5.1887
X3.57Y-5.2887
X3.57Y-5.3887
X4.6087Y-5.395
X4.7087Y-5.395
X4.8087Y-5.395
X4.9087Y-5.395
X5.0087Y-5.395
X5.1087Y-5.395
X5.235Y-5.395
X5.335Y-5.395
X5.435Y-5.395
X5.535Y-5.395
X5.635Y-5.395
X5.735Y-5.395
X5.9337Y-5.395
X6.0337Y-5.395
X6.1337Y-5.395
X6.2337Y-5.395
X6.3337Y-5.395
X6.4337Y-5.395
T9
X5.99Y-1.7
X6.0884Y-1.7
X6.1869Y-1.7
X6.2853Y-1.7
T10
X3.995Y-3.615
X4.675Y-3.615
X4.87Y-4.715
X5.065Y-4.69
X5.21Y-5.135
X5.49Y-4.21
X6.745Y-2.17
X6.745Y-3.115
X6.745Y-4.055
X7.035Y-2.175
T11
X3.624Y-2.279
X3.824Y-2.279
X4.024Y-2.279
X4.296Y-2.279
X4.496Y-2.279
X4.66Y-4.485
X4.66Y-5.135
X4.696Y-2.279
X6.21Y-4.485
X6.21Y-5.135
X6.455Y-1.975
X6.455Y-2.175
X6.455Y-2.915
X6.455Y-3.115
X6.455Y-3.855
X6.455Y-4.055
X6.455Y-4.795
X6.455Y-4.995
T0
M30
