%TF.GenerationSoftware,KiCad,Pcbnew,(6.0.6)*%
%TF.CreationDate,2022-09-13T11:19:58+07:00*%
%TF.ProjectId,Master,4d617374-6572-42e6-9b69-6361645f7063,rev?*%
%TF.SameCoordinates,Original*%
%TF.FileFunction,Profile,NP*%
%FSLAX46Y46*%
G04 Gerber Fmt 4.6, Leading zero omitted, Abs format (unit mm)*
G04 Created by KiCad (PCBNEW (6.0.6)) date 2022-09-13 11:19:58*
%MOMM*%
%LPD*%
G01*
G04 APERTURE LIST*
%TA.AperFunction,Profile*%
%ADD10C,0.100000*%
%TD*%
%ADD11C,0.150000*%
G04 APERTURE END LIST*
D10*
X88011000Y-140716000D02*
X203200000Y-140716000D01*
X203200000Y-40386000D02*
X88011000Y-40386000D01*
X88011000Y-40386000D02*
X88011000Y-140716000D01*
X203200000Y-140716000D02*
X203200000Y-40386000D01*
D11*
X142645190Y-149638714D02*
X142645190Y-150305380D01*
X142407095Y-149257761D02*
X142169000Y-149972047D01*
X142788047Y-149972047D01*
X143169000Y-150210142D02*
X143216619Y-150257761D01*
X143169000Y-150305380D01*
X143121380Y-150257761D01*
X143169000Y-150210142D01*
X143169000Y-150305380D01*
X144121380Y-149305380D02*
X143645190Y-149305380D01*
X143597571Y-149781571D01*
X143645190Y-149733952D01*
X143740428Y-149686333D01*
X143978523Y-149686333D01*
X144073761Y-149733952D01*
X144121380Y-149781571D01*
X144169000Y-149876809D01*
X144169000Y-150114904D01*
X144121380Y-150210142D01*
X144073761Y-150257761D01*
X143978523Y-150305380D01*
X143740428Y-150305380D01*
X143645190Y-150257761D01*
X143597571Y-150210142D01*
X144502333Y-149305380D02*
X145121380Y-149305380D01*
X144788047Y-149686333D01*
X144930904Y-149686333D01*
X145026142Y-149733952D01*
X145073761Y-149781571D01*
X145121380Y-149876809D01*
X145121380Y-150114904D01*
X145073761Y-150210142D01*
X145026142Y-150257761D01*
X144930904Y-150305380D01*
X144645190Y-150305380D01*
X144549952Y-150257761D01*
X144502333Y-150210142D01*
X145740428Y-149305380D02*
X145835666Y-149305380D01*
X145930904Y-149353000D01*
X145978523Y-149400619D01*
X146026142Y-149495857D01*
X146073761Y-149686333D01*
X146073761Y-149924428D01*
X146026142Y-150114904D01*
X145978523Y-150210142D01*
X145930904Y-150257761D01*
X145835666Y-150305380D01*
X145740428Y-150305380D01*
X145645190Y-150257761D01*
X145597571Y-150210142D01*
X145549952Y-150114904D01*
X145502333Y-149924428D01*
X145502333Y-149686333D01*
X145549952Y-149495857D01*
X145597571Y-149400619D01*
X145645190Y-149353000D01*
X145740428Y-149305380D01*
X146692809Y-149305380D02*
X146788047Y-149305380D01*
X146883285Y-149353000D01*
X146930904Y-149400619D01*
X146978523Y-149495857D01*
X147026142Y-149686333D01*
X147026142Y-149924428D01*
X146978523Y-150114904D01*
X146930904Y-150210142D01*
X146883285Y-150257761D01*
X146788047Y-150305380D01*
X146692809Y-150305380D01*
X146597571Y-150257761D01*
X146549952Y-150210142D01*
X146502333Y-150114904D01*
X146454714Y-149924428D01*
X146454714Y-149686333D01*
X146502333Y-149495857D01*
X146549952Y-149400619D01*
X146597571Y-149353000D01*
X146692809Y-149305380D01*
X148216619Y-150305380D02*
X148216619Y-149638714D01*
X148216619Y-149305380D02*
X148169000Y-149353000D01*
X148216619Y-149400619D01*
X148264238Y-149353000D01*
X148216619Y-149305380D01*
X148216619Y-149400619D01*
X148692809Y-149638714D02*
X148692809Y-150305380D01*
X148692809Y-149733952D02*
X148740428Y-149686333D01*
X148835666Y-149638714D01*
X148978523Y-149638714D01*
X149073761Y-149686333D01*
X149121380Y-149781571D01*
X149121380Y-150305380D01*
D10*
X88138000Y-141216000D02*
X88138000Y-151589420D01*
X203200000Y-141216000D02*
X203200000Y-151589420D01*
X88138000Y-151003000D02*
X203200000Y-151003000D01*
X88138000Y-151003000D02*
X203200000Y-151003000D01*
X88138000Y-151003000D02*
X89264504Y-151589421D01*
X88138000Y-151003000D02*
X89264504Y-150416579D01*
X203200000Y-151003000D02*
X202073496Y-150416579D01*
X203200000Y-151003000D02*
X202073496Y-151589421D01*
D11*
X219282380Y-94098619D02*
X219282380Y-93479571D01*
X219663333Y-93812904D01*
X219663333Y-93670047D01*
X219710952Y-93574809D01*
X219758571Y-93527190D01*
X219853809Y-93479571D01*
X220091904Y-93479571D01*
X220187142Y-93527190D01*
X220234761Y-93574809D01*
X220282380Y-93670047D01*
X220282380Y-93955761D01*
X220234761Y-94051000D01*
X220187142Y-94098619D01*
X220187142Y-93051000D02*
X220234761Y-93003380D01*
X220282380Y-93051000D01*
X220234761Y-93098619D01*
X220187142Y-93051000D01*
X220282380Y-93051000D01*
X220282380Y-92527190D02*
X220282380Y-92336714D01*
X220234761Y-92241476D01*
X220187142Y-92193857D01*
X220044285Y-92098619D01*
X219853809Y-92051000D01*
X219472857Y-92051000D01*
X219377619Y-92098619D01*
X219330000Y-92146238D01*
X219282380Y-92241476D01*
X219282380Y-92431952D01*
X219330000Y-92527190D01*
X219377619Y-92574809D01*
X219472857Y-92622428D01*
X219710952Y-92622428D01*
X219806190Y-92574809D01*
X219853809Y-92527190D01*
X219901428Y-92431952D01*
X219901428Y-92241476D01*
X219853809Y-92146238D01*
X219806190Y-92098619D01*
X219710952Y-92051000D01*
X219282380Y-91146238D02*
X219282380Y-91622428D01*
X219758571Y-91670047D01*
X219710952Y-91622428D01*
X219663333Y-91527190D01*
X219663333Y-91289095D01*
X219710952Y-91193857D01*
X219758571Y-91146238D01*
X219853809Y-91098619D01*
X220091904Y-91098619D01*
X220187142Y-91146238D01*
X220234761Y-91193857D01*
X220282380Y-91289095D01*
X220282380Y-91527190D01*
X220234761Y-91622428D01*
X220187142Y-91670047D01*
X219282380Y-90479571D02*
X219282380Y-90384333D01*
X219330000Y-90289095D01*
X219377619Y-90241476D01*
X219472857Y-90193857D01*
X219663333Y-90146238D01*
X219901428Y-90146238D01*
X220091904Y-90193857D01*
X220187142Y-90241476D01*
X220234761Y-90289095D01*
X220282380Y-90384333D01*
X220282380Y-90479571D01*
X220234761Y-90574809D01*
X220187142Y-90622428D01*
X220091904Y-90670047D01*
X219901428Y-90717666D01*
X219663333Y-90717666D01*
X219472857Y-90670047D01*
X219377619Y-90622428D01*
X219330000Y-90574809D01*
X219282380Y-90479571D01*
X219282380Y-89527190D02*
X219282380Y-89431952D01*
X219330000Y-89336714D01*
X219377619Y-89289095D01*
X219472857Y-89241476D01*
X219663333Y-89193857D01*
X219901428Y-89193857D01*
X220091904Y-89241476D01*
X220187142Y-89289095D01*
X220234761Y-89336714D01*
X220282380Y-89431952D01*
X220282380Y-89527190D01*
X220234761Y-89622428D01*
X220187142Y-89670047D01*
X220091904Y-89717666D01*
X219901428Y-89765285D01*
X219663333Y-89765285D01*
X219472857Y-89717666D01*
X219377619Y-89670047D01*
X219330000Y-89622428D01*
X219282380Y-89527190D01*
X220282380Y-88003380D02*
X219615714Y-88003380D01*
X219282380Y-88003380D02*
X219330000Y-88051000D01*
X219377619Y-88003380D01*
X219330000Y-87955761D01*
X219282380Y-88003380D01*
X219377619Y-88003380D01*
X219615714Y-87527190D02*
X220282380Y-87527190D01*
X219710952Y-87527190D02*
X219663333Y-87479571D01*
X219615714Y-87384333D01*
X219615714Y-87241476D01*
X219663333Y-87146238D01*
X219758571Y-87098619D01*
X220282380Y-87098619D01*
D10*
X203700000Y-140716000D02*
X221566420Y-140716000D01*
X203700000Y-40386000D02*
X221566420Y-40386000D01*
X220980000Y-140716000D02*
X220980000Y-40386000D01*
X220980000Y-140716000D02*
X220980000Y-40386000D01*
X220980000Y-140716000D02*
X221566421Y-139589496D01*
X220980000Y-140716000D02*
X220393579Y-139589496D01*
X220980000Y-40386000D02*
X220393579Y-41512504D01*
X220980000Y-40386000D02*
X221566421Y-41512504D01*
M02*
