%TF.GenerationSoftware,KiCad,Pcbnew,(6.0.6)*%
%TF.CreationDate,2022-09-13T11:19:58+07:00*%
%TF.ProjectId,Master,4d617374-6572-42e6-9b69-6361645f7063,rev?*%
%TF.SameCoordinates,Original*%
%TF.FileFunction,Soldermask,Bot*%
%TF.FilePolarity,Negative*%
%FSLAX46Y46*%
G04 Gerber Fmt 4.6, Leading zero omitted, Abs format (unit mm)*
G04 Created by KiCad (PCBNEW (6.0.6)) date 2022-09-13 11:19:58*
%MOMM*%
%LPD*%
G01*
G04 APERTURE LIST*
G04 Aperture macros list*
%AMOutline4P*
0 Free polygon, 4 corners , with rotation*
0 The origin of the aperture is its center*
0 number of corners: always 4*
0 $1 to $8 corner X, Y*
0 $9 Rotation angle, in degrees counterclockwise*
0 create outline with 4 corners*
4,1,4,$1,$2,$3,$4,$5,$6,$7,$8,$1,$2,$9*%
G04 Aperture macros list end*
%ADD10C,1.778000*%
%ADD11O,1.905000X1.905000*%
%ADD12O,2.540000X2.540000*%
%ADD13R,1.458000X1.458000*%
%ADD14C,1.458000*%
%ADD15R,1.370000X1.370000*%
%ADD16C,1.370000*%
%ADD17O,1.778000X1.778000*%
%ADD18O,3.302000X3.302000*%
%ADD19O,2.032000X2.032000*%
%ADD20O,4.000000X4.000000*%
%ADD21Outline4P,-1.587500X-1.587500X1.587500X-1.587500X1.587500X1.587500X-1.587500X1.587500X180.000000*%
%ADD22R,1.590000X1.590000*%
%ADD23C,1.590000*%
%ADD24R,1.600000X1.600000*%
%ADD25C,1.600000*%
%ADD26C,1.700000*%
%ADD27O,1.700000X1.700000*%
%ADD28R,1.700000X1.700000*%
G04 APERTURE END LIST*
D10*
%TO.C,U5*%
X99562700Y-129222500D03*
X109722700Y-129222500D03*
X99562700Y-131762500D03*
X99562700Y-136842500D03*
X99562700Y-134302500D03*
X99562700Y-126682500D03*
X99562700Y-124142500D03*
X109722700Y-131762500D03*
X109722700Y-136842500D03*
X109722700Y-134302500D03*
X109722700Y-126682500D03*
X109722700Y-124142500D03*
%TD*%
D11*
%TO.C,U8*%
X166497000Y-77851000D03*
X166497000Y-80391000D03*
D12*
X163957000Y-79121000D03*
D11*
X166497000Y-72771000D03*
X166497000Y-75311000D03*
D12*
X163957000Y-74041000D03*
D11*
X186817000Y-66548000D03*
X191897000Y-66548000D03*
X186817000Y-86614000D03*
X191897000Y-86614000D03*
%TD*%
D13*
%TO.C,J7*%
X199898000Y-62090000D03*
D14*
X199898000Y-59590000D03*
X199898000Y-57090000D03*
X199898000Y-54590000D03*
X199898000Y-52090000D03*
X199898000Y-49590000D03*
X199898000Y-47090000D03*
X199898000Y-44590000D03*
%TD*%
D15*
%TO.C,J5*%
X129760500Y-137033000D03*
D16*
X127220500Y-137033000D03*
X124680500Y-137033000D03*
X122140500Y-137033000D03*
X119600500Y-137033000D03*
X117060500Y-137033000D03*
%TD*%
D17*
%TO.C,J2*%
X93136400Y-50194400D03*
X95636400Y-50194400D03*
%TD*%
D16*
%TO.C,J3*%
X90678000Y-104868500D03*
X90678000Y-107408500D03*
X90678000Y-109948500D03*
X90678000Y-112488500D03*
X90678000Y-115028500D03*
D15*
X90678000Y-117568500D03*
%TD*%
D18*
%TO.C,U2*%
X92049600Y-57886600D03*
X97129600Y-57886600D03*
X102209600Y-57886600D03*
D19*
X93954600Y-97256600D03*
X96494600Y-97256600D03*
X99034600Y-97256600D03*
X101574600Y-97256600D03*
%TD*%
D15*
%TO.C,J10*%
X163415500Y-137033000D03*
D16*
X160875500Y-137033000D03*
X158335500Y-137033000D03*
X155795500Y-137033000D03*
X153255500Y-137033000D03*
X150715500Y-137033000D03*
%TD*%
D20*
%TO.C,U6*%
X123444000Y-114554000D03*
X153162000Y-129794000D03*
D21*
X118364000Y-113919000D03*
X118364000Y-130429000D03*
X157734000Y-113919000D03*
X157734000Y-130429000D03*
%TD*%
D10*
%TO.C,U4*%
X99562700Y-109791500D03*
X109722700Y-109791500D03*
X99562700Y-112331500D03*
X99562700Y-117411500D03*
X99562700Y-114871500D03*
X99562700Y-107251500D03*
X99562700Y-104711500D03*
X109722700Y-112331500D03*
X109722700Y-117411500D03*
X109722700Y-114871500D03*
X109722700Y-107251500D03*
X109722700Y-104711500D03*
%TD*%
D22*
%TO.C,J9*%
X152146000Y-43180000D03*
D23*
X154646000Y-43180000D03*
X157146000Y-43180000D03*
X159646000Y-43180000D03*
%TD*%
D18*
%TO.C,U3*%
X109118400Y-57886600D03*
X114198400Y-57886600D03*
X119278400Y-57886600D03*
D19*
X111023400Y-97256600D03*
X113563400Y-97256600D03*
X116103400Y-97256600D03*
X118643400Y-97256600D03*
%TD*%
D24*
%TO.C,C1*%
X155194000Y-107823000D03*
D25*
X155194000Y-104323000D03*
%TD*%
D11*
%TO.C,U11*%
X166497000Y-53975000D03*
X166497000Y-56515000D03*
D12*
X163957000Y-55245000D03*
D11*
X166497000Y-48895000D03*
X166497000Y-51435000D03*
D12*
X163957000Y-50165000D03*
D11*
X186817000Y-42672000D03*
X191897000Y-42672000D03*
X186817000Y-62738000D03*
X191897000Y-62738000D03*
%TD*%
%TO.C,U9*%
X166497000Y-101727000D03*
D12*
X163957000Y-102997000D03*
D11*
X166497000Y-104267000D03*
X166497000Y-96647000D03*
D12*
X163957000Y-97917000D03*
D11*
X166497000Y-99187000D03*
X186817000Y-90424000D03*
X191897000Y-90424000D03*
X186817000Y-110490000D03*
X191897000Y-110490000D03*
%TD*%
D15*
%TO.C,J6*%
X145669000Y-137033000D03*
D16*
X143129000Y-137033000D03*
X140589000Y-137033000D03*
X138049000Y-137033000D03*
X135509000Y-137033000D03*
X132969000Y-137033000D03*
%TD*%
D19*
%TO.C,U7*%
X147828000Y-104394000D03*
X147828000Y-106934000D03*
X125984000Y-104394000D03*
X125984000Y-106934000D03*
%TD*%
D26*
%TO.C,U1*%
X128116000Y-48756000D03*
D27*
X128116000Y-51296000D03*
D28*
X128116000Y-53836000D03*
D27*
X128116000Y-56376000D03*
X128116000Y-58916000D03*
X128116000Y-61456000D03*
X128116000Y-63996000D03*
D28*
X128116000Y-66536000D03*
D27*
X128116000Y-69076000D03*
X128116000Y-71616000D03*
X128116000Y-74156000D03*
X128116000Y-76696000D03*
D28*
X128116000Y-79236000D03*
D27*
X128116000Y-81776000D03*
X128116000Y-84316000D03*
X128116000Y-86856000D03*
X128116000Y-89396000D03*
D28*
X128116000Y-91936000D03*
D27*
X128116000Y-94476000D03*
X128116000Y-97016000D03*
D28*
X145923000Y-97016000D03*
D27*
X145923000Y-94476000D03*
D28*
X145923000Y-91948000D03*
D27*
X145923000Y-89396000D03*
X145923000Y-86856000D03*
X145923000Y-84316000D03*
X145923000Y-81776000D03*
D28*
X145923000Y-79236000D03*
D27*
X145923000Y-76696000D03*
X145923000Y-74168000D03*
X145923000Y-71616000D03*
X145923000Y-69076000D03*
D28*
X145923000Y-66536000D03*
D27*
X145923000Y-63996000D03*
X145923000Y-61456000D03*
X145923000Y-58916000D03*
X145923000Y-56376000D03*
D28*
X145923000Y-53836000D03*
D27*
X145923000Y-51296000D03*
D26*
X145923000Y-48756000D03*
D28*
X133223000Y-96774000D03*
X135763000Y-96774000D03*
X138303000Y-96774000D03*
X140843000Y-96774000D03*
%TD*%
D17*
%TO.C,J1*%
X110383000Y-50296000D03*
X112883000Y-50296000D03*
%TD*%
D13*
%TO.C,J8*%
X199898000Y-94475000D03*
D14*
X199898000Y-91975000D03*
X199898000Y-89475000D03*
X199898000Y-86975000D03*
X199898000Y-84475000D03*
X199898000Y-81975000D03*
X199898000Y-79475000D03*
X199898000Y-76975000D03*
%TD*%
D12*
%TO.C,U10*%
X163957000Y-126873000D03*
D11*
X166497000Y-125603000D03*
X166497000Y-128143000D03*
D12*
X163957000Y-121793000D03*
D11*
X166497000Y-120523000D03*
X166497000Y-123063000D03*
X186817000Y-114300000D03*
X191897000Y-114300000D03*
X186817000Y-134366000D03*
X191897000Y-134366000D03*
%TD*%
D15*
%TO.C,J4*%
X90678000Y-136872500D03*
D16*
X90678000Y-134332500D03*
X90678000Y-131792500D03*
X90678000Y-129252500D03*
X90678000Y-126712500D03*
X90678000Y-124172500D03*
%TD*%
M02*
